<svg xmlns="http://www.w3.org/2000/svg" xmlns:xlink="http://www.w3.org/1999/xlink" viewBox="0 0 456 89.2" enable-background="new 0 0 456 89.2"><defs><path id="a" d="M4 6.1h451.1v80H4z"/></defs><clipPath id="b"><use xlink:href="#a" overflow="visible"/></clipPath><path clip-path="url(#b)" d="M420.8 24.3v43.6h10.8v-23c0-8 5.2-11 10.9-11 3.5 0 5.6 1 7.8 2.8l4.9-9.4c-2.4-2.4-6.7-4.2-11.2-4.2-4.4 0-8.9.8-12.3 6.2l-.8-5h-10.1zM415.2 49.9c1.7-17.9-7.4-27-22-27-14.1 0-23.2 9.5-23.2 22.8 0 14 8.9 23.2 24 23.2 6.6 0 14.1-2.3 18.7-7.1l-6.9-6.8c-2.5 2.6-7.7 4.1-11.7 4.1-7.6 0-12.3-3.9-13-9.3h34.1zM381.4 41c1.6-5.7 6.4-8.5 12.2-8.5 6.2 0 10.6 2.8 11.3 8.5h-23.5zM344.7 14.3v10.1h-8.1v9.3h8.1v18.8c0 10.9 6.2 16.3 15.6 15.9 3.3-.1 5.8-.6 8.9-1.9l-3-9.2c-1.6.8-3.5 1.3-5.2 1.3-3.4 0-5.7-2-5.7-6.2V33.6h12.1v-9.3h-12V10.6l-10.7 3.7zM333.1 28.8c-5-4.4-10.2-5.7-17-5.7-8 0-18.4 3.5-18.4 13.6 0 9.9 9.8 12.9 18 13.5 6.2.4 8.7 1.6 8.7 4.6 0 3.2-3.8 5.3-7.9 5.2-4.9-.1-11.9-2.7-15-6.1l-5.3 7.7c6.4 6.6 13.3 7.8 20.2 7.8 12.5 0 18.7-6.6 18.7-14.3 0-11.6-10.4-13.4-18.7-14-5.6-.4-8.1-1.9-8.1-4.8 0-2.7 2.8-4.3 8-4.3 4.2 0 7.7 1 10.8 3.9l6-7.1zM279.8 30.3c-2.5-4.3-8-7.1-13.9-7.1-12.7-.1-22.7 7.8-22.7 22.8 0 15.3 9.5 23.2 22.5 23.2 4.9-.1 11.7-2.6 14.1-7.7l.5 6.4h10.2V24.3h-10.3l-.4 6zm-12.9 2.5c17 0 17 26.4 0 26.4-7.2 0-12.9-5-12.9-13.3-.1-8.2 5.7-13.1 12.9-13.1M233.8 36.6l6.8-7.2c-4.8-4.7-9.5-6.5-15.7-6.5-12.6 0-23.2 7.6-23.2 23.1 0 15.5 10.5 23.1 23.2 23.1 6.5 0 11.8-1.9 16.8-6.9l-7.2-7.1c-2.7 2.7-6.1 3.6-9.5 3.6-6.7 0-12.4-4.4-12.4-12.7 0-7.6 5.3-12.9 12.6-12.9 2.9.1 6.1 1.2 8.6 3.5M218.4 46.2c0 8.4 12.7 8.4 12.7 0 .1-8.4-12.7-8.4-12.7 0"/><path d="M183.9 24.1h10.8v43.8h-10.8zM164.7 6.1h10.7v61.8h-10.7z"/><defs><path id="c" d="M4 6.1h451.1v80H4z"/></defs><clipPath id="d"><use xlink:href="#c" overflow="visible"/></clipPath><path clip-path="url(#d)" d="M137.1 58.5c-7.3 0-12.4-5.6-12.4-12.4s4.6-12.4 12.4-12.4c7.8 0 12.4 5.6 12.4 12.4s-5.1 12.4-12.4 12.4m-13.3 27.6V62.7c3.1 4.8 9.9 6.2 14.5 6.2 14 0 22-10.1 22-22.8 0-12.8-8.9-22.8-22.4-22.8-4.9 0-10.8 2.1-14.1 7l-.7-6H113v61.8h10.8zM84.6 58.5c-7.3 0-12.4-5.6-12.4-12.4s4.6-12.4 12.4-12.4c7.8 0 12.4 5.6 12.4 12.4s-5.1 12.4-12.4 12.4M71.2 86.1V62.7c3.1 4.8 9.9 6.2 14.5 6.2 14 0 22-10.1 22-22.8 0-12.8-8.9-22.8-22.4-22.8-5 0-10.8 2.1-14.1 7l-.7-6H60.4v61.8h10.8zM40.6 30.3c-2.5-4.3-8-7.1-13.9-7.1C14 23.1 4 31 4 46c0 15.3 9.5 23.2 22.5 23.2 4.9-.1 11.7-2.6 14.1-7.7l.5 6.4h10.2V24.3H41l-.4 6zm-12.9 2.5c17 0 17 26.4 0 26.4-7.2 0-12.9-5-12.9-13.3 0-8.2 5.8-13.1 12.9-13.1"/></svg>