<svg xmlns="http://www.w3.org/2000/svg" viewBox="79 119 376 221" enable-background="new 79 119 376 221"><path d="M188.9 291.5l-.6.6c-9 9.2-19.5 14.1-30.2 14.1-22.5 0-38.8-16.9-38.8-40.1 0-23.2 16.3-40.1 38.8-40.1 10.8 0 21.2 4.9 30.2 14.1l.6.6 14.5-17.5-.4-.4c-12-14.2-26.5-21.2-44.2-21.2-17.8 0-34.1 6-45.9 16.8-12.7 11.6-19.5 28.1-19.5 47.6s6.7 36 19.5 47.8c11.8 10.8 28 16.8 45.9 16.8 17.7 0 32.2-6.9 44.2-21.2l.4-.4-14.5-17.5zM218 203.5h25.5v124.7H218zM343.6 301.1c-6.8 4.2-13.2 6.2-18.9 6.2-8.3 0-12-4.3-12-14.1V227h26v-23.5h-26v-38.8l-25.1 13.4v25.4H266V227h21.6v70.4c0 19.2 11.4 32.3 28.4 32.6 11.5.2 18.5-3.2 22.7-5.7l.3-.1 6.2-24.1-1.6 1zM364.7 203.5h25.6v124.7h-25.6zM406.4 183.3c-21.3-31.9-60.7-54.5-102.7-54.5-41.4 0-80.7 21.9-102.7 54.5h29.4c20-20.7 46-31.9 73.3-31.9 26.8 0 53.2 11.2 73.3 31.9h29.4zM443.8 176.3c0 6.4-4.9 11.3-11.3 11.3s-11.3-4.9-11.3-11.3 4.9-11.3 11.3-11.3c6.5 0 11.3 4.9 11.3 11.3zm2.2 0c0-7.6-5.8-13.4-13.4-13.4s-13.4 5.8-13.4 13.4 5.8 13.4 13.4 13.4 13.4-5.8 13.4-13.4zm-7.3-3.2c0-3-2.2-4.4-4.8-4.4h-6.4v14.6h2.5v-5.7h2.8l2.8 5.7h3l-3-5.9c1.9-.5 3.1-2 3.1-4.3zm-2.5.1c0 1.4-1 2.1-2.3 2.1H430v-4.2h3.8c1.4 0 2.4.7 2.4 2.1z"/><path fill="none" d="M.1 78.5H499v343H.1z"/></svg>