<svg xmlns="http://www.w3.org/2000/svg" viewBox="-7648 3996.9 508 508" enable-background="new -7648 3996.9 508 508"><path fill="#010101" d="M-7222.4 4182.5c0-93.1-75.5-168.6-168.6-168.6s-168.6 75.5-168.6 168.6c0 30.4 8.1 58.9 22.1 83.6 9.6-23.8 23.7-51.9 32.9-58.8 0 0 21.5-19.2 43.5-12.2 0 0 95.6 34.2 121 65.3 0 0 13.3 19.5 7.8 39.3-2.3 8.4-10.7 28.6-20.2 46.9 74.6-17.4 130.1-84.3 130.1-164.1zm-100.6 40.7c-1.4 1.1-2.9 1.9-4.5 2.4-5.5 1.8-11.8.2-15.7-4.6-14.8-18.4-72.5-47.7-93.5-47.6-7.9 0-14.4-6.3-14.4-14.2 0-7.9 6.3-14.4 14.2-14.4 31.8-.2 97.2 35.1 115.9 58.2 5.2 6.2 4.2 15.2-2 20.2zm40.6-16.8c-38.8-47.8-134.7-90-183-89.8-7.1 0-12.9-5.7-13-12.8 0-7.1 5.7-12.9 12.8-12.9 55.2-.2 158.2 44 203.1 99.3 4.5 5.5 3.6 13.6-1.9 18.1-1.2 1-2.6 1.7-4 2.2-4.9 1.6-10.5.1-14-4.1z"/><path d="M-7581.2 4454.8v-1.7c-2.3 2.6-4.6 4.8-6.8 6.4-2.2 1.6-4.7 2.9-7.3 3.8-2.6.9-5.5 1.3-8.5 1.3-4.1 0-7.9-.9-11.4-2.6-3.5-1.7-6.5-4.2-9-7.4s-4.5-7-5.8-11.3c-1.3-4.3-2-9-2-14.1 0-10.7 2.6-19 7.8-25 5.2-6 12.1-8.9 20.6-8.9 4.9 0 9.1.8 12.5 2.5 3.4 1.7 6.7 4.3 9.9 7.8v-25.2c0-3.5.7-6.2 2.1-7.9 1.4-1.8 3.4-2.7 6-2.7s4.6.8 6 2.5c1.4 1.6 2.1 4.1 2.1 7.3v75.3c0 3.3-.8 5.7-2.3 7.3-1.5 1.6-3.4 2.4-5.8 2.4-2.3 0-4.3-.8-5.8-2.5s-2.3-4.1-2.3-7.3zm-33.6-25.1c0 4.6.7 8.6 2.2 11.8 1.4 3.3 3.4 5.7 5.9 7.4 2.5 1.6 5.2 2.5 8.2 2.5 3 0 5.7-.8 8.2-2.3 2.5-1.6 4.5-4 5.9-7.2 1.5-3.2 2.2-7.3 2.2-12.1 0-4.5-.7-8.5-2.2-11.7-1.5-3.3-3.5-5.8-6-7.5-2.5-1.7-5.3-2.6-8.3-2.6-3.1 0-5.9.9-8.4 2.7-2.5 1.8-4.4 4.3-5.7 7.6-1.3 3.2-2 7.1-2 11.4zM-7504.7 4455c-4.1 3.2-8.1 5.6-12 7.2-3.9 1.6-8.2 2.4-13 2.4-4.4 0-8.2-.9-11.5-2.6-3.3-1.7-5.9-4.1-7.7-7-1.8-3-2.7-6.2-2.7-9.6 0-4.7 1.5-8.7 4.4-11.9 3-3.3 7-5.5 12.2-6.6 1.1-.2 3.8-.8 8.1-1.7 4.3-.9 8-1.7 11-2.4 3.1-.7 6.4-1.6 10-2.7-.2-4.5-1.1-7.8-2.7-9.9-1.6-2.1-4.9-3.2-10-3.2-4.3 0-7.6.6-9.8 1.8-2.2 1.2-4.1 3-5.6 5.4-1.6 2.4-2.7 4-3.3 4.8-.6.8-2 1.2-4.2 1.2-1.9 0-3.6-.6-5-1.8-1.4-1.2-2.1-2.8-2.1-4.7 0-3 1.1-5.9 3.2-8.8 2.1-2.8 5.4-5.2 9.9-7 4.5-1.8 10.1-2.8 16.8-2.8 7.5 0 13.4.9 17.7 2.7 4.3 1.8 7.3 4.6 9.1 8.4 1.8 3.8 2.7 8.9 2.7 15.3v10.2c0 2.8-.1 5.9-.1 9.3 0 3.2.5 6.6 1.6 10 1.1 3.5 1.6 5.7 1.6 6.7 0 1.8-.8 3.3-2.5 4.8-1.6 1.4-3.5 2.2-5.6 2.2-1.8 0-3.5-.8-5.2-2.5-1.6-1.7-3.4-4.1-5.3-7.2zm-1.2-24.8c-2.5.9-6.1 1.9-10.9 2.9-4.8 1-8.1 1.8-9.9 2.3-1.8.5-3.6 1.4-5.3 2.8-1.7 1.4-2.5 3.3-2.5 5.8 0 2.6 1 4.8 2.9 6.6 2 1.8 4.5 2.7 7.7 2.7 3.4 0 6.5-.7 9.4-2.2 2.9-1.5 5-3.4 6.3-5.7 1.5-2.6 2.3-6.8 2.3-12.8v-2.4zM-7457.7 4404.7v2.1c3.2-4 6.5-6.9 10-8.7 3.5-1.9 7.4-2.8 11.8-2.8 5.3 0 10.1 1.4 14.5 4.1 4.4 2.7 7.9 6.7 10.5 11.9 2.6 5.2 3.8 11.4 3.8 18.5 0 5.3-.7 10.1-2.2 14.5-1.5 4.4-3.5 8.1-6.1 11.1-2.6 3-5.6 5.3-9.2 6.9-3.5 1.6-7.3 2.4-11.4 2.4-4.9 0-9-1-12.3-2.9-3.3-2-6.5-4.8-9.5-8.6v25.7c0 7.5-2.7 11.3-8.2 11.3-3.2 0-5.3-1-6.4-2.9-1-1.9-1.6-4.8-1.6-8.5v-73.7c0-3.3.7-5.7 2.1-7.3 1.4-1.6 3.4-2.4 5.8-2.4s4.4.8 5.9 2.5c1.7 1.4 2.5 3.7 2.5 6.8zm33.5 24.9c0-4.5-.7-8.4-2.1-11.6-1.4-3.2-3.3-5.7-5.7-7.4-2.4-1.7-5.1-2.6-8.1-2.6-4.7 0-8.7 1.9-11.9 5.6-3.2 3.7-4.8 9.2-4.8 16.4 0 6.8 1.6 12.1 4.8 15.9 3.2 3.8 7.2 5.7 11.9 5.7 2.8 0 5.5-.8 7.9-2.5 2.4-1.6 4.4-4.1 5.8-7.4 1.4-3.5 2.2-7.5 2.2-12.1zM-7349 4455v-2.2c-2 2.6-4.2 4.8-6.4 6.5-2.3 1.8-4.7 3.1-7.4 3.9-2.7.9-5.7 1.3-9.1 1.3-4.1 0-7.8-.9-11.1-2.6-3.3-1.7-5.8-4.1-7.6-7.1-2.1-3.6-3.2-8.8-3.2-15.6v-33.8c0-3.4.8-6 2.3-7.7 1.5-1.7 3.6-2.5 6.1-2.5 2.6 0 4.7.9 6.3 2.6 1.6 1.7 2.4 4.3 2.4 7.6v27.3c0 4 .3 7.3 1 10s1.9 4.8 3.6 6.3 4.1 2.3 7 2.3c2.9 0 5.6-.9 8.1-2.6 2.5-1.7 4.4-3.9 5.6-6.7 1-2.4 1.4-7.7 1.4-15.9v-20.8c0-3.4.8-5.9 2.4-7.6 1.6-1.7 3.6-2.6 6.2-2.6 2.5 0 4.6.8 6.1 2.5s2.3 4.2 2.3 7.7v49.5c0 3.3-.7 5.7-2.2 7.3-1.5 1.6-3.4 2.4-5.7 2.4-2.3 0-4.3-.8-5.8-2.5-1.6-1.6-2.3-4-2.3-7zM-7316 4454.2v-74.1c0-3.4.8-6 2.3-7.8s3.6-2.6 6.2-2.6 4.7.9 6.3 2.6c1.6 1.7 2.4 4.3 2.4 7.8v74.1c0 3.5-.8 6.1-2.4 7.8-1.6 1.7-3.7 2.6-6.2 2.6s-4.5-.9-6.1-2.7c-1.7-1.8-2.5-4.4-2.5-7.7zM-7226.3 4442.3c0 4.7-1.1 8.8-3.4 12.1-2.3 3.4-5.7 5.9-10.2 7.6-4.5 1.7-9.9 2.6-16.4 2.6-6.1 0-11.4-.9-15.8-2.8s-7.6-4.2-9.7-7c-2.1-2.8-3.1-5.6-3.1-8.5 0-1.9.7-3.5 2-4.8 1.3-1.3 3-2 5.1-2 1.8 0 3.2.4 4.1 1.3 1 .9 1.9 2.1 2.8 3.7 1.8 3 3.8 5.3 6.3 6.8 2.4 1.5 5.8 2.3 10 2.3 3.4 0 6.2-.8 8.4-2.3 2.2-1.5 3.3-3.3 3.3-5.2 0-3-1.1-5.2-3.4-6.6-2.3-1.4-6-2.7-11.2-3.9-5.9-1.5-10.7-3-14.4-4.6-3.7-1.6-6.6-3.7-8.9-6.4-2.2-2.6-3.3-5.9-3.3-9.7 0-3.4 1-6.7 3.1-9.7 2-3 5.1-5.5 9-7.3 4-1.8 8.8-2.7 14.4-2.7 4.4 0 8.4.5 11.9 1.4 3.5.9 6.5 2.1 8.8 3.7 2.4 1.5 4.1 3.3 5.4 5.1 1.2 1.9 1.8 3.7 1.8 5.5 0 2-.7 3.6-2 4.8-1.3 1.3-3.2 1.9-5.6 1.9-1.8 0-3.2-.5-4.5-1.5-1.2-1-2.6-2.5-4.2-4.5-1.3-1.7-2.8-3-4.6-4-1.8-1-4.1-1.5-7.1-1.5-3.1 0-5.7.7-7.7 2s-3.1 3-3.1 4.9c0 1.8.8 3.3 2.3 4.4 1.5 1.1 3.5 2.1 6.1 2.8 2.5.8 6 1.7 10.5 2.8 5.3 1.3 9.6 2.8 13 4.6 3.4 1.8 5.9 3.9 7.6 6.3 1.9 2.4 2.7 5.2 2.7 8.4zM-7164.1 4434.1h-33.4c0 3.9.8 7.3 2.3 10.3 1.5 3 3.5 5.2 6.1 6.7 2.5 1.5 5.3 2.3 8.4 2.3 2 0 3.9-.2 5.6-.7 1.7-.5 3.3-1.2 4.9-2.3 1.6-1 3-2.1 4.4-3.3 1.3-1.2 3.1-2.8 5.2-4.8.9-.8 2.1-1.1 3.8-1.1 1.8 0 3.2.5 4.3 1.4 1.1 1 1.6 2.3 1.6 4.1 0 1.5-.6 3.3-1.8 5.4-1.2 2.1-3 4-5.5 5.9-2.4 1.9-5.5 3.5-9.2 4.7-3.7 1.3-7.9 1.9-12.7 1.9-11 0-19.5-3.1-25.6-9.4-6.1-6.3-9.1-14.7-9.1-25.5 0-5 .8-9.7 2.3-14 1.5-4.3 3.7-8 6.6-11.1 2.9-3.1 6.4-5.5 10.6-7.1 4.2-1.6 8.9-2.5 14-2.5 6.7 0 12.4 1.4 17.2 4.2 4.8 2.8 8.4 6.5 10.7 10.9 2.4 4.5 3.6 9 3.6 13.6 0 4.3-1.2 7.1-3.7 8.4-2.7 1.3-6.2 2-10.6 2zm-33.4-9.7h31c-.4-5.8-2-10.2-4.7-13.1-2.7-2.9-6.3-4.3-10.8-4.3-4.3 0-7.7 1.5-10.5 4.4-2.8 2.9-4.5 7.2-5 13z"/></svg>