<svg xmlns="http://www.w3.org/2000/svg" viewBox="0 0 559 80" enable-background="new 0 0 559 80"><path fill="#DB4436" d="M-1298.1 185c10.2 0 19.1-5.5 23.9-13.8l63.7-110.3c5.1-8.8 4.8-19.3 0-27.6l-35.8-62c-2.6-4.4-7.2-6.9-11.9-6.9h-55.7l47.7 82.7-75.6 130.9c-2.4 4.1-6.8 6.9-11.9 6.9l55.6.1z"/><path fill="#547DBF" stroke="#407CCA" stroke-miterlimit="10" d="M-1274.2-76.9c-5.1-8.8-14.4-13.8-23.9-13.8h-127.3c-10.2 0-19.1 5.5-23.9 13.8l-35.8 62c-2.5 4.4-2.4 9.7 0 13.8l27.8 48.2 47.7-82.7h151.2c4.8 0 9.4 2.5 11.9 6.9l-27.7-48.2z"/><path fill="#F3B41B" d="M-1512.9 33.4c-5.1 8.8-4.8 19.3 0 27.6l63.7 110.3c5.1 8.8 14.4 13.8 23.9 13.8h71.6c5.1 0 9.6-2.8 11.9-6.9l27.8-48.2h-95.5L-1485.1-.9c-2.4-4.1-2.5-9.4 0-13.8l-27.8 48.1z"/><path fill="#ccc" d="M-1409.5 129.9l-47.7-82.7 47.7-82.7h95.5l47.7 82.7-47.7 82.7z"/><circle fill="#fff" cx="-1361.7" cy="47.2" r="41.3"/><circle fill="#fff" cx="-1425.4" cy="-63.1" r="6.9"/><circle fill="#fff" cx="-1489.1" cy="47.2" r="6.9"/><circle fill="#fff" cx="-1425.4" cy="157.4" r="6.9"/><circle fill="#fff" cx="-1298.1" cy="157.4" r="6.9"/><circle fill="#fff" cx="-1234.4" cy="47.2" r="6.9"/><circle fill="#fff" cx="-1298.1" cy="-63.1" r="6.9"/><path opacity=".1" fill="#010101" d="M-1341.9 178.1l27.8-48.2h-28.8l-11 55.1c5.2 0 9.7-2.8 12-6.9zM-1258.3-35.5h-55.7l14.4 24.9 53.2-18c-2.5-4.5-7.2-6.9-11.9-6.9zM-1485.1-1.1l27.8 48.2 14.4-24.9-42.2-37.1c-2.5 4.5-2.4 9.7 0 13.8z"/><path fill="#DB4436" d="M1901.8 68.3c1.8 0 3.4-1 4.2-2.4l11.3-19.6c.9-1.6.8-3.4 0-4.9l-6.4-11c-.5-.8-1.3-1.2-2.1-1.2h-9.9l8.5 14.7-13.4 23.2c-.4.7-1.2 1.2-2.1 1.2h9.9z"/><path fill="#547DBF" stroke="#407CCA" stroke-width=".211" stroke-miterlimit="10" d="M1906 21.8c-.9-1.6-2.5-2.4-4.2-2.4h-22.6c-1.8 0-3.4 1-4.2 2.4l-6.4 11c-.5.8-.4 1.7 0 2.4l4.9 8.6 8.5-14.7h26.8c.8 0 1.7.4 2.1 1.2l-4.9-8.5z"/><path fill="#F3B41B" d="M1863.7 41.4c-.9 1.6-.8 3.4 0 4.9l11.3 19.6c.9 1.6 2.5 2.4 4.2 2.4h12.7c.9 0 1.7-.5 2.1-1.2l4.9-8.6H1882l-13.4-23.2c-.4-.7-.5-1.7 0-2.4l-4.9 8.5z"/><path fill="#ccc" d="M1882 58.5l-8.5-14.6 8.5-14.7h17l8.4 14.7-8.4 14.6z"/><circle fill="#fff" cx="1890.5" cy="43.9" r="7.3"/><circle fill="#fff" cx="1879.2" cy="24.3" r="1.2"/><circle fill="#fff" cx="1867.9" cy="43.9" r="1.2"/><circle fill="#fff" cx="1879.2" cy="63.4" r="1.2"/><circle fill="#fff" cx="1901.8" cy="63.4" r="1.2"/><circle fill="#fff" cx="1913.1" cy="43.9" r="1.2"/><circle fill="#fff" cx="1901.8" cy="24.3" r="1.2"/><path opacity=".1" fill="#010101" d="M1894 67.1l4.9-8.6h-5.1l-2 9.8c1 0 1.8-.5 2.2-1.2zM1908.8 29.2h-9.9l2.6 4.4 9.4-3.2c-.4-.8-1.2-1.2-2.1-1.2zM1868.6 35.3l4.9 8.6 2.6-4.4-7.5-6.6c-.4.7-.4 1.7 0 2.4z"/><path fill="#757C7F" d="M1883.1 78.3c-.9 0-1.6.3-2.1.9-.5.6-.8 1.4-.8 2.4s.2 1.8.7 2.4c.5.6 1.2.9 2.1.9.6 0 1.2-.1 1.7-.2v.3c-.5.2-1.1.3-1.8.3-1 0-1.8-.3-2.4-1-.6-.7-.9-1.6-.9-2.8 0-.7.1-1.4.4-1.9.3-.6.7-1 1.2-1.3.5-.3 1.1-.5 1.8-.5s1.3.1 1.9.4l-.2.5c-.5-.3-1.1-.4-1.6-.4"/><path fill="#757C7F" d="M1886 77.5h.5v7.7h-.5z"/><g fill="#757C7F"><path d="M1888.4 82.5c0 .7.2 1.3.5 1.7.3.4.8.6 1.4.6.6 0 1.1-.2 1.4-.6.3-.4.5-1 .5-1.7s-.2-1.3-.5-1.7c-.3-.4-.8-.6-1.4-.6s-1.1.2-1.4.6c-.3.4-.5.9-.5 1.7m4.3 0c0 .9-.2 1.6-.6 2.1-.4.5-1 .7-1.8.7-.5 0-.9-.1-1.2-.3-.4-.2-.6-.6-.8-1-.2-.4-.3-.9-.3-1.5 0-.9.2-1.6.6-2.1.4-.5 1-.7 1.8-.7.7 0 1.3.2 1.7.7.4.5.6 1.2.6 2.1"/><path d="M1894.5 79.8v3.5c0 .5.1.9.3 1.2.2.2.6.4 1.1.4.6 0 1.1-.2 1.4-.5.3-.3.5-.8.5-1.6v-3h.5v5.4h-.4l-.1-.7c-.3.6-1 .8-1.9.8-1.2 0-1.8-.7-1.8-2v-3.5h.4zM1901.9 80.1c-.6 0-1 .2-1.3.6-.3.4-.4 1-.4 1.8 0 1.5.6 2.3 1.8 2.3.6 0 1.1-.2 1.3-.5.3-.4.4-.9.4-1.7v-.1c0-.8-.1-1.4-.4-1.8-.3-.4-.8-.6-1.4-.6m0-.4c.4 0 .7.1 1 .2.3.1.5.4.8.7V77.5h.5v7.7h-.3l-.1-.8c-.4.6-1 .9-1.8.9-.7 0-1.3-.2-1.7-.7-.4-.5-.6-1.1-.6-2 0-.9.2-1.6.6-2.1.3-.6.9-.8 1.6-.8M1909 81.8h1c.8 0 1.4-.1 1.8-.4.4-.3.5-.7.5-1.3 0-.6-.2-1-.5-1.2-.3-.3-.9-.4-1.6-.4h-1.2v3.3zm3.9-1.8c0 .7-.2 1.2-.7 1.6-.5.4-1.1.6-2 .6h-1.1v3h-.5V78h1.8c1.6-.1 2.5.6 2.5 2"/></g><path fill="#757C7F" d="M1914.3 77.5h.5v7.7h-.5zM1917.7 84.8c.6 0 1-.2 1.4-.5.3-.3.5-.8.5-1.4v-.5h-.9c-.8 0-1.3.2-1.6.4-.3.2-.5.5-.5.9 0 .3.1.6.3.8.2.3.5.3.8.3m2 .4l-.1-.9c-.3.3-.5.6-.8.7-.3.1-.6.2-1 .2-.5 0-.9-.1-1.2-.4-.3-.3-.4-.6-.4-1.1 0-.5.2-.9.7-1.2.4-.3 1.1-.4 1.9-.5h1v-.4c0-.5-.1-.9-.3-1.2-.2-.3-.5-.4-1-.4s-1 .1-1.6.4l-.2-.4c.6-.3 1.2-.4 1.8-.4.6 0 1 .2 1.3.5.3.3.4.8.4 1.4v3.6h-.5zM1923.1 84.9c.3 0 .6 0 .8-.1v.4c-.2.1-.5.1-.8.1-.5 0-.8-.1-1.1-.4-.2-.3-.3-.7-.3-1.2v-3.5h-.8v-.3l.8-.2.2-1.2h.3v1.3h1.6v.4h-1.6v3.4c0 .4.1.7.2.9.2.3.4.4.7.4"/><path fill="#757C7F" d="M1927 80.2h-1.3v5h-.5v-5h-1v-.3l1-.2v-.4c0-.7.1-1.1.4-1.5.2-.3.6-.5 1.2-.5.3 0 .6 0 .9.1l-.1.4c-.3-.1-.5-.1-.8-.1-.4 0-.7.1-.8.3-.2.2-.2.6-.2 1.1v.5h1.3v.6zM1928.2 82.5c0 .7.2 1.3.5 1.7.3.4.8.6 1.4.6s1.1-.2 1.4-.6c.3-.4.5-1 .5-1.7s-.2-1.3-.5-1.7c-.3-.4-.8-.6-1.4-.6s-1.1.2-1.4.6c-.4.4-.5.9-.5 1.7m4.2 0c0 .9-.2 1.6-.6 2.1-.4.5-1 .7-1.8.7-.5 0-.9-.1-1.2-.3-.4-.2-.6-.6-.8-1-.2-.4-.3-.9-.3-1.5 0-.9.2-1.6.6-2.1.4-.5 1-.7 1.8-.7.7 0 1.3.2 1.7.7.4.5.6 1.2.6 2.1M1935.9 79.7c.2 0 .5 0 .7.1l-.1.5c-.2-.1-.5-.1-.7-.1-.5 0-.8.2-1.1.6-.3.4-.4.9-.4 1.5v3h-.5v-5.4h.4v1c.2-.4.5-.7.7-.8.3-.3.7-.4 1-.4"/><path fill="#757C7F" d="M1944.4 85.2v-3.5c0-.5-.1-.9-.3-1.1-.2-.2-.5-.4-.9-.4-.6 0-1 .2-1.2.5-.3.3-.4.8-.4 1.4v3.2h-.5v-3.7c0-.9-.4-1.4-1.2-1.4-.6 0-1 .2-1.2.5-.3.3-.4.9-.4 1.6v3h-.5v-5.4h.4l.1.7c.1-.3.4-.5.6-.6.3-.1.6-.2.9-.2.8 0 1.4.3 1.6 1 .2-.3.4-.5.7-.7.3-.2.6-.2 1-.2.6 0 1 .2 1.3.5.3.3.4.8.4 1.5v3.5h-.4zM1864.6 83.1c.3-.3.3-.7.3-1 0-1-.6-2.5-1.7-2.5-.3 0-.7.2-.9.4-.2.3-.3.6-.3 1 0 .9.5 2.4 1.7 2.4.3.1.7-.1.9-.3m-.4 2.5h-.3c-.1 0-.8 0-1.4.2-.3.1-1.1.4-1.1 1.4 0 .9.9 1.6 2.3 1.6 1.3 0 2-.6 2-1.4-.1-.7-.5-1-1.5-1.8m.9-5.9c.3.3.9.8.9 1.8s-.6 1.5-1.1 1.9c-.2.2-.4.4-.4.7 0 .3.2.5.3.6l.5.4c.6.5 1.1.9 1.1 1.9 0 1.3-1.2 2.5-3.5 2.5-1.9 0-2.9-.9-2.9-1.9 0-.5.2-1.2 1-1.6.8-.5 1.9-.6 2.5-.6-.2-.2-.4-.5-.4-.9 0-.2.1-.4.1-.5h-.4c-1.4 0-2.2-1.1-2.2-2.1 0-.6.3-1.3.9-1.8.8-.6 1.7-.7 2.4-.7h2.7l-.9.5h-.6zM1858.4 84.3c.3-.4.4-1 .4-1.5 0-1.2-.6-3.4-2.2-3.4-.4 0-.9.2-1.2.5-.5.5-.6 1.1-.6 1.6 0 1.3.7 3.5 2.3 3.5.5 0 1-.2 1.3-.7m-1.6 1.1c-2.1 0-3.2-1.7-3.2-3.1 0-1.7 1.4-3.2 3.4-3.2s3.2 1.5 3.2 3.1c-.1 1.6-1.3 3.2-3.4 3.2M1851.2 84.3c.3-.4.4-1 .4-1.5 0-1.2-.6-3.4-2.2-3.4-.4 0-.9.2-1.2.5-.5.5-.6 1.1-.6 1.6 0 1.3.6 3.5 2.3 3.5.5 0 1-.2 1.3-.7m-1.6 1.1c-2.1 0-3.2-1.7-3.2-3.1 0-1.7 1.4-3.2 3.4-3.2s3.2 1.5 3.2 3.1c-.1 1.6-1.3 3.2-3.4 3.2M1869.4 84.8c-.4 0-.5-.1-.5-.6v-7.7c.1-.5.2-.5.6-.8h-1.9l-1 .5h1v8.2c0 .3-.1.3-.4.7h2.4l.5-.3c-.3.1-.5.1-.7 0"/><path fill="#757C7F" d="M1873.5 81c.3-.1.4-.2.4-.4 0-.5-.6-1.1-1.3-1.1-.5 0-1.5.4-1.5 1.9v.7l2.4-1.1zm1.3 4c-.1.1-.3.2-.4.2-.4.2-.9.3-1.3.3s-1.1 0-1.8-.5c-.9-.7-1.4-1.8-1.4-2.8 0-2.1 1.7-3.1 3-3.1.5 0 1 .1 1.4.4.7.4.8 1 .9 1.3l-3.1 1.3-1 .1c.3 1.7 1.5 2.7 2.7 2.7.7 0 1.2-.2 1.6-.5l-.6.6zM1845.3 85.2l-1.9.4c-.8.1-1.5.2-2.2.2-3.7 0-5.1-2.7-5.1-4.9 0-2.6 2-5 5.4-5 .7 0 1.4.1 2 .3 1 .3 1.5.6 1.8.8l-1.1 1.1-.5.1.3-.5c-.5-.4-1.3-1.3-2.9-1.3-2.1 0-3.7 1.6-3.7 4 0 2.5 1.8 4.9 4.7 4.9.9 0 1.3-.2 1.7-.3v-2.2l-2 .1 1.1-.6h2.8l-.3.3c-.1.1-.1.1-.1.2v2.4z"/><path fill="#676868" d="M59 73.3c2.6 0 4.8-1.4 6-3.5L81.1 42c1.3-2.2 1.2-4.9 0-7l-9-15.6c-.6-1.1-1.8-1.7-3-1.7h-14l12 20.9-19.1 33c-.6 1-1.7 1.7-3 1.7h14z"/><path fill="#808182" d="M65.1 7.3c-1.3-2.2-3.6-3.5-6-3.5H27c-2.6 0-4.8 1.4-6 3.5l-9 15.6c-.6 1.1-.6 2.4 0 3.5l7 12.2 12-20.9h38.1c1.2 0 2.4.6 3 1.7l-7-12.1z"/><path fill="#B4B4B5" d="M4.9 35.1c-1.3 2.2-1.2 4.9 0 7L21 69.9c1.3 2.2 3.6 3.5 6 3.5h18.1c1.3 0 2.4-.7 3-1.7l7-12.2H31l-19.1-33c-.6-1-.6-2.4 0-3.5l-7 12.1z"/><path fill="#ccc" d="M31 59.4L18.9 38.6 31 17.7h24l12.1 20.9L55 59.4z"/><circle fill="#fff" cx="43" cy="38.6" r="10.4"/><circle fill="#fff" cx="26.9" cy="10.8" r="1.7"/><circle fill="#fff" cx="10.9" cy="38.6" r="1.7"/><circle fill="#fff" cx="26.9" cy="66.4" r="1.7"/><circle fill="#fff" cx="59.1" cy="66.4" r="1.7"/><circle fill="#fff" cx="75.1" cy="38.6" r="1.7"/><circle fill="#fff" cx="59.1" cy="10.8" r="1.7"/><path opacity=".1" fill="#010101" d="M48 71.6l7-12.2h-7.3L45 73.3c1.3 0 2.4-.7 3-1.7zM69.1 17.7h-14l3.6 6.3 13.4-4.5c-.7-1.2-1.8-1.8-3-1.8zM11.9 26.4l7 12.2 3.6-6.3-10.6-9.4c-.6 1.2-.6 2.5 0 3.5z"/><path fill="#757C7F" d="M296.6 27.5c-3.8 0-6.8 1.2-8.9 3.6-2.2 2.4-3.3 5.7-3.3 10s1 7.7 3.1 10c2.1 2.4 5 3.6 8.8 3.6 2.5 0 4.9-.3 7-1v1.9c-2 .7-4.5 1.1-7.5 1.1-4.2 0-7.6-1.4-10-4.1-2.4-2.7-3.7-6.6-3.7-11.5 0-3.1.6-5.8 1.7-8.1 1.2-2.3 2.8-4.2 5-5.4 2.2-1.3 4.7-1.9 7.6-1.9 2.9 0 5.6.6 7.9 1.7l-.8 1.9c-2.1-1.3-4.5-1.8-6.9-1.8"/><path fill="#757C7F" d="M309.1 24.1h2v32.2h-2z"/><g fill="#757C7F"><path d="M319.1 45c0 3.1.7 5.5 2 7.2 1.4 1.7 3.3 2.6 5.8 2.6s4.4-.9 5.8-2.6c1.4-1.7 2-4.1 2-7.2 0-3.1-.7-5.5-2.1-7.2-1.4-1.7-3.3-2.6-5.8-2.6s-4.4.9-5.7 2.6c-1.4 1.7-2 4.1-2 7.2m17.7 0c0 3.7-.9 6.5-2.7 8.6-1.8 2.1-4.2 3.1-7.4 3.1-2 0-3.7-.5-5.2-1.4-1.5-1-2.7-2.3-3.5-4.1-.8-1.8-1.2-3.8-1.2-6.2 0-3.7.9-6.5 2.7-8.6 1.8-2 4.2-3.1 7.3-3.1 3.1 0 5.5 1 7.3 3.1 1.8 2.1 2.7 5 2.7 8.6"/><path d="M344.4 33.8v14.5c0 2.3.5 3.9 1.4 4.9 1 1 2.4 1.5 4.4 1.5 2.7 0 4.6-.7 5.9-2 1.3-1.3 1.9-3.5 1.9-6.6V33.8h2v22.5h-1.7l-.4-3.1h-.1c-1.5 2.3-4.1 3.5-7.8 3.5-5.1 0-7.7-2.7-7.7-8.2V33.8h2.1zM375.3 35.2c-2.5 0-4.3.9-5.5 2.6-1.2 1.7-1.8 4.2-1.8 7.5 0 6.4 2.5 9.5 7.4 9.5 2.5 0 4.4-.7 5.6-2.2 1.2-1.5 1.8-3.9 1.8-7.3V45c0-3.5-.6-6-1.7-7.5-1.3-1.5-3.1-2.3-5.8-2.3m0-1.9c1.6 0 3 .3 4.2.9 1.2.6 2.2 1.6 3.2 3h.1c-.1-1.7-.1-3.4-.1-5.1V24h2v32.2h-1.3l-.5-3.4h-.2c-1.7 2.6-4.2 3.8-7.4 3.8-3.1 0-5.5-1-7.1-2.9-1.6-1.9-2.5-4.7-2.5-8.4 0-3.9.8-6.9 2.4-8.9 1.8-2 4.1-3.1 7.2-3.1M405.1 41.9h4.2c3.4 0 5.9-.6 7.4-1.7s2.3-2.9 2.3-5.5c0-2.3-.7-4.1-2.1-5.2-1.4-1.1-3.7-1.7-6.7-1.7h-5v14.1zm16.1-7.2c0 2.9-1 5.2-3 6.7-2 1.6-4.8 2.3-8.4 2.3h-4.7v12.5H403V26h7.4c7.2 0 10.8 2.9 10.8 8.7"/></g><path fill="#757C7F" d="M426.8 24.1h2v32.2h-2zM441.3 54.8c2.4 0 4.3-.7 5.7-2.1 1.4-1.4 2.1-3.3 2.1-5.7v-2.2l-3.9.2c-3.2.2-5.4.6-6.7 1.5-1.3.8-2 2.1-2 3.9 0 1.4.4 2.5 1.3 3.3.7.7 1.9 1.1 3.5 1.1m8.3 1.4l-.5-3.6h-.2c-1.1 1.4-2.3 2.5-3.5 3.1-1.2.6-2.6.9-4.2.9-2.2 0-3.9-.6-5.1-1.7-1.2-1.1-1.8-2.7-1.8-4.7 0-2.2.9-3.9 2.7-5.1 1.8-1.2 4.5-1.9 7.9-1.9l4.3-.1v-1.5c0-2.1-.4-3.7-1.3-4.8-.9-1.1-2.3-1.6-4.2-1.6-2.1 0-4.2.6-6.5 1.7l-.8-1.8c2.5-1.2 4.9-1.7 7.3-1.7 2.5 0 4.3.6 5.5 1.9 1.2 1.3 1.8 3.3 1.8 6v14.9h-1.4zM463.9 54.8c1.3 0 2.4-.1 3.4-.3v1.7c-1 .3-2.1.5-3.4.5-2 0-3.4-.5-4.4-1.6-.9-1.1-1.4-2.7-1.4-5V35.6h-3.3v-1.2l3.3-.9 1-5.1h1.1v5.4h6.6v1.8h-6.6v14.2c0 1.7.3 3 .9 3.8.5.8 1.5 1.2 2.8 1.2"/><path fill="#757C7F" d="M480 35.6h-5.3v20.7h-2V35.6h-4.2v-1.2l4.2-.8v-1.7c0-2.8.5-4.8 1.5-6.1 1-1.3 2.7-1.9 5-1.9 1.2 0 2.5.2 3.7.6l-.5 1.8c-1.1-.3-2.2-.5-3.3-.5-1.6 0-2.7.5-3.4 1.4-.7.9-1 2.5-1 4.6v2.1h5.3v1.7zM484.8 45c0 3.1.7 5.5 2 7.2 1.4 1.7 3.3 2.6 5.8 2.6s4.4-.9 5.8-2.6c1.4-1.7 2-4.1 2-7.2 0-3.1-.7-5.5-2.1-7.2-1.4-1.7-3.3-2.6-5.8-2.6s-4.4.9-5.7 2.6c-1.3 1.7-2 4.1-2 7.2m17.7 0c0 3.7-.9 6.5-2.7 8.6-1.8 2.1-4.2 3.1-7.4 3.1-2 0-3.7-.5-5.2-1.4-1.5-1-2.7-2.3-3.5-4.1-.8-1.8-1.2-3.8-1.2-6.2 0-3.7.9-6.5 2.7-8.6 1.8-2 4.2-3.1 7.3-3.1 3.1 0 5.5 1 7.3 3.1 1.9 2.1 2.7 5 2.7 8.6M517.2 33.3c1 0 2 .1 3.1.3l-.4 2c-.9-.2-1.9-.4-2.9-.4-1.9 0-3.5.8-4.7 2.4-1.2 1.6-1.8 3.7-1.8 6.2v12.4h-2V33.8h1.7l.2 4.1h.1c.9-1.7 1.9-2.8 3-3.5.9-.7 2.2-1.1 3.7-1.1"/><path fill="#757C7F" d="M552.4 56.2V41.5c0-2.2-.4-3.8-1.3-4.8s-2.2-1.5-3.9-1.5c-2.3 0-4 .6-5.1 1.9-1.1 1.3-1.7 3.3-1.7 6v13.2h-2.1V40.9c0-3.8-1.7-5.7-5.2-5.7-2.4 0-4.1.7-5.1 2.1-1.1 1.4-1.6 3.6-1.6 6.6v12.4h-2V33.8h1.7l.4 3.1h.1c.6-1.1 1.5-2 2.6-2.6 1.1-.6 2.4-.9 3.8-.9 3.5 0 5.8 1.3 6.8 4h.1c.7-1.3 1.7-2.3 2.9-3 1.2-.7 2.6-1 4.2-1 2.5 0 4.3.7 5.5 2 1.2 1.3 1.8 3.4 1.8 6.2v14.7h-1.9zM219.5 47.5c1.3-1.3 1.4-3.1 1.4-4.1 0-4-2.4-10.2-7-10.2-1.4 0-3 .7-3.9 1.8-.9 1.2-1.2 2.7-1.2 4.1 0 3.7 2.2 9.9 6.9 9.9 1.4.1 2.9-.6 3.8-1.5m-1.6 10.6h-1.3c-.5 0-3.5.1-5.8.9-1.2.5-4.8 1.8-4.8 5.7 0 3.9 3.8 6.8 9.8 6.8 5.3 0 8.1-2.6 8.1-6 0-2.9-1.8-4.4-6-7.4m3.9-24.7c1.3 1.1 3.9 3.3 3.9 7.5 0 4.1-2.3 6.1-4.7 7.9-.7.7-1.5 1.5-1.5 2.7 0 1.2.8 1.9 1.4 2.4l2 1.6c2.4 2.1 4.7 3.9 4.7 7.8 0 5.2-5.1 10.5-14.6 10.5-8 0-11.9-3.8-11.9-8 0-2 1-4.8 4.3-6.8 3.4-2.1 8.1-2.4 10.6-2.6-.8-1-1.7-2.1-1.7-3.8 0-.9.3-1.5.6-2.2-.6.1-1.2.1-1.8.1-5.9 0-9.2-4.4-9.2-8.7 0-2.6 1.2-5.4 3.6-7.5 3.2-2.6 6.9-3.1 9.9-3.1h11.4l-3.6 2h-3.4zM193.8 52.7c1.3-1.8 1.7-4 1.7-6.2 0-4.9-2.3-14.2-9.2-14.2-1.8 0-3.7.7-5 1.9-2.2 1.9-2.6 4.4-2.6 6.8 0 5.5 2.7 14.6 9.4 14.6 2.2 0 4.5-1.1 5.7-2.9m-6.9 4.5c-8.8 0-13.5-6.9-13.5-13.1 0-7.3 5.9-13.5 14.3-13.5 8.1 0 13.2 6.4 13.2 13.1.1 6.6-5 13.5-14 13.5M163.8 52.7c1.3-1.8 1.7-4 1.7-6.2 0-4.9-2.3-14.2-9.2-14.2-1.8 0-3.6.7-5 1.9-2.2 1.9-2.5 4.4-2.5 6.8 0 5.5 2.7 14.6 9.4 14.6 2.1 0 4.3-1.1 5.6-2.9m-6.9 4.5c-8.8 0-13.5-6.9-13.5-13.1 0-7.3 5.9-13.5 14.3-13.5 8.1 0 13.2 6.4 13.2 13.1.1 6.6-5 13.5-14 13.5M239.4 54.7c-1.8-.2-2.2-.5-2.2-2.7V20c.2-2 .8-2.3 2.5-3.3h-8l-4.2 2h4.3v34.6c0 1.1-.2 1.3-1.5 2.9h9.9l2.1-1.2c-1-.1-1.9-.2-2.9-.3"/><path fill="#757C7F" d="M256.9 38.7c1.1-.4 1.6-.7 1.6-1.5 0-2.2-2.5-4.8-5.5-4.8-2.2 0-6.4 1.7-6.4 7.7 0 .9.1 1.9.2 2.9l10.1-4.3zm5.2 16.6c-.6.3-1.2.7-1.8 1-1.8.8-3.7 1.1-5.4 1.1-1.8 0-4.5-.1-7.4-2.2-3.9-2.8-5.6-7.5-5.6-11.7 0-8.6 7-12.8 12.7-12.8 2 0 4 .5 5.7 1.6 2.8 1.8 3.5 4.2 3.9 5.5l-13 5.3-4.3.3c1.4 7.1 6.1 11.2 11.4 11.2 2.8 0 4.9-1 6.7-1.9l-2.9 2.6zM139.1 56.3l-8 1.8c-3.2.5-6.1 1-9.2 1-15.4 0-21.2-11.4-21.2-20.2 0-10.8 8.3-20.9 22.5-20.9 3 0 5.9.4 8.5 1.2 4.2 1.2 6.1 2.6 7.3 3.5l-4.6 4.4-2 .4 1.4-2.2c-1.9-1.8-5.3-5.2-11.9-5.2-8.8 0-15.4 6.7-15.4 16.5 0 10.5 7.6 20.4 19.7 20.4 3.6 0 5.4-.7 7.1-1.4v-9l-8.4.4 4.4-2.4h11.8l-1.4 1.4c-.4.3-.5.4-.6.9-.1.5-.1 2.1-.1 2.7v6.7z"/></svg>