<svg xmlns="http://www.w3.org/2000/svg" viewBox="0 196 499 106" enable-background="new 0 196 499 106"><path d="M5.3 204.8v89.5h94.8v-89.5H5.3zm34.8 41.9c0 5.4-1.8 8.5-5.8 9.6 4.2 1.7 5.8 4.7 5.8 11.1v9.4l-16.3-.1v-12.3c0-2.5-2.7-2.7-4.9-3.5v-8.8c2.2-.7 4.9-1.4 4.9-3.4v-13h16.3v11zm0-13.4H23.7v-12.7h16.4v12.7zm24 45.3c-14.6 0-21.6-7.8-21.6-17.7v-3h16.3v1.3c0 3.2 1.7 5.4 4.8 5.4 2.9 0 4.4-1.4 4.4-3.7 0-6.5-25-5.4-25-23.7 0-9.8 6.2-18.4 21.6-18.4 13.9 0 20.8 7.8 20.8 17.6v3.2H69.1V238c0-2.6-1.4-5.3-4.5-5.3-2.5 0-3.9 1.4-3.9 3.6 0 7.2 25 5.3 25 23.6.1 9.8-6.4 18.7-21.6 18.7zM131 243.4c0 2.1-.6 3.7-1.9 4.8-1.3 1.1-3 1.7-5.3 1.7-2.2 0-4-.6-5.3-1.7-1.3-1.1-1.9-2.7-1.9-4.8 0-2.2.6-3.8 1.9-4.9 1.3-1.1 3-1.7 5.3-1.7s4 .6 5.3 1.7c1.2 1.1 1.9 2.7 1.9 4.9zm-13.3 48.4v-36.1l12.2-1.5v37.6h-12.2zM150.8 291.8h-12.2v-36.1l12.2-1.5v5.4c2.2-3.8 5.1-5.7 8.8-5.7 2.1 0 4.1.5 6.1 1.5l-2.5 10.7c-1.5-.7-3-1.1-4.6-1.1-1.5 0-3 .4-4.3 1.2-1.3.8-2.5 2.2-3.6 4.1l.1 21.5zM206.8 273.3c0 3.1-.5 5.8-1.6 8.3-1.1 2.5-2.5 4.5-4.3 6.2-1.8 1.7-3.9 3-6.3 3.9-2.4.9-5 1.3-7.7 1.3s-5.3-.4-7.7-1.3c-2.4-.8-4.5-2.1-6.2-3.7-1.7-1.7-3.1-3.7-4.1-6.1-1-2.4-1.5-5.2-1.5-8.3 0-3.1.5-5.9 1.5-8.3 1-2.5 2.5-4.5 4.3-6.2 1.8-1.7 3.9-3 6.3-3.8 2.4-.9 5-1.3 7.8-1.3s5.4.4 7.7 1.3c2.4.9 4.4 2.1 6.2 3.8 1.7 1.7 3.1 3.7 4.1 6.1 1.1 2.2 1.5 5 1.5 8.1zm-12 .1c0-3.1-.6-5.6-1.9-7.4-1.3-1.9-3.2-2.8-5.7-2.8s-4.4.9-5.7 2.8c-1.3 1.9-1.9 4.4-1.9 7.5s.6 5.6 1.9 7.4c1.3 1.8 3.2 2.7 5.7 2.7s4.4-.9 5.7-2.7c1.2-1.9 1.9-4.4 1.9-7.5zM237.5 291.8v-21.7c0-2.2-.5-3.7-1.4-4.6-.9-.8-2.2-1.3-3.8-1.3-1.4 0-2.6.3-3.7.8-1.1.6-2.1 1.2-2.8 1.9v24.8h-12.2v-36.1l12.2-1.5-.1 6c1.6-1.8 3.5-3.4 5.6-4.5 2.1-1.2 4.3-1.8 6.7-1.8 3.7 0 6.6 1.1 8.7 3.4 2.1 2.2 3.1 5.3 3.1 9.3v25.3h-12.3zM275.4 282.6c2.2 0 4-.4 5.4-1.2 1.4-.8 2.1-1.9 2.1-3.5 0-.8-.2-1.6-.7-2.1-.4-.6-1.1-1.1-1.9-1.5-.8-.4-1.9-.9-3.2-1.3s-2.7-.8-4.3-1.3c-1.8-.5-3.6-1.1-5.5-1.8s-3.6-1.7-5.1-2.8c-1.6-1.1-2.8-2.6-3.8-4.3-1-1.7-1.5-3.8-1.5-6.3 0-4.6 1.6-8.3 4.9-11.1 3.3-2.8 7.9-4.2 14.1-4.2 3.9 0 7.4.4 10.4 1.2s5.7 1.8 8.1 3.2l-2.5 10.3c-2.5-1.3-5.1-2.4-8-3.2-2.8-.8-5.5-1.2-8-1.2-4.3 0-6.5 1.4-6.5 4.2 0 .8.3 1.5.8 2.1.5.6 1.3 1.1 2.2 1.6.9.4 2.1.9 3.3 1.3s2.6.8 4.1 1.2c1.9.5 3.8 1.2 5.6 1.9s3.5 1.7 5 2.8c1.5 1.1 2.7 2.5 3.5 4.2.9 1.7 1.3 3.7 1.3 6 0 2.4-.4 4.5-1.3 6.5-.9 1.9-2.2 3.6-3.9 5-1.7 1.4-3.8 2.5-6.3 3.3-2.5.8-5.4 1.2-8.7 1.2-3.7 0-7.2-.4-10.5-1.3-3.3-.8-6.2-1.9-8.5-3.2l2.4-10.4c2.5 1.3 5.1 2.4 8 3.3 3 1 5.9 1.4 9 1.4zM340.2 273.3c0 3.1-.5 5.8-1.6 8.3-1.1 2.5-2.5 4.5-4.3 6.2-1.8 1.7-3.9 3-6.3 3.9-2.4.9-5 1.3-7.7 1.3s-5.3-.4-7.7-1.3c-2.4-.8-4.5-2.1-6.2-3.7-1.7-1.7-3.1-3.7-4.1-6.1-1-2.4-1.5-5.2-1.5-8.3 0-3.1.5-5.9 1.5-8.3 1-2.5 2.5-4.5 4.3-6.2 1.8-1.7 3.9-3 6.3-3.8 2.4-.9 5-1.3 7.8-1.3s5.4.4 7.7 1.3c2.4.9 4.4 2.1 6.2 3.8 1.7 1.7 3.1 3.7 4.1 6.1 1 2.2 1.5 5 1.5 8.1zm-12.1.1c0-3.1-.6-5.6-1.9-7.4-1.3-1.9-3.2-2.8-5.7-2.8s-4.4.9-5.7 2.8c-1.3 1.9-1.9 4.4-1.9 7.5s.6 5.6 1.9 7.4c1.3 1.8 3.2 2.7 5.7 2.7s4.4-.9 5.7-2.7c1.3-1.9 1.9-4.4 1.9-7.5zM358.9 255.1v21.7c0 2.2.4 3.7 1.3 4.6.9.9 2.1 1.3 3.7 1.3 1.3 0 2.5-.2 3.5-.7 1-.5 1.9-1.1 2.7-1.7v-25.2h12.2v36.2l-12.2 1.5v-5.5c-1.4 1.5-3.2 2.9-5.2 4s-4.3 1.7-6.7 1.7c-3.6 0-6.4-1.1-8.5-3.4-2-2.2-3-5.3-3-9.3V255h12.2zM403.2 291.8H391v-36.1l12.2-1.5v5.4c2.2-3.8 5.1-5.7 8.8-5.7 2.1 0 4.1.5 6.1 1.5l-2.5 10.7c-1.5-.7-3-1.1-4.6-1.1-1.5 0-3 .4-4.3 1.2-1.3.8-2.5 2.2-3.6 4.1l.1 21.5zM447.4 292.2c-2.4.5-4.9.8-7.6.8-3.1 0-5.8-.4-8.3-1.3-2.5-.8-4.5-2.1-6.3-3.7-1.7-1.6-3.1-3.6-4-6-.9-2.4-1.4-5.1-1.4-8.3 0-3 .5-5.8 1.4-8.3.9-2.5 2.3-4.5 4.1-6.2s3.9-3 6.4-4 5.3-1.4 8.3-1.4c2.6 0 5 .3 7.4.8s4.3 1.3 6 2.2L451 266c-1.5-.9-3.1-1.6-4.7-2.1-1.7-.5-3.3-.8-5-.8-3 0-5.2.9-6.8 2.8-1.6 1.9-2.3 4.3-2.3 7.3 0 3.3.9 5.9 2.6 7.6 1.7 1.7 4 2.6 6.8 2.6 1.8 0 3.6-.2 5.2-.7 1.6-.5 3.1-1.2 4.5-2.1l1.8 9.2c-1.4 1.1-3.3 1.8-5.7 2.4zM469.6 276.3c.2 2.5 1.1 4.4 2.8 5.7 1.6 1.3 4 2 6.9 2 2 0 4-.3 6.1-1s4-1.5 5.9-2.6l1.2 9.4c-1.8.9-4 1.7-6.5 2.2-2.5.5-5.1.8-7.8.8-3.1 0-5.9-.4-8.4-1.3-2.5-.8-4.7-2.1-6.5-3.7-1.8-1.6-3.2-3.6-4.1-6-1-2.4-1.5-5.1-1.5-8.2 0-3 .5-5.7 1.5-8.2 1-2.5 2.3-4.5 4.1-6.2s3.9-3 6.3-4c2.5-.9 5.1-1.4 8-1.4 5.2 0 9.2 1.4 12 4.3 2.8 2.8 4.1 6.6 4.1 11.1 0 1-.1 2.1-.2 3.4-.1 1.3-.3 2.3-.6 3.1l-23.3.4v.2zm12.8-6.3v-.7c0-2.2-.5-3.9-1.4-5.2-.9-1.2-2.3-1.9-4.2-1.9-2.1 0-3.8.8-5 2.3-1.2 1.6-1.9 3.4-2.1 5.5h12.7z"/></svg>