<svg xmlns="http://www.w3.org/2000/svg" viewBox="0 0 197 73.8" enable-background="new 0 0 197 73.8"><g fill="#575756"><path d="M193.5 25.5c-4-2.3-5.7-3.1-8.1-3.1-2.2 0-3.3 1.1-3.3 2.9 0 5.2 12.6 3.8 12.6 16.1 0 6.7-3.7 10.7-10 10.7-3.8 0-5.6-1.6-8.4-3.5V41c4 3.3 5.7 4.5 8.7 4.5 2.3 0 3.3-1.2 3.3-3.3 0-5.8-12.6-3.6-12.6-16.3 0-6.1 2.5-10.1 9-10.1 3.1 0 5.1.8 8.6 2.8v6.9zM95.8 16.2c5.8 0 8.3 4.8 8.3 10.1 0 3.8-1.6 6.7-4.8 8.5-.9.4-1.4.5-2 .7l9.7 15.8h-6.8L91.1 37v14.3h-6.2V16.2h10.9zm-4.7 14.5H94c2 0 3.9-1 3.9-4 0-2.7-1.4-4-4-4h-2.7v8zM136.4 51.3h-6.7l-2.3-7h-10.9l-2.1 7h-6.6l10.4-35.1h6.5l11.7 35.1zm-14.7-26.7l-3.3 13.7h7l-3.7-13.7zM144.6 51.3h-6.2V16.2h6.2v35.1zM173.2 51.3h-5.1l-13-22.5v22.5H149V16.2h5.6L167 37.7V16.2h6.2v35.1zM76 32c2.4-1.4 3.9-4 3.9-7 0-1.6-.3-3.3-1.1-4.7-2.3 2-4.8 4.2-5.5 4.8.1.4.2.8.2 1.2 0 1.9-1 3.8-3.5 3.8h-2v-8.3l7.4-4.8c-1.1-.4-2.3-.7-3.9-.7h-9.7v35.1h10.3c8.2 0 10-6.3 10-10.3 0-4.2-2-7.8-6.1-9.1zm-5.8 12.9h-2.3v-8.2h3.3c2.5 0 4.3 1.3 4.3 3.9 0 3-1.4 4.3-5.3 4.3zM84.8 12.1c-.4-.2-4.9 2.6-7.7 4.5l-1 .7-7.2 4.9v5.4c1.6-1.1 2.8-2.1 3.7-3L78 20s2.7-2.4 4.1-3.9l.5-.5c.4-.4.7-.6.7-.9v-.1c-.1-.1 1.7-2.4 1.5-2.5zM56.4 35l4.4-3v-5.4l-4 2.6s-3.5 2.3-4.8 3.1l.2-1.4c.6-4.6 1.2-9.2 1.2-12.2 0-1.5-.1-2.6-.5-3.2-.2-.4-.6-.7-1-.8-.6-.1-1.3.1-1.9.6-2 1.4-3 5.5-3 12.5 0 2.3.1 4.8.3 7.7-.2.2-1.4 1.3-1.4 1.3l-2 1.8-.1.1c-1.9 1.6-3 2.6-3.5 2.8-.6.2-1 .3-1.5.2 2.5-1.9 4.6-5.9 4.6-8.3 0-.3 0-.5-.1-.7-.3-1.7-1.1-2.9-2.3-3.5-1.1-.6-2.5-.6-4-.1l-.6.2c-2.8 1.3-11.3 6-13.9 7.5.3-3.7 1.8-20.7 2.3-29.7.3-5.8 0-2.2 0-3.3 0-4.2-5.3 0-8.2 2.9-1.2 1.2-5.1 4.7-3.7 7.4C14.4 17 16 16 16.8 21c1.5 8.7.3 17.6.3 18.2-.5.2-4.1 1.9-4.1 1.9-6.3 3-11.1 5.2-11.1 8.9 0 .6.1 1.2.4 1.8 5.2 13.6 12.3 21 15.1 20.2 4.1-1.1 4.2-6.4 4.5-14.5.1-4 .3-8.6.9-13.7.3-.2 7.2-5.3 8.4-6.1-.6 1.2-.6 2.4-.6 3.1 0 1.6.2 2.9.6 3.6.5 1.2 1 2 2.3 2.6 1.6.8 3 1 5.7-.1 1.2-.5 3.3-1.9 5.6-3.9.5.8 2.5 4.3 2.5 4.3l1.8 3.1c.8 1.5 2.2 1.9 3.6 1.1 1.1-.6 1.9-1.1 2.1-1.8 0-.2.1-.3.1-.4 0-.5-.2-.9-.4-1.3-2.1-3.8-2.3-7.1-2.3-9.6v-.5c.3-.2 4.2-2.9 4.2-2.9zM14.9 60.9c-1.7-1.4-2.5-2.5-3.7-5.4-2.1-5 .8-6.5 6-9.5-.7 5.3-1.1 16.1-2.3 14.9zm20.6-21.4c-.1-1.9-.5-4.3 1.9-5.6.9-.5 1.5-.2 1.8.1.7.7-.7 3.7-3.7 5.5z"/></g></svg>