<svg xmlns="http://www.w3.org/2000/svg" viewBox="0 0 269 76.3" enable-background="new 0 0 269 76.3"><path d="M74 3.2H62.8c-.8 0-1.5.7-1.5 1.4v66.3c0 .8.7 1.5 1.5 1.5H74c.8 0 1.3-.8 1.3-1.5V4.6c0-.8-.6-1.4-1.3-1.4zm118.9 17c-5.9 0-9.8 1.3-14.6 4.7l-.6.5v-3c0-.8-.6-1.4-1.4-1.4h-10.2c-.8 0-1.4.6-1.4 1.4v48.5c0 .8.7 1.5 1.5 1.5h11c.8 0 1.4-.7 1.4-1.5V34.7l.2-.1c3.4-1.8 6.1-3 8.8-3 6.1 0 7.2 2.7 7.2 8.9v30.4c0 .8.7 1.5 1.4 1.5h11c.8 0 1.5-.7 1.5-1.5V40.5c-.1-14.2-4.8-20.3-15.8-20.3zm57.7 4.2c-3.5-2.8-8.6-4.2-15.3-4.2-5.8 0-12.1 1-15.7 1.9-.9.2-1.4.8-1.4 1.6v7.4c0 .8.4 1.2 1.2 1.2h.5c2.7-.3 9.2-.6 15.1-.6 4.4 0 7.3 1.1 7.3 6.7v3.7H237c-7.8 0-13.3 1.2-16.8 3.6-3.5 2.4-5.2 6.1-5.2 11.4v.8c0 13.3 9.5 15.3 15.2 15.3 4.9 0 8.5-1.2 12.4-4l.6-.5V71c0 .8.6 1.4 1.4 1.4h10.2c.8 0 1.4-.6 1.4-1.4V38.4c0-6.3-1.9-11-5.6-14zm-8.1 36.3l-.2.1c-2.8 1.4-5.3 2.1-7.7 2.1-3.9 0-6.2-.8-6.2-5v-.8c0-5.2 2.3-7.1 8.4-7.1h5.6v10.7zm-84.7-40.5c-4.4 0-8.8 1.6-12.1 4.3l-.7.6v-2.7c0-.8-.6-1.4-1.4-1.4h-10.9c-.8 0-1.4.6-1.4 1.4v48.5c0 .8.7 1.5 1.5 1.5h11c.8 0 1.4-.7 1.4-1.5V35l.2-.1c4-2.2 8-3.2 12-3.2h.7c.5 0 1-.7 1-1.3v-8.7c.1-.9-.5-1.5-1.3-1.5zm-40.2 4.2c-3.5-2.8-8.6-4.2-15.3-4.2-5.8 0-12.1 1-15.7 1.9-.9.2-1.4.8-1.4 1.6v7.4c0 .8.4 1.2 1.2 1.2h.5c2.7-.3 9.2-.6 15.1-.6 4.4 0 7.3 1.1 7.3 6.7v3.7H104c-7.8 0-13.3 1.2-16.8 3.6-3.5 2.4-5.2 6.1-5.2 11.4v.8c0 13.3 9.5 15.3 15.2 15.3 4.9 0 8.5-1.2 12.4-4l.6-.5V71c0 .8.6 1.4 1.4 1.4h10.2c.8 0 1.4-.6 1.4-1.4V38.4c0-6.3-1.9-11-5.6-14zm-8.1 36.3l-.2.1c-2.8 1.4-5.3 2.1-7.7 2.1-3.9 0-6.2-.8-6.2-5v-.8c0-5.2 2.3-7.1 8.4-7.1h5.6v10.7zM260.9 21.1h-1v3.6c0 .1-.1.1-.1.1h-.6c-.1 0-.1-.1-.1-.1v-3.6h-1c-.1 0-.1 0-.1-.1v-.5c0-.1.1-.1.1-.1h2.9c.1 0 .1 0 .1.1v.5c-.1 0-.2.1-.2.1zM265.3 24.8h-.6c-.1 0-.1-.1-.1-.1v-2.9L264 23c0 .1-.1.1-.2.1h-.6c-.1 0-.2 0-.2-.1l-.6-1.1v2.9c0 .1 0 .1-.1.1h-.6c-.1 0-.1 0-.1-.1v-4.1c0-.1.1-.2.2-.2h.5c.1 0 .2.1.2.1l.9 1.8c0 .1 0 .1.1.1l.1-.1.9-1.8c0-.1.1-.1.2-.1h.5c.1 0 .2.1.2.2v4.1h-.1zM22.2 35.8c11.6-.1 22.3-6.4 28.1-16.5 2.8-4.9 4.3-10.4 4.4-16.1-5.7.1-11.2 1.6-16.1 4.4-10 5.8-16.3 16.6-16.4 28.2zM16.6 3.2H7.4C5.2 3.2 3.3 5 3.3 7.3v63.4c0 .7.6 1.5 1.6 1.5h9.2c2.3 0 4.1-1.8 4.1-4.1V4.6c0-.8-.7-1.4-1.6-1.4zM22.2 39.8c.1 11.6 6.4 22.3 16.5 28.1 4.9 2.8 10.4 4.3 16.1 4.4-.1-5.7-1.6-11.2-4.4-16.1-5.9-9.9-16.6-16.2-28.2-16.4z"/></svg>