<svg xmlns="http://www.w3.org/2000/svg" viewBox="0 0 491.5 75" enable-background="new 0 0 491.5 75"><path d="M73.7 41.9v-8.7l-7.4.4c-.1-.8-.3-1.6-.5-2.4l7-2.3-3.5-8.1-6.6 3c-.5-.7-1-1.3-1.4-2l5.5-4.7-6.5-6.1-4.9 5.2c-.7-.5-1.4-1-2.1-1.4l3.2-6.3L48 5.2 45.4 12c-.8-.2-1.7-.4-2.5-.5l.4-7h-9.2l.4 7c-.9.1-1.7.3-2.5.5l-2.5-6.6L21 8.7l3.2 6.3c-.7.4-1.4.9-2.1 1.4l-4.9-5.2-6.5 6.1 5.5 4.7c-.5.7-1.1 1.3-1.5 2l-6.6-3-3.5 8.1 7 2.3c-.2.8-.4 1.6-.5 2.4l-7.4-.4v8.7l7.4-.4c.1.8.3 1.6.5 2.4l-7 2.3 3.5 8 6.6-3c.4.7.9 1.3 1.5 2l-5.5 4.7 6.5 6.1 4.9-5.2c.7.5 1.4 1 2.1 1.4L21 66.7l8.5 3.3 2.5-6.6c.8.2 1.6.4 2.5.5l-.4 6.9h9.2l-.4-6.9c.8-.1 1.7-.3 2.5-.5l2.4 6.6 8.5-3.3-3.1-6.3c.7-.4 1.4-.9 2.1-1.4l4.9 5.2 6.5-6.1-5.5-4.7c.5-.7 1-1.3 1.4-2l6.6 3 3.5-8-7-2.3c.2-.8.4-1.6.5-2.4l7.5.2zm-18.3-4.3c0 8.7-7.5 15.7-16.6 15.7-9.2 0-16.6-7-16.6-15.7s7.4-15.7 16.6-15.7c9.1-.1 16.6 7 16.6 15.7zM110.4 51h10.5v6.2H103V21.1h7.4zM135.2 21.1h7.4v36.1h-7.4zM173.1 59.1l-16.7-38h8l8.6 21.4h.2l8.9-21.4h8l-16.9 38zM211.3 27.2v8h11.9v6.1h-11.9V51h12.4v6.2h-19.8V21.1h19.8v6.1zM259.7 23c-2.9-1.8-6.4-1.9-9.9-1.9h-6.5v36.1h4.4V41.4h3.2c3.4 0 6.8-.4 9.5-2.4 2.5-1.9 3.8-4.8 3.8-7.8 0-3.2-1.5-6.4-4.5-8.2zm-9 14.6h-3V24.8h1.6c5.2 0 10.4.4 10.4 6.3.1 5.1-4.1 6.5-9 6.5zM279.7 21.1h20.6v3.7h-16.1v10.7h15.7v3.7h-15.7v14.3h16.1v3.7h-20.6zM327.8 41c6.1-.5 10-4.4 10-9.9 0-8.2-7-10-14.5-10h-5.7v36.1h4.4V41.3h1.1l12 15.8h5.4L327.8 41zm-5.8-3.3v-13h1.3c5.3 0 10.1.6 10.1 6.5 0 5.6-5.1 6.4-10.1 6.4H322zM373.3 28.1c-1.6-2.5-3.5-3.9-6.8-3.9-3.5 0-6.6 2.3-6.6 5.6 0 3.1 3.5 4.5 6.2 5.7l2.6 1c5.2 2.1 9.6 4.4 9.6 10.2 0 6.3-5.6 11.2-12.5 11.2-6.4 0-11-3.8-12.4-9.4l4.3-1.1c.6 3.7 3.7 6.7 8 6.7s8.1-2.9 8.1-7c0-4.2-3.6-5.7-7.3-7.2l-2.4-1c-4.6-1.9-8.6-4.1-8.6-9.2 0-5.6 5.2-9.2 11.1-9.2 4.4 0 8.1 2 10.3 5.6l-3.6 2zM412.5 20.4c-11.3 0-20.7 8.4-20.7 18.7 0 10.4 9.4 18.7 20.7 18.7 11.4 0 20.7-8.3 20.7-18.7 0-10.3-9.4-18.7-20.7-18.7zm0 33.6c-9 0-16.2-6.8-16.2-14.9 0-8.2 7.1-14.9 16.2-14.9s16.3 6.7 16.3 14.9c-.1 8.2-7.3 14.9-16.3 14.9zM450.3 19.5l31 29.5V21.1h4.4v37.7l-31-29.5v27.9h-4.4z"/></svg>