<svg xmlns="http://www.w3.org/2000/svg" viewBox="0 0 499 202.3" enable-background="new 0 0 499 202.3"><g fill="#010202"><path d="M8.8 102.9h32v91.5h15.5v-91.5h33.1V91.4H8.8zM116.8 152.7v41.7h15.4V91.6h-15.4zM218.4 126.9c27.5-16.6 39.5-35.2 39.5-35.2h-18.4c-37.8 34.6-59.2 37.9-62.5 38.1V91.6h-15.4v102.9H177v-49.6c10-2.9 18.9-6.3 26.9-10.1 1.5.9 31.3 19.2 44.4 59.8h17.3c0-.1-10.6-39.8-47.2-67.7zM442 183.2V91.6h-15.5v103h64.2v-11.4zM346.2 91.4H339c-41 46.3-47.4 102.7-47.4 102.7h16c6.1-53.4 36-85.1 38.4-87.6 1.8 1.8 18.8 20 30 51.4h-49.8l-4.5 11.4h57.9c2.1 7.7 3.8 15.9 4.8 24.7h16S394 137.6 353 91.3h-6.8zM122.4 78.6C130.4.4 66.9 8.3 66.9 8.3c.6 20.4 5.6 34.7 19.9 49.8 12 12.8 35.6 20.5 35.6 20.5z"/></g></svg>