<svg xmlns="http://www.w3.org/2000/svg" viewBox="0 0 587.3 85.3" enable-background="new 0 0 587.3 85.3"><g fill="#010202"><path d="M94.4 4.3C91.2 6 90 8.8 90 16.6c0 0 1.6-1.6 4-2.4 1.7-.6 3.2-1.6 4.1-2.2 2.7-2 3.1-4.5 3.1-8.8.1-.1-4.3-.2-6.8 1.1zM75.5 6.1c-2.6 2.3-3.4 6-3.4 6l-8.6 33.4-7.2-27.3c-.7-2.9-2-6.5-3.9-8.9C49.9 6.2 44.7 6 44.2 6s-5.7.2-8.2 3.3c-2 2.4-3.2 6-3.9 8.9l-7.2 27.3-8.6-33.4s-.8-3.7-3.4-6C8.6 2.4 2.3 3.2 2.3 3.2l16.5 62.4s5.4.4 8.2-1c3.6-1.8 5.3-3.2 7.4-11.7 1.9-7.6 7.3-29.8 7.8-31.4.2-.8.6-2.7 1.9-2.7 1.4 0 1.7 1.9 1.9 2.7.5 1.6 5.9 23.8 7.8 31.4 2.2 8.5 3.9 9.9 7.4 11.7 2.7 1.4 8.2 1 8.2 1L86.1 3.2s-6.4-.8-10.6 2.9zM101.3 13.4s-1 1.6-3.4 2.9c-1.5.8-3 1.4-4.5 2.2-2.6 1.3-3.3 2.6-3.3 4.8v42.3s4.2.5 6.9-.9c3.5-1.8 4.3-3.5 4.3-11.3v-40zM142.4 34.6l20.9-31.1S154.5 2 150.1 6c-2.8 2.5-5.9 7.1-5.9 7.1l-7.7 11.1c-.4.6-.9 1.2-1.6 1.2-.8 0-1.3-.6-1.6-1.2L125.5 13s-3.1-4.6-5.9-7.1c-4.4-4-13.2-2.5-13.2-2.5l20.9 31.1-20.9 31s9.2 1.2 13.6-2.8c2.8-2.5 5.5-6.7 5.5-6.7l7.7-11.1c.4-.6.9-1.2 1.6-1.2.8 0 1.3.6 1.6 1.2l7.7 11.1s2.9 4.1 5.7 6.7c4.4 4 13.4 2.8 13.4 2.8l-20.8-30.9z"/></g><g fill="#010202"><path d="M211.5 62.4v3.3h-42.6V2.9h42.2v3.3h-38.3v25.1h36v3.3h-36v27.6h38.7zM217.5 20.5h3.3v9.7h.2c.6-1.7 1.4-3.2 2.5-4.5 1.1-1.3 2.3-2.4 3.8-3.4 1.4-.9 3-1.6 4.7-2.1 1.7-.5 3.4-.7 5.2-.7 2.6 0 4.9.3 6.7 1 1.8.6 3.4 1.5 4.5 2.5 1.2 1.1 2.1 2.2 2.8 3.6.7 1.3 1.2 2.7 1.4 4 .3 1.3.5 2.7.5 3.9.1 1.3.1 2.4.1 3.3v27.9h-3.3V37.1c0-1.2-.1-2.6-.3-4.3-.2-1.7-.7-3.3-1.5-4.8-.9-1.6-2.1-2.9-3.9-4-1.7-1.1-4.1-1.7-7.2-1.7-2.5 0-4.8.5-6.8 1.4-2 .9-3.7 2.2-5.1 3.9-1.4 1.7-2.5 3.7-3.2 6-.7 2.3-1.1 4.8-1.1 7.6v24.4h-3.3V20.5zM300.4 20.5v42.8c0 .6 0 1.5-.1 2.7-.1 1.2-.3 2.6-.6 4.1-.4 1.5-.9 3-1.7 4.6-.8 1.6-1.9 3-3.3 4.2-1.4 1.3-3.3 2.3-5.5 3-2.3.8-5 1.1-8.2 1-2.4 0-4.7-.2-6.8-.7-2.1-.5-3.9-1.3-5.5-2.4-1.6-1.1-2.8-2.5-3.8-4.3-1-1.8-1.5-4-1.6-6.6h3.3c.2 2 .7 3.7 1.5 5.1.8 1.4 1.9 2.6 3.2 3.5 1.3.9 2.8 1.6 4.4 2 1.6.4 3.4.6 5.3.6 2.6 0 4.9-.3 6.7-1 1.8-.6 3.3-1.5 4.5-2.5 1.2-1 2.1-2.2 2.8-3.4.6-1.2 1.1-2.4 1.5-3.6.3-1.2.5-2.2.6-3.2.1-1 .1-1.7.1-2.2V53.7h-.2c-1.6 3.3-3.7 5.9-6.5 7.6-2.7 1.8-6 2.6-9.9 2.6-3.3 0-6.2-.6-8.7-1.7-2.4-1.1-4.5-2.7-6.1-4.7-1.6-2-2.8-4.4-3.6-7.1-.8-2.7-1.2-5.6-1.2-8.8 0-3 .4-5.8 1.3-8.5s2.1-5.1 3.7-7.1 3.7-3.6 6.1-4.8c2.4-1.2 5.2-1.8 8.4-1.8 1.8 0 3.5.2 5.2.7 1.7.5 3.3 1.1 4.7 2 1.4.9 2.7 2 3.8 3.3 1.1 1.3 2 2.8 2.6 4.5h.2v-9.4h3.4zm-19.8 1.9c-2.8 0-5.1.6-7.2 1.7-2 1.1-3.7 2.6-5 4.4-1.3 1.8-2.3 3.9-3 6.2-.7 2.3-1 4.7-1 7.1 0 2.6.3 5.1 1 7.5.7 2.4 1.7 4.4 3.1 6.2 1.4 1.8 3.1 3.2 5.1 4.2 2 1 4.4 1.5 7 1.5 2.8 0 5.2-.5 7.2-1.6s3.8-2.5 5.1-4.3c1.4-1.8 2.4-3.9 3.1-6.2.7-2.3 1-4.8 1-7.3s-.3-4.9-1-7.3c-.7-2.3-1.7-4.4-3.1-6.2-1.4-1.8-3.1-3.2-5.1-4.3-2.1-1.1-4.5-1.6-7.2-1.6zM311.1 12V2.9h3.3V12h-3.3zm0 53.7V20.5h3.3v45.2h-3.3zM325.1 20.5h3.3v9.7h.2c.6-1.7 1.4-3.2 2.5-4.5 1.1-1.3 2.3-2.4 3.8-3.4 1.4-.9 3-1.6 4.7-2.1 1.7-.5 3.4-.7 5.2-.7 2.6 0 4.9.3 6.7 1 1.8.6 3.4 1.5 4.5 2.5 1.2 1.1 2.1 2.2 2.8 3.6.7 1.3 1.2 2.7 1.4 4 .3 1.3.5 2.7.5 3.9.1 1.3.1 2.4.1 3.3v27.9h-3.3V37.1c0-1.2-.1-2.6-.3-4.3-.2-1.7-.7-3.3-1.5-4.8-.9-1.6-2.1-2.9-3.9-4-1.7-1.1-4.1-1.7-7.2-1.7-2.5 0-4.8.5-6.8 1.4-2 .9-3.7 2.2-5.1 3.9-1.4 1.7-2.5 3.7-3.2 6-.7 2.3-1.1 4.8-1.1 7.6v24.4h-3.3V20.5zM372 43.5c-.1 2.6.2 5.2.9 7.6.7 2.5 1.7 4.6 3.1 6.5 1.4 1.9 3.1 3.4 5.2 4.5s4.5 1.7 7.3 1.7c4.3 0 7.8-1.2 10.7-3.6 2.8-2.4 4.7-5.7 5.5-9.9h3.3c-.9 5.3-3 9.4-6.4 12.2-3.4 2.8-7.7 4.2-13.1 4.2-3.3 0-6.2-.6-8.7-1.8-2.5-1.2-4.6-2.8-6.3-4.9-1.7-2.1-2.9-4.5-3.8-7.3-.8-2.8-1.2-5.7-1.2-8.8-.1-3.1.3-6.1 1.1-9.1.8-2.9 2-5.5 3.7-7.8 1.7-2.3 3.8-4.1 6.3-5.5 2.5-1.4 5.5-2.1 8.9-2.1 3.5 0 6.6.6 9.1 1.9 2.6 1.3 4.7 3 6.3 5.2s2.8 4.8 3.6 7.7c.7 2.9 1 6 .8 9.2H372zm33.1-2.9c-.1-2.3-.5-4.6-1.2-6.9-.8-2.2-1.8-4.2-3.3-5.8-1.4-1.7-3.1-3-5.1-4-2-1-4.3-1.5-6.9-1.5-2.5 0-4.8.5-6.7 1.6-2 1.1-3.6 2.4-5.1 4.2-1.4 1.7-2.5 3.7-3.3 5.9-.8 2.2-1.3 4.4-1.5 6.6h33.1zM417.6 43.5c-.1 2.6.2 5.2.9 7.6.7 2.5 1.7 4.6 3.1 6.5 1.4 1.9 3.1 3.4 5.2 4.5s4.5 1.7 7.3 1.7c4.3 0 7.8-1.2 10.7-3.6 2.8-2.4 4.7-5.7 5.5-9.9h3.3c-.9 5.3-3 9.4-6.4 12.2-3.4 2.8-7.7 4.2-13.1 4.2-3.3 0-6.2-.6-8.7-1.8-2.5-1.2-4.6-2.8-6.3-4.9-1.7-2.1-2.9-4.5-3.8-7.3-.8-2.8-1.2-5.7-1.2-8.8-.1-3.1.3-6.1 1.1-9.1.8-2.9 2-5.5 3.7-7.8 1.7-2.3 3.8-4.1 6.3-5.5 2.5-1.4 5.5-2.1 8.9-2.1 3.5 0 6.6.6 9.1 1.9 2.6 1.3 4.7 3 6.3 5.2s2.8 4.8 3.6 7.7c.7 2.9 1 6 .8 9.2h-36.3zm33.1-2.9c-.1-2.3-.5-4.6-1.2-6.9-.8-2.2-1.8-4.2-3.3-5.8-1.4-1.7-3.1-3-5.1-4-2-1-4.3-1.5-6.9-1.5-2.5 0-4.8.5-6.7 1.6-2 1.1-3.6 2.4-5.1 4.2-1.4 1.7-2.5 3.7-3.3 5.9-.8 2.2-1.3 4.4-1.5 6.6h33.1zM465.2 30.5h.3c.4-1.5 1.2-2.8 2.3-4.1 1.1-1.3 2.4-2.4 4-3.3 1.5-.9 3.2-1.7 5.1-2.2 1.9-.5 3.9-.7 5.9-.7v3.3c-1.8-.2-3.8-.1-6 .5-2.3.6-4.4 1.9-6.5 3.9-.8.9-1.5 1.7-2.2 2.5-.6.8-1.1 1.7-1.5 2.7-.4 1-.7 2.1-1 3.3-.2 1.2-.4 2.7-.4 4.4v24.7h-3.3v-45h3.3v10zM487.1 12V2.9h3.3V12h-3.3zm0 53.7V20.5h3.3v45.2h-3.3zM501.1 20.5h3.3v9.7h.2c.6-1.7 1.4-3.2 2.5-4.5 1.1-1.3 2.3-2.4 3.8-3.4 1.4-.9 3-1.6 4.7-2.1 1.7-.5 3.4-.7 5.2-.7 2.6 0 4.9.3 6.7 1 1.8.6 3.4 1.5 4.5 2.5 1.2 1.1 2.1 2.2 2.8 3.6.7 1.3 1.2 2.7 1.4 4 .3 1.3.5 2.7.5 3.9.1 1.3.1 2.4.1 3.3v27.9h-3.3V37.1c0-1.2-.1-2.6-.3-4.3-.2-1.7-.7-3.3-1.5-4.8-.9-1.6-2.1-2.9-3.9-4-1.7-1.1-4.1-1.7-7.2-1.7-2.5 0-4.8.5-6.8 1.4-2 .9-3.7 2.2-5.1 3.9-1.4 1.7-2.5 3.7-3.2 6-.7 2.3-1.1 4.8-1.1 7.6v24.4h-3.3V20.5zM584.1 20.5v42.8c0 .6 0 1.5-.1 2.7-.1 1.2-.3 2.6-.6 4.1-.4 1.5-.9 3-1.7 4.6-.8 1.6-1.9 3-3.3 4.2-1.4 1.3-3.3 2.3-5.5 3-2.3.8-5 1.1-8.2 1-2.4 0-4.7-.2-6.8-.7-2.1-.5-3.9-1.3-5.5-2.4-1.6-1.1-2.8-2.5-3.8-4.3-1-1.8-1.5-4-1.6-6.6h3.3c.2 2 .7 3.7 1.5 5.1.8 1.4 1.9 2.6 3.2 3.5 1.3.9 2.8 1.6 4.4 2 1.6.4 3.4.6 5.3.6 2.6 0 4.9-.3 6.7-1 1.8-.6 3.3-1.5 4.5-2.5 1.2-1 2.1-2.2 2.8-3.4.6-1.2 1.1-2.4 1.5-3.6.3-1.2.5-2.2.6-3.2.1-1 .1-1.7.1-2.2V53.7h-.2c-1.6 3.3-3.7 5.9-6.5 7.6-2.7 1.8-6 2.6-9.9 2.6-3.3 0-6.2-.6-8.7-1.7-2.4-1.1-4.5-2.7-6.1-4.7-1.6-2-2.8-4.4-3.6-7.1-.8-2.7-1.2-5.6-1.2-8.8 0-3 .4-5.8 1.3-8.5s2.1-5.1 3.7-7.1 3.7-3.6 6.1-4.8c2.4-1.2 5.2-1.8 8.4-1.8 1.8 0 3.5.2 5.2.7s3.3 1.1 4.7 2c1.4.9 2.7 2 3.8 3.3 1.1 1.3 2 2.8 2.6 4.5h.2v-9.4h3.4zm-19.9 1.9c-2.8 0-5.1.6-7.2 1.7-2 1.1-3.7 2.6-5 4.4-1.3 1.8-2.3 3.9-3 6.2-.7 2.3-1 4.7-1 7.1 0 2.6.3 5.1 1 7.5.7 2.4 1.7 4.4 3.1 6.2 1.4 1.8 3.1 3.2 5.1 4.2 2 1 4.4 1.5 7 1.5 2.8 0 5.2-.5 7.2-1.6s3.8-2.5 5.1-4.3c1.4-1.8 2.4-3.9 3.1-6.2.7-2.3 1-4.8 1-7.3s-.3-4.9-1-7.3c-.7-2.3-1.7-4.4-3.1-6.2-1.4-1.8-3.1-3.2-5.1-4.3-2.1-1.1-4.5-1.6-7.2-1.6z"/></g></svg>