<?xml version="1.0" encoding="utf-8"?>
<!-- Generator: Adobe Illustrator 18.1.1, SVG Export Plug-In . SVG Version: 6.00 Build 0)  -->
<svg version="1.1" id="Layer_1" xmlns="http://www.w3.org/2000/svg" xmlns:xlink="http://www.w3.org/1999/xlink" x="0px" y="0px"
	 viewBox="0 0 456 89.2" enable-background="new 0 0 456 89.2" xml:space="preserve">
<g>
	<defs>
		<rect id="SVGID_1_" x="4" y="6.1" width="451.1" height="80"/>
	</defs>
	<clipPath id="SVGID_2_">
		<use xlink:href="#SVGID_1_"  overflow="visible"/>
	</clipPath>
	<path clip-path="url(#SVGID_2_)" d="M420.8,24.3v43.6h10.8v-23c0-8,5.2-11,10.9-11c3.5,0,5.6,1,7.8,2.8l4.9-9.4
		c-2.4-2.4-6.7-4.2-11.2-4.2c-4.4,0-8.9,0.8-12.3,6.2l-0.8-5H420.8z"/>
	<path clip-path="url(#SVGID_2_)" d="M415.2,49.9c1.7-17.9-7.4-27-22-27c-14.1,0-23.2,9.5-23.2,22.8c0,14,8.9,23.2,24,23.2
		c6.6,0,14.1-2.3,18.7-7.1l-6.9-6.8c-2.5,2.6-7.7,4.1-11.7,4.1c-7.6,0-12.3-3.9-13-9.3H415.2z M381.4,41c1.6-5.7,6.4-8.5,12.2-8.5
		c6.2,0,10.6,2.8,11.3,8.5H381.4z"/>
	<path clip-path="url(#SVGID_2_)" d="M344.7,14.3v10.1h-8.1v9.3h8.1v18.8c0,10.9,6.2,16.3,15.6,15.9c3.3-0.1,5.8-0.6,8.9-1.9l-3-9.2
		c-1.6,0.8-3.5,1.3-5.2,1.3c-3.4,0-5.7-2-5.7-6.2V33.6h12.1v-9.3h-12V10.6L344.7,14.3z"/>
	<path clip-path="url(#SVGID_2_)" d="M333.1,28.8c-5-4.4-10.2-5.7-17-5.7c-8,0-18.4,3.5-18.4,13.6c0,9.9,9.8,12.9,18,13.5
		c6.2,0.4,8.7,1.6,8.7,4.6c0,3.2-3.8,5.3-7.9,5.2c-4.9-0.1-11.9-2.7-15-6.1l-5.3,7.7c6.4,6.6,13.3,7.8,20.2,7.8
		c12.5,0,18.7-6.6,18.7-14.3c0-11.6-10.4-13.4-18.7-14c-5.6-0.4-8.1-1.9-8.1-4.8c0-2.7,2.8-4.3,8-4.3c4.2,0,7.7,1,10.8,3.9
		L333.1,28.8z"/>
	<path clip-path="url(#SVGID_2_)" d="M279.8,30.3c-2.5-4.3-8-7.1-13.9-7.1c-12.7-0.1-22.7,7.8-22.7,22.8c0,15.3,9.5,23.2,22.5,23.2
		c4.9-0.1,11.7-2.6,14.1-7.7l0.5,6.4h10.2V24.3h-10.3L279.8,30.3z M266.9,32.8c17,0,17,26.4,0,26.4c-7.2,0-12.9-5-12.9-13.3
		C253.9,37.7,259.7,32.8,266.9,32.8"/>
	<path clip-path="url(#SVGID_2_)" d="M233.8,36.6l6.8-7.2c-4.8-4.7-9.5-6.5-15.7-6.5c-12.6,0-23.2,7.6-23.2,23.1
		c0,15.5,10.5,23.1,23.2,23.1c6.5,0,11.8-1.9,16.8-6.9l-7.2-7.1c-2.7,2.7-6.1,3.6-9.5,3.6c-6.7,0-12.4-4.4-12.4-12.7
		c0-7.6,5.3-12.9,12.6-12.9C228.1,33.2,231.3,34.3,233.8,36.6"/>
	<path clip-path="url(#SVGID_2_)" d="M218.4,46.2c0,8.4,12.7,8.4,12.7,0C231.2,37.8,218.4,37.8,218.4,46.2"/>
</g>
<rect x="183.9" y="24.1" width="10.8" height="43.8"/>
<rect x="164.7" y="6.1" width="10.7" height="61.8"/>
<g>
	<defs>
		<rect id="SVGID_3_" x="4" y="6.1" width="451.1" height="80"/>
	</defs>
	<clipPath id="SVGID_4_">
		<use xlink:href="#SVGID_3_"  overflow="visible"/>
	</clipPath>
	<path clip-path="url(#SVGID_4_)" d="M137.1,58.5c-7.3,0-12.4-5.6-12.4-12.4s4.6-12.4,12.4-12.4c7.8,0,12.4,5.6,12.4,12.4
		S144.4,58.5,137.1,58.5 M123.8,86.1V62.7c3.1,4.8,9.9,6.2,14.5,6.2c14,0,22-10.1,22-22.8c0-12.8-8.9-22.8-22.4-22.8
		c-4.9,0-10.8,2.1-14.1,7l-0.7-6H113v61.8H123.8z"/>
	<path clip-path="url(#SVGID_4_)" d="M84.6,58.5c-7.3,0-12.4-5.6-12.4-12.4s4.6-12.4,12.4-12.4c7.8,0,12.4,5.6,12.4,12.4
		S91.9,58.5,84.6,58.5 M71.2,86.1V62.7c3.1,4.8,9.9,6.2,14.5,6.2c14,0,22-10.1,22-22.8c0-12.8-8.9-22.8-22.4-22.8
		c-5,0-10.8,2.1-14.1,7l-0.7-6H60.4v61.8H71.2z"/>
	<path clip-path="url(#SVGID_4_)" d="M40.6,30.3c-2.5-4.3-8-7.1-13.9-7.1C14,23.1,4,31,4,46c0,15.3,9.5,23.2,22.5,23.2
		c4.9-0.1,11.7-2.6,14.1-7.7l0.5,6.4h10.2V24.3H41L40.6,30.3z M27.7,32.8c17,0,17,26.4,0,26.4c-7.2,0-12.9-5-12.9-13.3
		C14.8,37.7,20.6,32.8,27.7,32.8"/>
</g>
</svg>
