<?xml version="1.0" encoding="utf-8"?>
<!-- Generator: Adobe Illustrator 18.1.1, SVG Export Plug-In . SVG Version: 6.00 Build 0)  -->
<svg version="1.1" id="Layer_1" xmlns="http://www.w3.org/2000/svg" xmlns:xlink="http://www.w3.org/1999/xlink" x="0px" y="0px"
	 viewBox="79 119 376 221" enable-background="new 79 119 376 221" xml:space="preserve">
<g>
	<g>
		<g>
			<path d="M188.9,291.5l-0.6,0.6c-9,9.2-19.5,14.1-30.2,14.1c-22.5,0-38.8-16.9-38.8-40.1c0-23.2,16.3-40.1,38.8-40.1
				c10.8,0,21.2,4.9,30.2,14.1l0.6,0.6l14.5-17.5l-0.4-0.4c-12-14.2-26.5-21.2-44.2-21.2c-17.8,0-34.1,6-45.9,16.8
				C100.2,230,93.4,246.5,93.4,266s6.7,36,19.5,47.8c11.8,10.8,28,16.8,45.9,16.8c17.7,0,32.2-6.9,44.2-21.2l0.4-0.4L188.9,291.5z"
				/>
			<rect x="218" y="203.5" width="25.5" height="124.7"/>
			<path d="M343.6,301.1c-6.8,4.2-13.2,6.2-18.9,6.2c-8.3,0-12-4.3-12-14.1v-66.2h26v-23.5h-26v-38.8l-25.1,13.4v25.4h-21.6v23.5
				h21.6v70.4c0,19.2,11.4,32.3,28.4,32.6c11.5,0.2,18.5-3.2,22.7-5.7l0.3-0.1l6.2-24.1L343.6,301.1z"/>
			<rect x="364.7" y="203.5" width="25.6" height="124.7"/>
			<path d="M406.4,183.3c-21.3-31.9-60.7-54.5-102.7-54.5c-41.4,0-80.7,21.9-102.7,54.5h29.4c20-20.7,46-31.9,73.3-31.9
				c26.8,0,53.2,11.2,73.3,31.9H406.4z"/>
		</g>
	</g>
</g>
<path d="M443.8,176.3c0,6.4-4.9,11.3-11.3,11.3c-6.4,0-11.3-4.9-11.3-11.3c0-6.4,4.9-11.3,11.3-11.3
	C439,165,443.8,169.9,443.8,176.3z M446,176.3c0-7.6-5.8-13.4-13.4-13.4s-13.4,5.8-13.4,13.4s5.8,13.4,13.4,13.4
	S446,183.9,446,176.3z M438.7,173.1c0-3-2.2-4.4-4.8-4.4h-6.4v14.6h2.5v-5.7h2.8l2.8,5.7h3l-3-5.9
	C437.5,176.9,438.7,175.4,438.7,173.1z M436.2,173.2c0,1.4-1,2.1-2.3,2.1H430v-4.2h3.8C435.2,171.1,436.2,171.8,436.2,173.2z"/>
<rect x="0.1" y="78.5" fill="none" width="498.9" height="343"/>
</svg>
