<?xml version="1.0" encoding="utf-8"?>
<!-- Generator: Adobe Illustrator 18.1.1, SVG Export Plug-In . SVG Version: 6.00 Build 0)  -->
<svg version="1.1" id="Layer_1" xmlns="http://www.w3.org/2000/svg" xmlns:xlink="http://www.w3.org/1999/xlink" x="0px" y="0px"
	 viewBox="-7648 3996.9 508 508" enable-background="new -7648 3996.9 508 508" xml:space="preserve">
<g>
	<path fill="#010101" d="M-7222.4,4182.5c0-93.1-75.5-168.6-168.6-168.6c-93.1,0-168.6,75.5-168.6,168.6c0,30.4,8.1,58.9,22.1,83.6
		c9.6-23.8,23.7-51.9,32.9-58.8c0,0,21.5-19.2,43.5-12.2c0,0,95.6,34.2,121,65.3c0,0,13.3,19.5,7.8,39.3
		c-2.3,8.4-10.7,28.6-20.2,46.9C-7277.9,4329.2-7222.4,4262.3-7222.4,4182.5z M-7323,4223.2c-1.4,1.1-2.9,1.9-4.5,2.4
		c-5.5,1.8-11.8,0.2-15.7-4.6c-14.8-18.4-72.5-47.7-93.5-47.6c-7.9,0-14.4-6.3-14.4-14.2c0-7.9,6.3-14.4,14.2-14.4
		c31.8-0.2,97.2,35.1,115.9,58.2C-7315.8,4209.2-7316.8,4218.2-7323,4223.2z M-7282.4,4206.4c-38.8-47.8-134.7-90-183-89.8
		c-7.1,0-12.9-5.7-13-12.8c0-7.1,5.7-12.9,12.8-12.9c55.2-0.2,158.2,44,203.1,99.3c4.5,5.5,3.6,13.6-1.9,18.1c-1.2,1-2.6,1.7-4,2.2
		C-7273.3,4212.1-7278.9,4210.6-7282.4,4206.4z"/>
	<g>
		<path d="M-7581.2,4454.8v-1.7c-2.3,2.6-4.6,4.8-6.8,6.4c-2.2,1.6-4.7,2.9-7.3,3.8c-2.6,0.9-5.5,1.3-8.5,1.3
			c-4.1,0-7.9-0.9-11.4-2.6c-3.5-1.7-6.5-4.2-9-7.4c-2.5-3.2-4.5-7-5.8-11.3c-1.3-4.3-2-9-2-14.1c0-10.7,2.6-19,7.8-25
			c5.2-6,12.1-8.9,20.6-8.9c4.9,0,9.1,0.8,12.5,2.5c3.4,1.7,6.7,4.3,9.9,7.8v-25.2c0-3.5,0.7-6.2,2.1-7.9c1.4-1.8,3.4-2.7,6-2.7
			c2.6,0,4.6,0.8,6,2.5c1.4,1.6,2.1,4.1,2.1,7.3v75.3c0,3.3-0.8,5.7-2.3,7.3c-1.5,1.6-3.4,2.4-5.8,2.4c-2.3,0-4.3-0.8-5.8-2.5
			C-7580.4,4460.4-7581.2,4458-7581.2,4454.8z M-7614.8,4429.7c0,4.6,0.7,8.6,2.2,11.8c1.4,3.3,3.4,5.7,5.9,7.4
			c2.5,1.6,5.2,2.5,8.2,2.5c3,0,5.7-0.8,8.2-2.3c2.5-1.6,4.5-4,5.9-7.2c1.5-3.2,2.2-7.3,2.2-12.1c0-4.5-0.7-8.5-2.2-11.7
			c-1.5-3.3-3.5-5.8-6-7.5c-2.5-1.7-5.3-2.6-8.3-2.6c-3.1,0-5.9,0.9-8.4,2.7c-2.5,1.8-4.4,4.3-5.7,7.6
			C-7614.1,4421.5-7614.8,4425.4-7614.8,4429.7z"/>
		<path d="M-7504.7,4455c-4.1,3.2-8.1,5.6-12,7.2c-3.9,1.6-8.2,2.4-13,2.4c-4.4,0-8.2-0.9-11.5-2.6c-3.3-1.7-5.9-4.1-7.7-7
			c-1.8-3-2.7-6.2-2.7-9.6c0-4.7,1.5-8.7,4.4-11.9c3-3.3,7-5.5,12.2-6.6c1.1-0.2,3.8-0.8,8.1-1.7c4.3-0.9,8-1.7,11-2.4
			c3.1-0.7,6.4-1.6,10-2.7c-0.2-4.5-1.1-7.8-2.7-9.9c-1.6-2.1-4.9-3.2-10-3.2c-4.3,0-7.6,0.6-9.8,1.8c-2.2,1.2-4.1,3-5.6,5.4
			c-1.6,2.4-2.7,4-3.3,4.8c-0.6,0.8-2,1.2-4.2,1.2c-1.9,0-3.6-0.6-5-1.8c-1.4-1.2-2.1-2.8-2.1-4.7c0-3,1.1-5.9,3.2-8.8
			c2.1-2.8,5.4-5.2,9.9-7c4.5-1.8,10.1-2.8,16.8-2.8c7.5,0,13.4,0.9,17.7,2.7c4.3,1.8,7.3,4.6,9.1,8.4c1.8,3.8,2.7,8.9,2.7,15.3
			c0,4,0,7.4,0,10.2c0,2.8-0.1,5.9-0.1,9.3c0,3.2,0.5,6.6,1.6,10c1.1,3.5,1.6,5.7,1.6,6.7c0,1.8-0.8,3.3-2.5,4.8
			c-1.6,1.4-3.5,2.2-5.6,2.2c-1.8,0-3.5-0.8-5.2-2.5C-7501,4460.5-7502.8,4458.1-7504.7,4455z M-7505.9,4430.2
			c-2.5,0.9-6.1,1.9-10.9,2.9c-4.8,1-8.1,1.8-9.9,2.3c-1.8,0.5-3.6,1.4-5.3,2.8c-1.7,1.4-2.5,3.3-2.5,5.8c0,2.6,1,4.8,2.9,6.6
			c2,1.8,4.5,2.7,7.7,2.7c3.4,0,6.5-0.7,9.4-2.2c2.9-1.5,5-3.4,6.3-5.7c1.5-2.6,2.3-6.8,2.3-12.8V4430.2L-7505.9,4430.2z"/>
		<path d="M-7457.7,4404.7v2.1c3.2-4,6.5-6.9,10-8.7c3.5-1.9,7.4-2.8,11.8-2.8c5.3,0,10.1,1.4,14.5,4.1c4.4,2.7,7.9,6.7,10.5,11.9
			c2.6,5.2,3.8,11.4,3.8,18.5c0,5.3-0.7,10.1-2.2,14.5c-1.5,4.4-3.5,8.1-6.1,11.1c-2.6,3-5.6,5.3-9.2,6.9c-3.5,1.6-7.3,2.4-11.4,2.4
			c-4.9,0-9-1-12.3-2.9c-3.3-2-6.5-4.8-9.5-8.6v25.7c0,7.5-2.7,11.3-8.2,11.3c-3.2,0-5.3-1-6.4-2.9c-1-1.9-1.6-4.8-1.6-8.5v-73.7
			c0-3.3,0.7-5.7,2.1-7.3c1.4-1.6,3.4-2.4,5.8-2.4c2.4,0,4.4,0.8,5.9,2.5C-7458.5,4399.3-7457.7,4401.6-7457.7,4404.7z
			 M-7424.2,4429.6c0-4.5-0.7-8.4-2.1-11.6c-1.4-3.2-3.3-5.7-5.7-7.4c-2.4-1.7-5.1-2.6-8.1-2.6c-4.7,0-8.7,1.9-11.9,5.6
			c-3.2,3.7-4.8,9.2-4.8,16.4c0,6.8,1.6,12.1,4.8,15.9c3.2,3.8,7.2,5.7,11.9,5.7c2.8,0,5.5-0.8,7.9-2.5c2.4-1.6,4.4-4.1,5.8-7.4
			C-7425,4438.2-7424.2,4434.2-7424.2,4429.6z"/>
		<path d="M-7349,4455v-2.2c-2,2.6-4.2,4.8-6.4,6.5c-2.3,1.8-4.7,3.1-7.4,3.9c-2.7,0.9-5.7,1.3-9.1,1.3c-4.1,0-7.8-0.9-11.1-2.6
			c-3.3-1.7-5.8-4.1-7.6-7.1c-2.1-3.6-3.2-8.8-3.2-15.6v-33.8c0-3.4,0.8-6,2.3-7.7c1.5-1.7,3.6-2.5,6.1-2.5c2.6,0,4.7,0.9,6.3,2.6
			c1.6,1.7,2.4,4.3,2.4,7.6v27.3c0,4,0.3,7.3,1,10c0.7,2.7,1.9,4.8,3.6,6.3s4.1,2.3,7,2.3c2.9,0,5.6-0.9,8.1-2.6
			c2.5-1.7,4.4-3.9,5.6-6.7c1-2.4,1.4-7.7,1.4-15.9v-20.8c0-3.4,0.8-5.9,2.4-7.6c1.6-1.7,3.6-2.6,6.2-2.6c2.5,0,4.6,0.8,6.1,2.5
			c1.5,1.7,2.3,4.2,2.3,7.7v49.5c0,3.3-0.7,5.7-2.2,7.3c-1.5,1.6-3.4,2.4-5.7,2.4c-2.3,0-4.3-0.8-5.8-2.5
			C-7348.3,4460.4-7349,4458-7349,4455z"/>
		<path d="M-7316,4454.2v-74.1c0-3.4,0.8-6,2.3-7.8s3.6-2.6,6.2-2.6c2.6,0,4.7,0.9,6.3,2.6c1.6,1.7,2.4,4.3,2.4,7.8v74.1
			c0,3.5-0.8,6.1-2.4,7.8c-1.6,1.7-3.7,2.6-6.2,2.6c-2.5,0-4.5-0.9-6.1-2.7C-7315.2,4460.1-7316,4457.5-7316,4454.2z"/>
		<path d="M-7226.3,4442.3c0,4.7-1.1,8.8-3.4,12.1c-2.3,3.4-5.7,5.9-10.2,7.6c-4.5,1.7-9.9,2.6-16.4,2.6c-6.1,0-11.4-0.9-15.8-2.8
			c-4.4-1.9-7.6-4.2-9.7-7c-2.1-2.8-3.1-5.6-3.1-8.5c0-1.9,0.7-3.5,2-4.8c1.3-1.3,3-2,5.1-2c1.8,0,3.2,0.4,4.1,1.3
			c1,0.9,1.9,2.1,2.8,3.7c1.8,3,3.8,5.3,6.3,6.8c2.4,1.5,5.8,2.3,10,2.3c3.4,0,6.2-0.8,8.4-2.3c2.2-1.5,3.3-3.3,3.3-5.2
			c0-3-1.1-5.2-3.4-6.6c-2.3-1.4-6-2.7-11.2-3.9c-5.9-1.5-10.7-3-14.4-4.6c-3.7-1.6-6.6-3.7-8.9-6.4c-2.2-2.6-3.3-5.9-3.3-9.7
			c0-3.4,1-6.7,3.1-9.7c2-3,5.1-5.5,9-7.3c4-1.8,8.8-2.7,14.4-2.7c4.4,0,8.4,0.5,11.9,1.4c3.5,0.9,6.5,2.1,8.8,3.7
			c2.4,1.5,4.1,3.3,5.4,5.1c1.2,1.9,1.8,3.7,1.8,5.5c0,2-0.7,3.6-2,4.8c-1.3,1.3-3.2,1.9-5.6,1.9c-1.8,0-3.2-0.5-4.5-1.5
			c-1.2-1-2.6-2.5-4.2-4.5c-1.3-1.7-2.8-3-4.6-4c-1.8-1-4.1-1.5-7.1-1.5c-3.1,0-5.7,0.7-7.7,2c-2,1.3-3.1,3-3.1,4.9
			c0,1.8,0.8,3.3,2.3,4.4c1.5,1.1,3.5,2.1,6.1,2.8c2.5,0.8,6,1.7,10.5,2.8c5.3,1.3,9.6,2.8,13,4.6c3.4,1.8,5.9,3.9,7.6,6.3
			C-7227.1,4436.3-7226.3,4439.1-7226.3,4442.3z"/>
		<path d="M-7164.1,4434.1h-33.4c0,3.9,0.8,7.3,2.3,10.3c1.5,3,3.5,5.2,6.1,6.7c2.5,1.5,5.3,2.3,8.4,2.3c2,0,3.9-0.2,5.6-0.7
			c1.7-0.5,3.3-1.2,4.9-2.3c1.6-1,3-2.1,4.4-3.3c1.3-1.2,3.1-2.8,5.2-4.8c0.9-0.8,2.1-1.1,3.8-1.1c1.8,0,3.2,0.5,4.3,1.4
			c1.1,1,1.6,2.3,1.6,4.1c0,1.5-0.6,3.3-1.8,5.4c-1.2,2.1-3,4-5.5,5.9c-2.4,1.9-5.5,3.5-9.2,4.7c-3.7,1.3-7.9,1.9-12.7,1.9
			c-11,0-19.5-3.1-25.6-9.4c-6.1-6.3-9.1-14.7-9.1-25.5c0-5,0.8-9.7,2.3-14c1.5-4.3,3.7-8,6.6-11.1c2.9-3.1,6.4-5.5,10.6-7.1
			c4.2-1.6,8.9-2.5,14-2.5c6.7,0,12.4,1.4,17.2,4.2c4.8,2.8,8.4,6.5,10.7,10.9c2.4,4.5,3.6,9,3.6,13.6c0,4.3-1.2,7.1-3.7,8.4
			C-7156.2,4433.4-7159.7,4434.1-7164.1,4434.1z M-7197.5,4424.4h31c-0.4-5.8-2-10.2-4.7-13.1c-2.7-2.9-6.3-4.3-10.8-4.3
			c-4.3,0-7.7,1.5-10.5,4.4C-7195.3,4414.3-7197,4418.6-7197.5,4424.4z"/>
	</g>
</g>
</svg>
