<?xml version="1.0" encoding="utf-8"?>
<!-- Generator: Adobe Illustrator 18.1.1, SVG Export Plug-In . SVG Version: 6.00 Build 0)  -->
<svg version="1.1" id="Artwork" xmlns="http://www.w3.org/2000/svg" xmlns:xlink="http://www.w3.org/1999/xlink" x="0px" y="0px"
	 viewBox="0 0 559 80" enable-background="new 0 0 559 80" xml:space="preserve">
<g>
	<path fill="#DB4436" d="M-1298.1,185c10.2,0,19.1-5.5,23.9-13.8l63.7-110.3c5.1-8.8,4.8-19.3,0-27.6l-35.8-62
		c-2.6-4.4-7.2-6.9-11.9-6.9l-55.7,0l47.7,82.7l-75.6,130.9c-2.4,4.1-6.8,6.9-11.9,6.9L-1298.1,185z"/>
	<path fill="#547DBF" stroke="#407CCA" stroke-miterlimit="10" d="M-1274.2-76.9c-5.1-8.8-14.4-13.8-23.9-13.8l-127.3,0
		c-10.2,0-19.1,5.5-23.9,13.8l-35.8,62c-2.5,4.4-2.4,9.7,0,13.8l27.8,48.2l47.7-82.7l151.2,0c4.8,0,9.4,2.5,11.9,6.9L-1274.2-76.9z"
		/>
	<path fill="#F3B41B" d="M-1512.9,33.4c-5.1,8.8-4.8,19.3,0,27.6l63.7,110.3c5.1,8.8,14.4,13.8,23.9,13.8l71.6,0
		c5.1,0,9.6-2.8,11.9-6.9l27.8-48.2h-95.5l-75.6-130.9c-2.4-4.1-2.5-9.4,0-13.8L-1512.9,33.4z"/>
	<g>
		<polygon fill="#CCCCCC" points="-1409.5,129.9 -1457.2,47.2 -1409.5,-35.5 -1314,-35.5 -1266.3,47.2 -1314,129.9 		"/>
	</g>
	<circle fill="#FFFFFF" cx="-1361.7" cy="47.2" r="41.3"/>
	<circle fill="#FFFFFF" cx="-1425.4" cy="-63.1" r="6.9"/>
	<circle fill="#FFFFFF" cx="-1489.1" cy="47.2" r="6.9"/>
	<circle fill="#FFFFFF" cx="-1425.4" cy="157.4" r="6.9"/>
	<circle fill="#FFFFFF" cx="-1298.1" cy="157.4" r="6.9"/>
	<circle fill="#FFFFFF" cx="-1234.4" cy="47.2" r="6.9"/>
	<circle fill="#FFFFFF" cx="-1298.1" cy="-63.1" r="6.9"/>
	<path opacity="0.1" fill="#010101" d="M-1341.9,178.1l27.8-48.2h-28.8l-11,55.1C-1348.7,185-1344.2,182.2-1341.9,178.1z"/>
	<path opacity="0.1" fill="#010101" d="M-1258.3-35.5l-55.7,0l14.4,24.9l53.2-18C-1248.9-33.1-1253.6-35.5-1258.3-35.5z"/>
	<path opacity="0.1" fill="#010101" d="M-1485.1-1.1l27.8,48.2l14.4-24.9l-42.2-37.1C-1487.6-10.4-1487.5-5.2-1485.1-1.1z"/>
</g>
<g>
	<g>
		<path fill="#DB4436" d="M1901.8,68.3c1.8,0,3.4-1,4.2-2.4l11.3-19.6c0.9-1.6,0.8-3.4,0-4.9l-6.4-11c-0.5-0.8-1.3-1.2-2.1-1.2
			l-9.9,0l8.5,14.7L1894,67.1c-0.4,0.7-1.2,1.2-2.1,1.2L1901.8,68.3z"/>
		<path fill="#547DBF" stroke="#407CCA" stroke-width="0.2107" stroke-miterlimit="10" d="M1906,21.8c-0.9-1.6-2.5-2.4-4.2-2.4
			l-22.6,0c-1.8,0-3.4,1-4.2,2.4l-6.4,11c-0.5,0.8-0.4,1.7,0,2.4l4.9,8.6l8.5-14.7l26.8,0c0.8,0,1.7,0.4,2.1,1.2L1906,21.8z"/>
		<path fill="#F3B41B" d="M1863.7,41.4c-0.9,1.6-0.8,3.4,0,4.9l11.3,19.6c0.9,1.6,2.5,2.4,4.2,2.4l12.7,0c0.9,0,1.7-0.5,2.1-1.2
			l4.9-8.6l-16.9,0l-13.4-23.2c-0.4-0.7-0.5-1.7,0-2.4L1863.7,41.4z"/>
		<g>
			<polygon fill="#CCCCCC" points="1882,58.5 1873.5,43.9 1882,29.2 1899,29.2 1907.4,43.9 1899,58.5 			"/>
		</g>
		<circle fill="#FFFFFF" cx="1890.5" cy="43.9" r="7.3"/>
		<circle fill="#FFFFFF" cx="1879.2" cy="24.3" r="1.2"/>
		<circle fill="#FFFFFF" cx="1867.9" cy="43.9" r="1.2"/>
		<circle fill="#FFFFFF" cx="1879.2" cy="63.4" r="1.2"/>
		<circle fill="#FFFFFF" cx="1901.8" cy="63.4" r="1.2"/>
		<circle fill="#FFFFFF" cx="1913.1" cy="43.9" r="1.2"/>
		<circle fill="#FFFFFF" cx="1901.8" cy="24.3" r="1.2"/>
		<path opacity="0.1" fill="#010101" d="M1894,67.1l4.9-8.6h-5.1l-2,9.8C1892.8,68.3,1893.6,67.8,1894,67.1z"/>
		<path opacity="0.1" fill="#010101" d="M1908.8,29.2l-9.9,0l2.6,4.4l9.4-3.2C1910.5,29.6,1909.7,29.2,1908.8,29.2z"/>
		<path opacity="0.1" fill="#010101" d="M1868.6,35.3l4.9,8.6l2.6-4.4l-7.5-6.6C1868.2,33.6,1868.2,34.6,1868.6,35.3z"/>
	</g>
	<g>
		<g>
			<path fill="#757C7F" d="M1883.1,78.3c-0.9,0-1.6,0.3-2.1,0.9c-0.5,0.6-0.8,1.4-0.8,2.4c0,1,0.2,1.8,0.7,2.4
				c0.5,0.6,1.2,0.9,2.1,0.9c0.6,0,1.2-0.1,1.7-0.2V85c-0.5,0.2-1.1,0.3-1.8,0.3c-1,0-1.8-0.3-2.4-1c-0.6-0.7-0.9-1.6-0.9-2.8
				c0-0.7,0.1-1.4,0.4-1.9c0.3-0.6,0.7-1,1.2-1.3c0.5-0.3,1.1-0.5,1.8-0.5c0.7,0,1.3,0.1,1.9,0.4l-0.2,0.5
				C1884.2,78.4,1883.6,78.3,1883.1,78.3"/>
		</g>
		<rect x="1886" y="77.5" fill="#757C7F" width="0.5" height="7.7"/>
		<g>
			<path fill="#757C7F" d="M1888.4,82.5c0,0.7,0.2,1.3,0.5,1.7c0.3,0.4,0.8,0.6,1.4,0.6c0.6,0,1.1-0.2,1.4-0.6
				c0.3-0.4,0.5-1,0.5-1.7c0-0.7-0.2-1.3-0.5-1.7c-0.3-0.4-0.8-0.6-1.4-0.6s-1.1,0.2-1.4,0.6C1888.6,81.2,1888.4,81.7,1888.4,82.5
				 M1892.7,82.5c0,0.9-0.2,1.6-0.6,2.1c-0.4,0.5-1,0.7-1.8,0.7c-0.5,0-0.9-0.1-1.2-0.3c-0.4-0.2-0.6-0.6-0.8-1
				c-0.2-0.4-0.3-0.9-0.3-1.5c0-0.9,0.2-1.6,0.6-2.1c0.4-0.5,1-0.7,1.8-0.7c0.7,0,1.3,0.2,1.7,0.7
				C1892.5,80.9,1892.7,81.6,1892.7,82.5"/>
			<path fill="#757C7F" d="M1894.5,79.8v3.5c0,0.5,0.1,0.9,0.3,1.2c0.2,0.2,0.6,0.4,1.1,0.4c0.6,0,1.1-0.2,1.4-0.5
				c0.3-0.3,0.5-0.8,0.5-1.6v-3h0.5v5.4h-0.4l-0.1-0.7h0c-0.3,0.6-1,0.8-1.9,0.8c-1.2,0-1.8-0.7-1.8-2v-3.5H1894.5z"/>
			<path fill="#757C7F" d="M1901.9,80.1c-0.6,0-1,0.2-1.3,0.6c-0.3,0.4-0.4,1-0.4,1.8c0,1.5,0.6,2.3,1.8,2.3c0.6,0,1.1-0.2,1.3-0.5
				c0.3-0.4,0.4-0.9,0.4-1.7v-0.1c0-0.8-0.1-1.4-0.4-1.8C1903,80.3,1902.5,80.1,1901.9,80.1 M1901.9,79.7c0.4,0,0.7,0.1,1,0.2
				c0.3,0.1,0.5,0.4,0.8,0.7h0c0-0.4,0-0.8,0-1.2v-1.9h0.5v7.7h-0.3l-0.1-0.8h0c-0.4,0.6-1,0.9-1.8,0.9c-0.7,0-1.3-0.2-1.7-0.7
				c-0.4-0.5-0.6-1.1-0.6-2c0-0.9,0.2-1.6,0.6-2.1C1900.6,79.9,1901.2,79.7,1901.9,79.7"/>
			<path fill="#757C7F" d="M1909,81.8h1c0.8,0,1.4-0.1,1.8-0.4c0.4-0.3,0.5-0.7,0.5-1.3c0-0.6-0.2-1-0.5-1.2
				c-0.3-0.3-0.9-0.4-1.6-0.4h-1.2V81.8z M1912.9,80c0,0.7-0.2,1.2-0.7,1.6c-0.5,0.4-1.1,0.6-2,0.6h-1.1v3h-0.5v-7.2h1.8
				C1912,77.9,1912.9,78.6,1912.9,80"/>
		</g>
		<rect x="1914.3" y="77.5" fill="#757C7F" width="0.5" height="7.7"/>
		<path fill="#757C7F" d="M1917.7,84.8c0.6,0,1-0.2,1.4-0.5c0.3-0.3,0.5-0.8,0.5-1.4v-0.5l-0.9,0c-0.8,0-1.3,0.2-1.6,0.4
			c-0.3,0.2-0.5,0.5-0.5,0.9c0,0.3,0.1,0.6,0.3,0.8C1917.1,84.8,1917.4,84.8,1917.7,84.8 M1919.7,85.2l-0.1-0.9h0
			c-0.3,0.3-0.5,0.6-0.8,0.7c-0.3,0.1-0.6,0.2-1,0.2c-0.5,0-0.9-0.1-1.2-0.4c-0.3-0.3-0.4-0.6-0.4-1.1c0-0.5,0.2-0.9,0.7-1.2
			c0.4-0.3,1.1-0.4,1.9-0.5l1,0v-0.4c0-0.5-0.1-0.9-0.3-1.2c-0.2-0.3-0.5-0.4-1-0.4c-0.5,0-1,0.1-1.6,0.4l-0.2-0.4
			c0.6-0.3,1.2-0.4,1.8-0.4c0.6,0,1,0.2,1.3,0.5c0.3,0.3,0.4,0.8,0.4,1.4v3.6H1919.7z"/>
		<path fill="#757C7F" d="M1923.1,84.9c0.3,0,0.6,0,0.8-0.1v0.4c-0.2,0.1-0.5,0.1-0.8,0.1c-0.5,0-0.8-0.1-1.1-0.4
			c-0.2-0.3-0.3-0.7-0.3-1.2v-3.5h-0.8v-0.3l0.8-0.2l0.2-1.2h0.3v1.3h1.6v0.4h-1.6v3.4c0,0.4,0.1,0.7,0.2,0.9
			C1922.6,84.8,1922.8,84.9,1923.1,84.9"/>
		<path fill="#757C7F" d="M1927,80.2h-1.3v5h-0.5v-5h-1v-0.3l1-0.2v-0.4c0-0.7,0.1-1.1,0.4-1.5c0.2-0.3,0.6-0.5,1.2-0.5
			c0.3,0,0.6,0,0.9,0.1l-0.1,0.4c-0.3-0.1-0.5-0.1-0.8-0.1c-0.4,0-0.7,0.1-0.8,0.3c-0.2,0.2-0.2,0.6-0.2,1.1v0.5h1.3V80.2z"/>
		<path fill="#757C7F" d="M1928.2,82.5c0,0.7,0.2,1.3,0.5,1.7c0.3,0.4,0.8,0.6,1.4,0.6s1.1-0.2,1.4-0.6c0.3-0.4,0.5-1,0.5-1.7
			c0-0.7-0.2-1.3-0.5-1.7c-0.3-0.4-0.8-0.6-1.4-0.6s-1.1,0.2-1.4,0.6C1928.3,81.2,1928.2,81.7,1928.2,82.5 M1932.4,82.5
			c0,0.9-0.2,1.6-0.6,2.1c-0.4,0.5-1,0.7-1.8,0.7c-0.5,0-0.9-0.1-1.2-0.3c-0.4-0.2-0.6-0.6-0.8-1c-0.2-0.4-0.3-0.9-0.3-1.5
			c0-0.9,0.2-1.6,0.6-2.1c0.4-0.5,1-0.7,1.8-0.7c0.7,0,1.3,0.2,1.7,0.7C1932.2,80.9,1932.4,81.6,1932.4,82.5"/>
		<path fill="#757C7F" d="M1935.9,79.7c0.2,0,0.5,0,0.7,0.1l-0.1,0.5c-0.2-0.1-0.5-0.1-0.7-0.1c-0.5,0-0.8,0.2-1.1,0.6
			c-0.3,0.4-0.4,0.9-0.4,1.5v3h-0.5v-5.4h0.4l0,1h0c0.2-0.4,0.5-0.7,0.7-0.8C1935.2,79.8,1935.6,79.7,1935.9,79.7"/>
		<path fill="#757C7F" d="M1944.4,85.2v-3.5c0-0.5-0.1-0.9-0.3-1.1c-0.2-0.2-0.5-0.4-0.9-0.4c-0.6,0-1,0.2-1.2,0.5
			c-0.3,0.3-0.4,0.8-0.4,1.4v3.2h-0.5v-3.7c0-0.9-0.4-1.4-1.2-1.4c-0.6,0-1,0.2-1.2,0.5c-0.3,0.3-0.4,0.9-0.4,1.6v3h-0.5v-5.4h0.4
			l0.1,0.7h0c0.1-0.3,0.4-0.5,0.6-0.6c0.3-0.1,0.6-0.2,0.9-0.2c0.8,0,1.4,0.3,1.6,1h0c0.2-0.3,0.4-0.5,0.7-0.7
			c0.3-0.2,0.6-0.2,1-0.2c0.6,0,1,0.2,1.3,0.5c0.3,0.3,0.4,0.8,0.4,1.5v3.5H1944.4z"/>
		<path fill="#757C7F" d="M1864.6,83.1c0.3-0.3,0.3-0.7,0.3-1c0-1-0.6-2.5-1.7-2.5c-0.3,0-0.7,0.2-0.9,0.4c-0.2,0.3-0.3,0.6-0.3,1
			c0,0.9,0.5,2.4,1.7,2.4C1864,83.5,1864.4,83.3,1864.6,83.1 M1864.2,85.6c-0.1,0-0.2,0-0.3,0c-0.1,0-0.8,0-1.4,0.2
			c-0.3,0.1-1.1,0.4-1.1,1.4c0,0.9,0.9,1.6,2.3,1.6c1.3,0,2-0.6,2-1.4C1865.6,86.7,1865.2,86.4,1864.2,85.6 M1865.1,79.7
			c0.3,0.3,0.9,0.8,0.9,1.8c0,1-0.6,1.5-1.1,1.9c-0.2,0.2-0.4,0.4-0.4,0.7c0,0.3,0.2,0.5,0.3,0.6l0.5,0.4c0.6,0.5,1.1,0.9,1.1,1.9
			c0,1.3-1.2,2.5-3.5,2.5c-1.9,0-2.9-0.9-2.9-1.9c0-0.5,0.2-1.2,1-1.6c0.8-0.5,1.9-0.6,2.5-0.6c-0.2-0.2-0.4-0.5-0.4-0.9
			c0-0.2,0.1-0.4,0.1-0.5c-0.1,0-0.3,0-0.4,0c-1.4,0-2.2-1.1-2.2-2.1c0-0.6,0.3-1.3,0.9-1.8c0.8-0.6,1.7-0.7,2.4-0.7h2.7l-0.9,0.5
			H1865.1z"/>
		<path fill="#757C7F" d="M1858.4,84.3c0.3-0.4,0.4-1,0.4-1.5c0-1.2-0.6-3.4-2.2-3.4c-0.4,0-0.9,0.2-1.2,0.5
			c-0.5,0.5-0.6,1.1-0.6,1.6c0,1.3,0.7,3.5,2.3,3.5C1857.6,85,1858.1,84.8,1858.4,84.3 M1856.8,85.4c-2.1,0-3.2-1.7-3.2-3.1
			c0-1.7,1.4-3.2,3.4-3.2c2,0,3.2,1.5,3.2,3.1C1860.1,83.8,1858.9,85.4,1856.8,85.4"/>
		<path fill="#757C7F" d="M1851.2,84.3c0.3-0.4,0.4-1,0.4-1.5c0-1.2-0.6-3.4-2.2-3.4c-0.4,0-0.9,0.2-1.2,0.5
			c-0.5,0.5-0.6,1.1-0.6,1.6c0,1.3,0.6,3.5,2.3,3.5C1850.4,85,1850.9,84.8,1851.2,84.3 M1849.6,85.4c-2.1,0-3.2-1.7-3.2-3.1
			c0-1.7,1.4-3.2,3.4-3.2c2,0,3.2,1.5,3.2,3.1C1852.9,83.8,1851.7,85.4,1849.6,85.4"/>
		<path fill="#757C7F" d="M1869.4,84.8c-0.4,0-0.5-0.1-0.5-0.6V84v-7.4c0,0,0-0.1,0-0.1c0.1-0.5,0.2-0.5,0.6-0.8h-1.9l-1,0.5h1v0
			l0,0V84v0.4c0,0.3-0.1,0.3-0.4,0.7h2.4l0.5-0.3C1869.8,84.9,1869.6,84.9,1869.4,84.8"/>
		<path fill="#757C7F" d="M1873.5,81c0.3-0.1,0.4-0.2,0.4-0.4c0-0.5-0.6-1.1-1.3-1.1c-0.5,0-1.5,0.4-1.5,1.9c0,0.2,0,0.5,0,0.7
			L1873.5,81z M1874.8,85c-0.1,0.1-0.3,0.2-0.4,0.2c-0.4,0.2-0.9,0.3-1.3,0.3c-0.4,0-1.1,0-1.8-0.5c-0.9-0.7-1.4-1.8-1.4-2.8
			c0-2.1,1.7-3.1,3-3.1c0.5,0,1,0.1,1.4,0.4c0.7,0.4,0.8,1,0.9,1.3l-3.1,1.3l-1,0.1c0.3,1.7,1.5,2.7,2.7,2.7c0.7,0,1.2-0.2,1.6-0.5
			L1874.8,85z"/>
		<path fill="#757C7F" d="M1845.3,85.2l-1.9,0.4c-0.8,0.1-1.5,0.2-2.2,0.2c-3.7,0-5.1-2.7-5.1-4.9c0-2.6,2-5,5.4-5
			c0.7,0,1.4,0.1,2,0.3c1,0.3,1.5,0.6,1.8,0.8l-1.1,1.1l-0.5,0.1l0.3-0.5c-0.5-0.4-1.3-1.3-2.9-1.3c-2.1,0-3.7,1.6-3.7,4
			c0,2.5,1.8,4.9,4.7,4.9c0.9,0,1.3-0.2,1.7-0.3v-2.2l-2,0.1l1.1-0.6h2.8l-0.3,0.3c-0.1,0.1-0.1,0.1-0.1,0.2c0,0.1,0,0.5,0,0.6V85.2
			z"/>
	</g>
</g>
<g>
	<g>
		<path fill="#676868" d="M59,73.3c2.6,0,4.8-1.4,6-3.5l16.1-27.8c1.3-2.2,1.2-4.9,0-7l-9-15.6c-0.6-1.1-1.8-1.7-3-1.7l-14,0
			l12,20.9L48,71.6c-0.6,1-1.7,1.7-3,1.7L59,73.3z"/>
		<path fill="#808182" d="M65.1,7.3c-1.3-2.2-3.6-3.5-6-3.5l-32.1,0c-2.6,0-4.8,1.4-6,3.5l-9,15.6c-0.6,1.1-0.6,2.4,0,3.5l7,12.2
			l12-20.9l38.1,0c1.2,0,2.4,0.6,3,1.7L65.1,7.3z"/>
		<path fill="#B4B4B5" d="M4.9,35.1c-1.3,2.2-1.2,4.9,0,7l16.1,27.8c1.3,2.2,3.6,3.5,6,3.5l18.1,0c1.3,0,2.4-0.7,3-1.7l7-12.2H31
			l-19.1-33c-0.6-1-0.6-2.4,0-3.5L4.9,35.1z"/>
		<g>
			<polygon fill="#CCCCCC" points="31,59.4 18.9,38.6 31,17.7 55,17.7 67.1,38.6 55,59.4 			"/>
		</g>
		<circle fill="#FFFFFF" cx="43" cy="38.6" r="10.4"/>
		<circle fill="#FFFFFF" cx="26.9" cy="10.8" r="1.7"/>
		<circle fill="#FFFFFF" cx="10.9" cy="38.6" r="1.7"/>
		<circle fill="#FFFFFF" cx="26.9" cy="66.4" r="1.7"/>
		<circle fill="#FFFFFF" cx="59.1" cy="66.4" r="1.7"/>
		<circle fill="#FFFFFF" cx="75.1" cy="38.6" r="1.7"/>
		<circle fill="#FFFFFF" cx="59.1" cy="10.8" r="1.7"/>
		<path opacity="0.1" fill="#010101" d="M48,71.6l7-12.2h-7.3L45,73.3C46.3,73.3,47.4,72.6,48,71.6z"/>
		<path opacity="0.1" fill="#010101" d="M69.1,17.7l-14,0l3.6,6.3l13.4-4.5C71.4,18.3,70.3,17.7,69.1,17.7z"/>
		<path opacity="0.1" fill="#010101" d="M11.9,26.4l7,12.2l3.6-6.3l-10.6-9.4C11.3,24.1,11.3,25.4,11.9,26.4z"/>
	</g>
	<g>
		<g>
			<path fill="#757C7F" d="M296.6,27.5c-3.8,0-6.8,1.2-8.9,3.6c-2.2,2.4-3.3,5.7-3.3,10c0,4.3,1,7.7,3.1,10c2.1,2.4,5,3.6,8.8,3.6
				c2.5,0,4.9-0.3,7-1v1.9c-2,0.7-4.5,1.1-7.5,1.1c-4.2,0-7.6-1.4-10-4.1c-2.4-2.7-3.7-6.6-3.7-11.5c0-3.1,0.6-5.8,1.7-8.1
				c1.2-2.3,2.8-4.2,5-5.4c2.2-1.3,4.7-1.9,7.6-1.9c2.9,0,5.6,0.6,7.9,1.7l-0.8,1.9C301.4,28,299,27.5,296.6,27.5"/>
		</g>
		<rect x="309.1" y="24.1" fill="#757C7F" width="2" height="32.2"/>
		<g>
			<path fill="#757C7F" d="M319.1,45c0,3.1,0.7,5.5,2,7.2c1.4,1.7,3.3,2.6,5.8,2.6c2.5,0,4.4-0.9,5.8-2.6c1.4-1.7,2-4.1,2-7.2
				c0-3.1-0.7-5.5-2.1-7.2c-1.4-1.7-3.3-2.6-5.8-2.6c-2.5,0-4.4,0.9-5.7,2.6C319.7,39.5,319.1,41.9,319.1,45 M336.8,45
				c0,3.7-0.9,6.5-2.7,8.6c-1.8,2.1-4.2,3.1-7.4,3.1c-2,0-3.7-0.5-5.2-1.4c-1.5-1-2.7-2.3-3.5-4.1c-0.8-1.8-1.2-3.8-1.2-6.2
				c0-3.7,0.9-6.5,2.7-8.6c1.8-2,4.2-3.1,7.3-3.1c3.1,0,5.5,1,7.3,3.1C335.9,38.5,336.8,41.4,336.8,45"/>
			<path fill="#757C7F" d="M344.4,33.8v14.5c0,2.3,0.5,3.9,1.4,4.9c1,1,2.4,1.5,4.4,1.5c2.7,0,4.6-0.7,5.9-2
				c1.3-1.3,1.9-3.5,1.9-6.6V33.8h2v22.5h-1.7l-0.4-3.1h-0.1c-1.5,2.3-4.1,3.5-7.8,3.5c-5.1,0-7.7-2.7-7.7-8.2V33.8H344.4z"/>
			<path fill="#757C7F" d="M375.3,35.2c-2.5,0-4.3,0.9-5.5,2.6c-1.2,1.7-1.8,4.2-1.8,7.5c0,6.4,2.5,9.5,7.4,9.5
				c2.5,0,4.4-0.7,5.6-2.2c1.2-1.5,1.8-3.9,1.8-7.3V45c0-3.5-0.6-6-1.7-7.5C379.8,36,378,35.2,375.3,35.2 M375.3,33.3
				c1.6,0,3,0.3,4.2,0.9c1.2,0.6,2.2,1.6,3.2,3h0.1c-0.1-1.7-0.1-3.4-0.1-5.1v-8.1h2v32.2h-1.3l-0.5-3.4h-0.2
				c-1.7,2.6-4.2,3.8-7.4,3.8c-3.1,0-5.5-1-7.1-2.9c-1.6-1.9-2.5-4.7-2.5-8.4c0-3.9,0.8-6.9,2.4-8.9
				C369.9,34.4,372.2,33.3,375.3,33.3"/>
			<path fill="#757C7F" d="M405.1,41.9h4.2c3.4,0,5.9-0.6,7.4-1.7c1.5-1.1,2.3-2.9,2.3-5.5c0-2.3-0.7-4.1-2.1-5.2
				c-1.4-1.1-3.7-1.7-6.7-1.7h-5V41.9z M421.2,34.7c0,2.9-1,5.2-3,6.7c-2,1.6-4.8,2.3-8.4,2.3h-4.7v12.5H403V26h7.4
				C417.6,26,421.2,28.9,421.2,34.7"/>
		</g>
		<rect x="426.8" y="24.1" fill="#757C7F" width="2" height="32.2"/>
		<path fill="#757C7F" d="M441.3,54.8c2.4,0,4.3-0.7,5.7-2.1c1.4-1.4,2.1-3.3,2.1-5.7v-2.2l-3.9,0.2c-3.2,0.2-5.4,0.6-6.7,1.5
			c-1.3,0.8-2,2.1-2,3.9c0,1.4,0.4,2.5,1.3,3.3C438.5,54.4,439.7,54.8,441.3,54.8 M449.6,56.2l-0.5-3.6h-0.2
			c-1.1,1.4-2.3,2.5-3.5,3.1c-1.2,0.6-2.6,0.9-4.2,0.9c-2.2,0-3.9-0.6-5.1-1.7c-1.2-1.1-1.8-2.7-1.8-4.7c0-2.2,0.9-3.9,2.7-5.1
			c1.8-1.2,4.5-1.9,7.9-1.9l4.3-0.1v-1.5c0-2.1-0.4-3.7-1.3-4.8c-0.9-1.1-2.3-1.6-4.2-1.6c-2.1,0-4.2,0.6-6.5,1.7l-0.8-1.8
			c2.5-1.2,4.9-1.7,7.3-1.7c2.5,0,4.3,0.6,5.5,1.9c1.2,1.3,1.8,3.3,1.8,6v14.9H449.6z"/>
		<path fill="#757C7F" d="M463.9,54.8c1.3,0,2.4-0.1,3.4-0.3v1.7c-1,0.3-2.1,0.5-3.4,0.5c-2,0-3.4-0.5-4.4-1.6
			c-0.9-1.1-1.4-2.7-1.4-5V35.6h-3.3v-1.2l3.3-0.9l1-5.1h1.1v5.4h6.6v1.8h-6.6v14.2c0,1.7,0.3,3,0.9,3.8
			C461.6,54.4,462.6,54.8,463.9,54.8"/>
		<path fill="#757C7F" d="M480,35.6h-5.3v20.7h-2V35.6h-4.2v-1.2l4.2-0.8v-1.7c0-2.8,0.5-4.8,1.5-6.1c1-1.3,2.7-1.9,5-1.9
			c1.2,0,2.5,0.2,3.7,0.6l-0.5,1.8c-1.1-0.3-2.2-0.5-3.3-0.5c-1.6,0-2.7,0.5-3.4,1.4c-0.7,0.9-1,2.5-1,4.6v2.1h5.3V35.6z"/>
		<path fill="#757C7F" d="M484.8,45c0,3.1,0.7,5.5,2,7.2c1.4,1.7,3.3,2.6,5.8,2.6c2.5,0,4.4-0.9,5.8-2.6c1.4-1.7,2-4.1,2-7.2
			c0-3.1-0.7-5.5-2.1-7.2c-1.4-1.7-3.3-2.6-5.8-2.6c-2.5,0-4.4,0.9-5.7,2.6C485.5,39.5,484.8,41.9,484.8,45 M502.5,45
			c0,3.7-0.9,6.5-2.7,8.6c-1.8,2.1-4.2,3.1-7.4,3.1c-2,0-3.7-0.5-5.2-1.4c-1.5-1-2.7-2.3-3.5-4.1c-0.8-1.8-1.2-3.8-1.2-6.2
			c0-3.7,0.9-6.5,2.7-8.6c1.8-2,4.2-3.1,7.3-3.1c3.1,0,5.5,1,7.3,3.1C501.7,38.5,502.5,41.4,502.5,45"/>
		<path fill="#757C7F" d="M517.2,33.3c1,0,2,0.1,3.1,0.3l-0.4,2c-0.9-0.2-1.9-0.4-2.9-0.4c-1.9,0-3.5,0.8-4.7,2.4
			c-1.2,1.6-1.8,3.7-1.8,6.2v12.4h-2V33.8h1.7l0.2,4.1h0.1c0.9-1.7,1.9-2.8,3-3.5C514.4,33.7,515.7,33.3,517.2,33.3"/>
		<path fill="#757C7F" d="M552.4,56.2V41.5c0-2.2-0.4-3.8-1.3-4.8c-0.9-1-2.2-1.5-3.9-1.5c-2.3,0-4,0.6-5.1,1.9
			c-1.1,1.3-1.7,3.3-1.7,6v13.2h-2.1V40.9c0-3.8-1.7-5.7-5.2-5.7c-2.4,0-4.1,0.7-5.1,2.1c-1.1,1.4-1.6,3.6-1.6,6.6v12.4h-2V33.8h1.7
			l0.4,3.1h0.1c0.6-1.1,1.5-2,2.6-2.6c1.1-0.6,2.4-0.9,3.8-0.9c3.5,0,5.8,1.3,6.8,4h0.1c0.7-1.3,1.7-2.3,2.9-3c1.2-0.7,2.6-1,4.2-1
			c2.5,0,4.3,0.7,5.5,2c1.2,1.3,1.8,3.4,1.8,6.2v14.7H552.4z"/>
		<path fill="#757C7F" d="M219.5,47.5c1.3-1.3,1.4-3.1,1.4-4.1c0-4-2.4-10.2-7-10.2c-1.4,0-3,0.7-3.9,1.8c-0.9,1.2-1.2,2.7-1.2,4.1
			c0,3.7,2.2,9.9,6.9,9.9C217.1,49.1,218.6,48.4,219.5,47.5 M217.9,58.1c-0.4,0-0.7,0-1.3,0c-0.5,0-3.5,0.1-5.8,0.9
			c-1.2,0.5-4.8,1.8-4.8,5.7c0,3.9,3.8,6.8,9.8,6.8c5.3,0,8.1-2.6,8.1-6C223.9,62.6,222.1,61.1,217.9,58.1 M221.8,33.4
			c1.3,1.1,3.9,3.3,3.9,7.5c0,4.1-2.3,6.1-4.7,7.9c-0.7,0.7-1.5,1.5-1.5,2.7c0,1.2,0.8,1.9,1.4,2.4l2,1.6c2.4,2.1,4.7,3.9,4.7,7.8
			c0,5.2-5.1,10.5-14.6,10.5c-8,0-11.9-3.8-11.9-8c0-2,1-4.8,4.3-6.8c3.4-2.1,8.1-2.4,10.6-2.6c-0.8-1-1.7-2.1-1.7-3.8
			c0-0.9,0.3-1.5,0.6-2.2c-0.6,0.1-1.2,0.1-1.8,0.1c-5.9,0-9.2-4.4-9.2-8.7c0-2.6,1.2-5.4,3.6-7.5c3.2-2.6,6.9-3.1,9.9-3.1h11.4
			l-3.6,2H221.8z"/>
		<path fill="#757C7F" d="M193.8,52.7c1.3-1.8,1.7-4,1.7-6.2c0-4.9-2.3-14.2-9.2-14.2c-1.8,0-3.7,0.7-5,1.9
			c-2.2,1.9-2.6,4.4-2.6,6.8c0,5.5,2.7,14.6,9.4,14.6C190.3,55.6,192.6,54.5,193.8,52.7 M186.9,57.2c-8.8,0-13.5-6.9-13.5-13.1
			c0-7.3,5.9-13.5,14.3-13.5c8.1,0,13.2,6.4,13.2,13.1C201,50.3,195.9,57.2,186.9,57.2"/>
		<path fill="#757C7F" d="M163.8,52.7c1.3-1.8,1.7-4,1.7-6.2c0-4.9-2.3-14.2-9.2-14.2c-1.8,0-3.6,0.7-5,1.9
			c-2.2,1.9-2.5,4.4-2.5,6.8c0,5.5,2.7,14.6,9.4,14.6C160.3,55.6,162.5,54.5,163.8,52.7 M156.9,57.2c-8.8,0-13.5-6.9-13.5-13.1
			c0-7.3,5.9-13.5,14.3-13.5c8.1,0,13.2,6.4,13.2,13.1C171,50.3,165.9,57.2,156.9,57.2"/>
		<path fill="#757C7F" d="M239.4,54.7c-1.8-0.2-2.2-0.5-2.2-2.7v-0.6v-31c0-0.1,0-0.2,0-0.4c0.2-2,0.8-2.3,2.5-3.3h-8l-4.2,2h4.3v0
			l0,0v32.7v1.9c0,1.1-0.2,1.3-1.5,2.9h9.9l2.1-1.2C241.3,54.9,240.4,54.8,239.4,54.7"/>
		<path fill="#757C7F" d="M256.9,38.7c1.1-0.4,1.6-0.7,1.6-1.5c0-2.2-2.5-4.8-5.5-4.8c-2.2,0-6.4,1.7-6.4,7.7c0,0.9,0.1,1.9,0.2,2.9
			L256.9,38.7z M262.1,55.3c-0.6,0.3-1.2,0.7-1.8,1c-1.8,0.8-3.7,1.1-5.4,1.1c-1.8,0-4.5-0.1-7.4-2.2c-3.9-2.8-5.6-7.5-5.6-11.7
			c0-8.6,7-12.8,12.7-12.8c2,0,4,0.5,5.7,1.6c2.8,1.8,3.5,4.2,3.9,5.5l-13,5.3l-4.3,0.3c1.4,7.1,6.1,11.2,11.4,11.2
			c2.8,0,4.9-1,6.7-1.9L262.1,55.3z"/>
		<path fill="#757C7F" d="M139.1,56.3l-8,1.8c-3.2,0.5-6.1,1-9.2,1c-15.4,0-21.2-11.4-21.2-20.2c0-10.8,8.3-20.9,22.5-20.9
			c3,0,5.9,0.4,8.5,1.2c4.2,1.2,6.1,2.6,7.3,3.5l-4.6,4.4l-2,0.4l1.4-2.2c-1.9-1.8-5.3-5.2-11.9-5.2c-8.8,0-15.4,6.7-15.4,16.5
			c0,10.5,7.6,20.4,19.7,20.4c3.6,0,5.4-0.7,7.1-1.4v-9l-8.4,0.4l4.4-2.4h11.8l-1.4,1.4c-0.4,0.3-0.5,0.4-0.6,0.9
			c-0.1,0.5-0.1,2.1-0.1,2.7V56.3z"/>
	</g>
</g>
</svg>
