<?xml version="1.0" encoding="utf-8"?>
<!-- Generator: Adobe Illustrator 18.1.1, SVG Export Plug-In . SVG Version: 6.00 Build 0)  -->
<svg version="1.1" id="Layer_1" xmlns="http://www.w3.org/2000/svg" xmlns:xlink="http://www.w3.org/1999/xlink" x="0px" y="0px"
	 viewBox="0 196 499 106" enable-background="new 0 196 499 106" xml:space="preserve">
<g>
	<g>
		<g>
			<g>
				<g>
					<path d="M5.3,204.8v89.5h94.8v-89.5H5.3z M40.1,246.7c0,5.4-1.8,8.5-5.8,9.6c4.2,1.7,5.8,4.7,5.8,11.1v9.4l-16.3-0.1v-12.3
						c0-2.5-2.7-2.7-4.9-3.5v-8.8c2.2-0.7,4.9-1.4,4.9-3.4v-13h16.3V246.7z M40.1,233.3H23.7v-12.7h16.4V233.3z M64.1,278.6
						c-14.6,0-21.6-7.8-21.6-17.7v-3h16.3v1.3c0,3.2,1.7,5.4,4.8,5.4c2.9,0,4.4-1.4,4.4-3.7c0-6.5-25-5.4-25-23.7
						c0-9.8,6.2-18.4,21.6-18.4c13.9,0,20.8,7.8,20.8,17.6v3.2H69.1V238c0-2.6-1.4-5.3-4.5-5.3c-2.5,0-3.9,1.4-3.9,3.6
						c0,7.2,25,5.3,25,23.6C85.8,269.7,79.3,278.6,64.1,278.6z"/>
				</g>
			</g>
		</g>
	</g>
</g>
<g>
	<g>
		<path d="M131,243.4c0,2.1-0.6,3.7-1.9,4.8c-1.3,1.1-3,1.7-5.3,1.7c-2.2,0-4-0.6-5.3-1.7c-1.3-1.1-1.9-2.7-1.9-4.8
			c0-2.2,0.6-3.8,1.9-4.9c1.3-1.1,3-1.7,5.3-1.7c2.3,0,4,0.6,5.3,1.7C130.3,239.6,131,241.2,131,243.4z M117.7,291.8v-36.1l12.2-1.5
			v37.6C129.9,291.8,117.7,291.8,117.7,291.8z"/>
		<path d="M150.8,291.8h-12.2v-36.1l12.2-1.5v5.4c2.2-3.8,5.1-5.7,8.8-5.7c2.1,0,4.1,0.5,6.1,1.5l-2.5,10.7c-1.5-0.7-3-1.1-4.6-1.1
			c-1.5,0-3,0.4-4.3,1.2c-1.3,0.8-2.5,2.2-3.6,4.1L150.8,291.8L150.8,291.8z"/>
		<path d="M206.8,273.3c0,3.1-0.5,5.8-1.6,8.3c-1.1,2.5-2.5,4.5-4.3,6.2c-1.8,1.7-3.9,3-6.3,3.9c-2.4,0.9-5,1.3-7.7,1.3
			c-2.7,0-5.3-0.4-7.7-1.3c-2.4-0.8-4.5-2.1-6.2-3.7c-1.7-1.7-3.1-3.7-4.1-6.1c-1-2.4-1.5-5.2-1.5-8.3c0-3.1,0.5-5.9,1.5-8.3
			c1-2.5,2.5-4.5,4.3-6.2c1.8-1.7,3.9-3,6.3-3.8c2.4-0.9,5-1.3,7.8-1.3s5.4,0.4,7.7,1.3c2.4,0.9,4.4,2.1,6.2,3.8
			c1.7,1.7,3.1,3.7,4.1,6.1C206.4,267.4,206.8,270.2,206.8,273.3z M194.8,273.4c0-3.1-0.6-5.6-1.9-7.4c-1.3-1.9-3.2-2.8-5.7-2.8
			c-2.5,0-4.4,0.9-5.7,2.8c-1.3,1.9-1.9,4.4-1.9,7.5s0.6,5.6,1.9,7.4c1.3,1.8,3.2,2.7,5.7,2.7c2.5,0,4.4-0.9,5.7-2.7
			C194.1,279,194.8,276.5,194.8,273.4z"/>
		<path d="M237.5,291.8v-21.7c0-2.2-0.5-3.7-1.4-4.6c-0.9-0.8-2.2-1.3-3.8-1.3c-1.4,0-2.6,0.3-3.7,0.8c-1.1,0.6-2.1,1.2-2.8,1.9
			v24.8h-12.2v-36.1l12.2-1.5l-0.1,6c1.6-1.8,3.5-3.4,5.6-4.5c2.1-1.2,4.3-1.8,6.7-1.8c3.7,0,6.6,1.1,8.7,3.4
			c2.1,2.2,3.1,5.3,3.1,9.3v25.3L237.5,291.8L237.5,291.8z"/>
		<path d="M275.4,282.6c2.2,0,4-0.4,5.4-1.2c1.4-0.8,2.1-1.9,2.1-3.5c0-0.8-0.2-1.6-0.7-2.1c-0.4-0.6-1.1-1.1-1.9-1.5
			c-0.8-0.4-1.9-0.9-3.2-1.3s-2.7-0.8-4.3-1.3c-1.8-0.5-3.6-1.1-5.5-1.8c-1.9-0.7-3.6-1.7-5.1-2.8c-1.6-1.1-2.8-2.6-3.8-4.3
			c-1-1.7-1.5-3.8-1.5-6.3c0-4.6,1.6-8.3,4.9-11.1c3.3-2.8,7.9-4.2,14.1-4.2c3.9,0,7.4,0.4,10.4,1.2s5.7,1.8,8.1,3.2l-2.5,10.3
			c-2.5-1.3-5.1-2.4-8-3.2c-2.8-0.8-5.5-1.2-8-1.2c-4.3,0-6.5,1.4-6.5,4.2c0,0.8,0.3,1.5,0.8,2.1c0.5,0.6,1.3,1.1,2.2,1.6
			c0.9,0.4,2.1,0.9,3.3,1.3s2.6,0.8,4.1,1.2c1.9,0.5,3.8,1.2,5.6,1.9s3.5,1.7,5,2.8c1.5,1.1,2.7,2.5,3.5,4.2c0.9,1.7,1.3,3.7,1.3,6
			c0,2.4-0.4,4.5-1.3,6.5c-0.9,1.9-2.2,3.6-3.9,5c-1.7,1.4-3.8,2.5-6.3,3.3c-2.5,0.8-5.4,1.2-8.7,1.2c-3.7,0-7.2-0.4-10.5-1.3
			c-3.3-0.8-6.2-1.9-8.5-3.2l2.4-10.4c2.5,1.3,5.1,2.4,8,3.3C269.4,282.2,272.3,282.6,275.4,282.6z"/>
		<path d="M340.2,273.3c0,3.1-0.5,5.8-1.6,8.3c-1.1,2.5-2.5,4.5-4.3,6.2c-1.8,1.7-3.9,3-6.3,3.9c-2.4,0.9-5,1.3-7.7,1.3
			c-2.7,0-5.3-0.4-7.7-1.3c-2.4-0.8-4.5-2.1-6.2-3.7c-1.7-1.7-3.1-3.7-4.1-6.1c-1-2.4-1.5-5.2-1.5-8.3c0-3.1,0.5-5.9,1.5-8.3
			c1-2.5,2.5-4.5,4.3-6.2c1.8-1.7,3.9-3,6.3-3.8c2.4-0.9,5-1.3,7.8-1.3c2.8,0,5.4,0.4,7.7,1.3c2.4,0.9,4.4,2.1,6.2,3.8
			c1.7,1.7,3.1,3.7,4.1,6.1C339.7,267.4,340.2,270.2,340.2,273.3z M328.1,273.4c0-3.1-0.6-5.6-1.9-7.4c-1.3-1.9-3.2-2.8-5.7-2.8
			c-2.5,0-4.4,0.9-5.7,2.8c-1.3,1.9-1.9,4.4-1.9,7.5s0.6,5.6,1.9,7.4c1.3,1.8,3.2,2.7,5.7,2.7s4.4-0.9,5.7-2.7
			C327.5,279,328.1,276.5,328.1,273.4z"/>
		<path d="M358.9,255.1v21.7c0,2.2,0.4,3.7,1.3,4.6c0.9,0.9,2.1,1.3,3.7,1.3c1.3,0,2.5-0.2,3.5-0.7c1-0.5,1.9-1.1,2.7-1.7v-25.2
			h12.2v36.2l-12.2,1.5v-5.5c-1.4,1.5-3.2,2.9-5.2,4c-2,1.1-4.3,1.7-6.7,1.7c-3.6,0-6.4-1.1-8.5-3.4c-2-2.2-3-5.3-3-9.3v-25.3H358.9
			z"/>
		<path d="M403.2,291.8H391v-36.1l12.2-1.5v5.4c2.2-3.8,5.1-5.7,8.8-5.7c2.1,0,4.1,0.5,6.1,1.5l-2.5,10.7c-1.5-0.7-3-1.1-4.6-1.1
			c-1.5,0-3,0.4-4.3,1.2c-1.3,0.8-2.5,2.2-3.6,4.1L403.2,291.8L403.2,291.8z"/>
		<path d="M447.4,292.2c-2.4,0.5-4.9,0.8-7.6,0.8c-3.1,0-5.8-0.4-8.3-1.3c-2.5-0.8-4.5-2.1-6.3-3.7c-1.7-1.6-3.1-3.6-4-6
			c-0.9-2.4-1.4-5.1-1.4-8.3c0-3,0.5-5.8,1.4-8.3c0.9-2.5,2.3-4.5,4.1-6.2s3.9-3,6.4-4s5.3-1.4,8.3-1.4c2.6,0,5,0.3,7.4,0.8
			s4.3,1.3,6,2.2l-2.4,9.2c-1.5-0.9-3.1-1.6-4.7-2.1c-1.7-0.5-3.3-0.8-5-0.8c-3,0-5.2,0.9-6.8,2.8c-1.6,1.9-2.3,4.3-2.3,7.3
			c0,3.3,0.9,5.9,2.6,7.6c1.7,1.7,4,2.6,6.8,2.6c1.8,0,3.6-0.2,5.2-0.7c1.6-0.5,3.1-1.2,4.5-2.1l1.8,9.2
			C451.7,290.9,449.8,291.6,447.4,292.2z"/>
		<path d="M469.6,276.3c0.2,2.5,1.1,4.4,2.8,5.7c1.6,1.3,4,2,6.9,2c2,0,4-0.3,6.1-1s4-1.5,5.9-2.6l1.2,9.4c-1.8,0.9-4,1.7-6.5,2.2
			c-2.5,0.5-5.1,0.8-7.8,0.8c-3.1,0-5.9-0.4-8.4-1.3c-2.5-0.8-4.7-2.1-6.5-3.7c-1.8-1.6-3.2-3.6-4.1-6c-1-2.4-1.5-5.1-1.5-8.2
			c0-3,0.5-5.7,1.5-8.2c1-2.5,2.3-4.5,4.1-6.2s3.9-3,6.3-4c2.5-0.9,5.1-1.4,8-1.4c5.2,0,9.2,1.4,12,4.3c2.8,2.8,4.1,6.6,4.1,11.1
			c0,1-0.1,2.1-0.2,3.4c-0.1,1.3-0.3,2.3-0.6,3.1l-23.3,0.4L469.6,276.3L469.6,276.3z M482.4,270v-0.7c0-2.2-0.5-3.9-1.4-5.2
			c-0.9-1.2-2.3-1.9-4.2-1.9c-2.1,0-3.8,0.8-5,2.3c-1.2,1.6-1.9,3.4-2.1,5.5L482.4,270z"/>
	</g>
</g>
</svg>
