<?xml version="1.0" encoding="utf-8"?>
<!-- Generator: Adobe Illustrator 18.1.1, SVG Export Plug-In . SVG Version: 6.00 Build 0)  -->
<svg version="1.1" id="Layer_1" xmlns="http://www.w3.org/2000/svg" xmlns:xlink="http://www.w3.org/1999/xlink" x="0px" y="0px"
	 viewBox="0 0 197 73.8" enable-background="new 0 0 197 73.8" xml:space="preserve">
<g>
	<path fill="#575756" d="M193.5,25.5c-4-2.3-5.7-3.1-8.1-3.1c-2.2,0-3.3,1.1-3.3,2.9c0,5.2,12.6,3.8,12.6,16.1
		c0,6.7-3.7,10.7-10,10.7c-3.8,0-5.6-1.6-8.4-3.5V41c4,3.3,5.7,4.5,8.7,4.5c2.3,0,3.3-1.2,3.3-3.3c0-5.8-12.6-3.6-12.6-16.3
		c0-6.1,2.5-10.1,9-10.1c3.1,0,5.1,0.8,8.6,2.8V25.5z"/>
	<path fill="#575756" d="M95.8,16.2c5.8,0,8.3,4.8,8.3,10.1c0,3.8-1.6,6.7-4.8,8.5c-0.9,0.4-1.4,0.5-2,0.7l9.7,15.8h-6.8L91.1,37
		v14.3h-6.2V16.2H95.8z M91.1,30.7h2.9c2,0,3.9-1,3.9-4c0-2.7-1.4-4-4-4h-2.7V30.7z"/>
	<path fill="#575756" d="M136.4,51.3h-6.7l-2.3-7h-10.9l-2.1,7h-6.6l10.4-35.1h6.5L136.4,51.3z M121.7,24.6l-3.3,13.7h7L121.7,24.6z
		"/>
	<path fill="#575756" d="M144.6,51.3h-6.2V16.2h6.2V51.3z"/>
	<path fill="#575756" d="M173.2,51.3h-5.1l-13-22.5v22.5H149V16.2h5.6L167,37.7V16.2h6.2V51.3z"/>
	<path fill="#575756" d="M76,32c2.4-1.4,3.9-4,3.9-7c0-1.6-0.3-3.3-1.1-4.7c-2.3,2-4.8,4.2-5.5,4.8c0.1,0.4,0.2,0.8,0.2,1.2
		c0,1.9-1,3.8-3.5,3.8h-2v-1.8v-5.7v-0.8l7.4-4.8c-1.1-0.4-2.3-0.7-3.9-0.7h-9.7v35.1h10.3c8.2,0,10-6.3,10-10.3
		C82.1,36.9,80.1,33.3,76,32z M70.2,44.9h-2.3v-8.2h3.3c2.5,0,4.3,1.3,4.3,3.9C75.5,43.6,74.1,44.9,70.2,44.9z"/>
	<path fill="#575756" d="M84.8,12.1c-0.4-0.2-4.9,2.6-7.7,4.5l-1,0.7l-7.2,4.9v5.4c1.6-1.1,2.8-2.1,3.7-3l5.4-4.6
		c0,0,2.7-2.4,4.1-3.9l0.5-0.5c0.4-0.4,0.7-0.6,0.7-0.9c0,0,0,0,0-0.1C83.2,14.5,85,12.2,84.8,12.1z"/>
	<path fill="#575756" d="M56.4,35l4.4-3v-5.4l-4,2.6c0,0-3.5,2.3-4.8,3.1c0.1-0.7,0.2-1.4,0.2-1.4c0.6-4.6,1.2-9.2,1.2-12.2
		c0-1.5-0.1-2.6-0.5-3.2c-0.2-0.4-0.6-0.7-1-0.8c-0.6-0.1-1.3,0.1-1.9,0.6c-2,1.4-3,5.5-3,12.5c0,2.3,0.1,4.8,0.3,7.7
		c-0.2,0.2-1.4,1.3-1.4,1.3c0,0-2,1.8-2,1.8c0,0-0.1,0.1-0.1,0.1c-1.9,1.6-3,2.6-3.5,2.8c-0.6,0.2-1,0.3-1.5,0.2
		c2.5-1.9,4.6-5.9,4.6-8.3c0-0.3,0-0.5-0.1-0.7C43,31,42.2,29.8,41,29.2c-1.1-0.6-2.5-0.6-4-0.1l-0.6,0.2c-2.8,1.3-11.3,6-13.9,7.5
		c0.3-3.7,1.8-20.7,2.3-29.7c0.3-5.8,0-2.2,0-3.3c0-4.2-5.3,0-8.2,2.9c-1.2,1.2-5.1,4.7-3.7,7.4c1.5,2.9,3.1,1.9,3.9,6.9
		c1.5,8.7,0.3,17.6,0.3,18.2c-0.5,0.2-4.1,1.9-4.1,1.9C6.7,44.1,1.9,46.3,1.9,50c0,0.6,0.1,1.2,0.4,1.8c5.2,13.6,12.3,21,15.1,20.2
		c4.1-1.1,4.2-6.4,4.5-14.5c0.1-4,0.3-8.6,0.9-13.7c0.3-0.2,7.2-5.3,8.4-6.1c-0.6,1.2-0.6,2.4-0.6,3.1c0,1.6,0.2,2.9,0.6,3.6
		c0.5,1.2,1,2,2.3,2.6c1.6,0.8,3,1,5.7-0.1c1.2-0.5,3.3-1.9,5.6-3.9c0.5,0.8,2.5,4.3,2.5,4.3l1.8,3.1c0.8,1.5,2.2,1.9,3.6,1.1
		c1.1-0.6,1.9-1.1,2.1-1.8c0-0.2,0.1-0.3,0.1-0.4c0-0.5-0.2-0.9-0.4-1.3c-2.1-3.8-2.3-7.1-2.3-9.6c0-0.2,0-0.3,0-0.5
		C52.5,37.7,56.4,35,56.4,35z M14.9,60.9c-1.7-1.4-2.5-2.5-3.7-5.4c-2.1-5,0.8-6.5,6-9.5C16.5,51.3,16.1,62.1,14.9,60.9z M35.5,39.5
		c-0.1-1.9-0.5-4.3,1.9-5.6c0.9-0.5,1.5-0.2,1.8,0.1C39.9,34.7,38.5,37.7,35.5,39.5z"/>
</g>
</svg>
