<?xml version="1.0" encoding="utf-8"?>
<!-- Generator: Adobe Illustrator 18.1.1, SVG Export Plug-In . SVG Version: 6.00 Build 0)  -->
<svg version="1.1" id="Layer_1" xmlns="http://www.w3.org/2000/svg" xmlns:xlink="http://www.w3.org/1999/xlink" x="0px" y="0px"
	 viewBox="0 0 269 76.3" enable-background="new 0 0 269 76.3" xml:space="preserve">
<path d="M74,3.2H62.8c-0.8,0-1.5,0.7-1.5,1.4v66.3c0,0.8,0.7,1.5,1.5,1.5H74c0.8,0,1.3-0.8,1.3-1.5V4.6C75.3,3.8,74.7,3.2,74,3.2z
	 M192.9,20.2c-5.9,0-9.8,1.3-14.6,4.7l-0.6,0.5v-3c0-0.8-0.6-1.4-1.4-1.4h-10.2c-0.8,0-1.4,0.6-1.4,1.4v48.5c0,0.8,0.7,1.5,1.5,1.5
	h11c0.8,0,1.4-0.7,1.4-1.5V34.7l0.2-0.1c3.4-1.8,6.1-3,8.8-3c6.1,0,7.2,2.7,7.2,8.9v30.4c0,0.8,0.7,1.5,1.4,1.5h11
	c0.8,0,1.5-0.7,1.5-1.5V40.5C208.6,26.3,203.9,20.2,192.9,20.2z M250.6,24.4c-3.5-2.8-8.6-4.2-15.3-4.2c-5.8,0-12.1,1-15.7,1.9
	c-0.9,0.2-1.4,0.8-1.4,1.6v7.4c0,0.8,0.4,1.2,1.2,1.2h0.5c2.7-0.3,9.2-0.6,15.1-0.6c4.4,0,7.3,1.1,7.3,6.7v3.7h-5.3
	c-7.8,0-13.3,1.2-16.8,3.6c-3.5,2.4-5.2,6.1-5.2,11.4v0.8c0,13.3,9.5,15.3,15.2,15.3c4.9,0,8.5-1.2,12.4-4l0.6-0.5V71
	c0,0.8,0.6,1.4,1.4,1.4h10.2c0.8,0,1.4-0.6,1.4-1.4V38.4C256.2,32.1,254.3,27.4,250.6,24.4z M242.5,60.7l-0.2,0.1
	c-2.8,1.4-5.3,2.1-7.7,2.1c-3.9,0-6.2-0.8-6.2-5v-0.8c0-5.2,2.3-7.1,8.4-7.1h5.6V60.7z M157.8,20.2c-4.4,0-8.8,1.6-12.1,4.3
	l-0.7,0.6v-2.7c0-0.8-0.6-1.4-1.4-1.4h-10.9c-0.8,0-1.4,0.6-1.4,1.4v48.5c0,0.8,0.7,1.5,1.5,1.5h11c0.8,0,1.4-0.7,1.4-1.5V35
	l0.2-0.1c4-2.2,8-3.2,12-3.2h0.7c0.5,0,1-0.7,1-1.3v-8.7C159.2,20.8,158.6,20.2,157.8,20.2z M117.6,24.4c-3.5-2.8-8.6-4.2-15.3-4.2
	c-5.8,0-12.1,1-15.7,1.9c-0.9,0.2-1.4,0.8-1.4,1.6v7.4c0,0.8,0.4,1.2,1.2,1.2h0.5c2.7-0.3,9.2-0.6,15.1-0.6c4.4,0,7.3,1.1,7.3,6.7
	v3.7h-5.3c-7.8,0-13.3,1.2-16.8,3.6c-3.5,2.4-5.2,6.1-5.2,11.4v0.8c0,13.3,9.5,15.3,15.2,15.3c4.9,0,8.5-1.2,12.4-4l0.6-0.5V71
	c0,0.8,0.6,1.4,1.4,1.4h10.2c0.8,0,1.4-0.6,1.4-1.4V38.4C123.2,32.1,121.3,27.4,117.6,24.4z M109.5,60.7l-0.2,0.1
	c-2.8,1.4-5.3,2.1-7.7,2.1c-3.9,0-6.2-0.8-6.2-5v-0.8c0-5.2,2.3-7.1,8.4-7.1h5.6V60.7z"/>
<g>
	<path d="M260.9,21.1h-1v3.6c0,0.1-0.1,0.1-0.1,0.1h-0.6c-0.1,0-0.1-0.1-0.1-0.1v-3.6h-1c-0.1,0-0.1,0-0.1-0.1v-0.5
		c0-0.1,0.1-0.1,0.1-0.1h2.9c0.1,0,0.1,0,0.1,0.1V21C261,21,260.9,21.1,260.9,21.1z"/>
	<path d="M265.3,24.8h-0.6c-0.1,0-0.1-0.1-0.1-0.1v-2.8c0,0,0-0.1,0-0.1c0,0,0,0,0,0L264,23c0,0.1-0.1,0.1-0.2,0.1h-0.6
		c-0.1,0-0.2,0-0.2-0.1l-0.6-1.1c0,0,0,0,0,0c0,0,0,0,0,0.1v2.8c0,0.1,0,0.1-0.1,0.1h-0.6c-0.1,0-0.1,0-0.1-0.1v-4.1
		c0-0.1,0.1-0.2,0.2-0.2h0.5c0.1,0,0.2,0.1,0.2,0.1l0.9,1.8c0,0.1,0,0.1,0.1,0.1c0,0,0,0,0.1-0.1l0.9-1.8c0-0.1,0.1-0.1,0.2-0.1h0.5
		c0.1,0,0.2,0.1,0.2,0.2v4.1C265.4,24.8,265.3,24.8,265.3,24.8z"/>
</g>
<path d="M22.2,35.8c11.6-0.1,22.3-6.4,28.1-16.5c2.8-4.9,4.3-10.4,4.4-16.1c-5.7,0.1-11.2,1.6-16.1,4.4
	C28.6,13.4,22.3,24.2,22.2,35.8z"/>
<path d="M16.6,3.2H7.4C5.2,3.2,3.3,5,3.3,7.3v63.4c0,0.7,0.6,1.5,1.6,1.5h9.2c2.3,0,4.1-1.8,4.1-4.1V4.6C18.2,3.8,17.5,3.2,16.6,3.2
	z"/>
<path d="M22.2,39.8c0.1,11.6,6.4,22.3,16.5,28.1c4.9,2.8,10.4,4.3,16.1,4.4c-0.1-5.7-1.6-11.2-4.4-16.1C44.5,46.3,33.8,40,22.2,39.8
	z"/>
</svg>
