<?xml version="1.0" encoding="utf-8"?>
<!-- Generator: Adobe Illustrator 18.1.1, SVG Export Plug-In . SVG Version: 6.00 Build 0)  -->
<svg version="1.1" id="Layer_2" xmlns="http://www.w3.org/2000/svg" xmlns:xlink="http://www.w3.org/1999/xlink" x="0px" y="0px"
	 viewBox="0 0 491.5 75" enable-background="new 0 0 491.5 75" xml:space="preserve">
<g>
	<g>
		<path d="M73.7,41.9v-8.7l-7.4,0.4c-0.1-0.8-0.3-1.6-0.5-2.4l7-2.3l-3.5-8.1l-6.6,3c-0.5-0.7-1-1.3-1.4-2l5.5-4.7l-6.5-6.1
			l-4.9,5.2c-0.7-0.5-1.4-1-2.1-1.4l3.2-6.3l-8.5-3.3L45.4,12c-0.8-0.2-1.7-0.4-2.5-0.5l0.4-7h-9.2l0.4,7c-0.9,0.1-1.7,0.3-2.5,0.5
			l-2.5-6.6l-8.5,3.3l3.2,6.3c-0.7,0.4-1.4,0.9-2.1,1.4l-4.9-5.2l-6.5,6.1l5.5,4.7c-0.5,0.7-1.1,1.3-1.5,2l-6.6-3l-3.5,8.1l7,2.3
			c-0.2,0.8-0.4,1.6-0.5,2.4l-7.4-0.4v8.7l7.4-0.4c0.1,0.8,0.3,1.6,0.5,2.4l-7,2.3l3.5,8l6.6-3c0.4,0.7,0.9,1.3,1.5,2l-5.5,4.7
			l6.5,6.1l4.9-5.2c0.7,0.5,1.4,1,2.1,1.4l-3.2,6.3l8.5,3.3l2.5-6.6c0.8,0.2,1.6,0.4,2.5,0.5l-0.4,6.9h9.2l-0.4-6.9
			c0.8-0.1,1.7-0.3,2.5-0.5l2.4,6.6l8.5-3.3l-3.1-6.3c0.7-0.4,1.4-0.9,2.1-1.4l4.9,5.2l6.5-6.1l-5.5-4.7c0.5-0.7,1-1.3,1.4-2l6.6,3
			l3.5-8l-7-2.3c0.2-0.8,0.4-1.6,0.5-2.4L73.7,41.9z M55.4,37.6c0,8.7-7.5,15.7-16.6,15.7c-9.2,0-16.6-7-16.6-15.7
			c0-8.7,7.4-15.7,16.6-15.7C47.9,21.8,55.4,28.9,55.4,37.6z"/>
	</g>
	<g>
		<g>
			<polygon points="110.4,51 120.9,51 120.9,57.2 103,57.2 103,21.1 110.4,21.1 			"/>
		</g>
		<g>
			<rect x="135.2" y="21.1" width="7.4" height="36.1"/>
		</g>
		<polygon points="173.1,59.1 156.4,21.1 164.4,21.1 173,42.5 173.2,42.5 182.1,21.1 190.1,21.1 173.2,59.1 		"/>
		<g>
			<polygon points="211.3,27.2 211.3,35.2 223.2,35.2 223.2,41.3 211.3,41.3 211.3,51 223.7,51 223.7,57.2 203.9,57.2 203.9,21.1 
				223.7,21.1 223.7,27.2 			"/>
		</g>
		<path d="M259.7,23c-2.9-1.8-6.4-1.9-9.9-1.9h-6.5v36.1h4.4V41.4h3.2c3.4,0,6.8-0.4,9.5-2.4c2.5-1.9,3.8-4.8,3.8-7.8
			C264.2,28,262.7,24.8,259.7,23z M250.7,37.6h-3V24.8h1.6c5.2,0,10.4,0.4,10.4,6.3C259.8,36.2,255.6,37.6,250.7,37.6z"/>
		<g>
			<polygon points="279.7,21.1 300.3,21.1 300.3,24.8 284.2,24.8 284.2,35.5 299.9,35.5 299.9,39.2 284.2,39.2 284.2,53.5 
				300.3,53.5 300.3,57.2 279.7,57.2 			"/>
		</g>
		<path d="M327.8,41c6.1-0.5,10-4.4,10-9.9c0-8.2-7-10-14.5-10h-5.7v36.1h4.4V41.3h1.1l12,15.8h5.4L327.8,41z M322,37.7v-13h1.3
			c5.3,0,10.1,0.6,10.1,6.5c0,5.6-5.1,6.4-10.1,6.4H322z"/>
		<g>
			<path d="M373.3,28.1c-1.6-2.5-3.5-3.9-6.8-3.9c-3.5,0-6.6,2.3-6.6,5.6c0,3.1,3.5,4.5,6.2,5.7l2.6,1c5.2,2.1,9.6,4.4,9.6,10.2
				c0,6.3-5.6,11.2-12.5,11.2c-6.4,0-11-3.8-12.4-9.4l4.3-1.1c0.6,3.7,3.7,6.7,8,6.7c4.3,0,8.1-2.9,8.1-7c0-4.2-3.6-5.7-7.3-7.2
				l-2.4-1c-4.6-1.9-8.6-4.1-8.6-9.2c0-5.6,5.2-9.2,11.1-9.2c4.4,0,8.1,2,10.3,5.6L373.3,28.1z"/>
		</g>
		<path d="M412.5,20.4c-11.3,0-20.7,8.4-20.7,18.7c0,10.4,9.4,18.7,20.7,18.7c11.4,0,20.7-8.3,20.7-18.7
			C433.2,28.8,423.8,20.4,412.5,20.4z M412.5,54c-9,0-16.2-6.8-16.2-14.9c0-8.2,7.1-14.9,16.2-14.9c9.1,0,16.3,6.7,16.3,14.9
			C428.7,47.3,421.5,54,412.5,54z"/>
		<g>
			<polygon points="450.3,19.5 481.3,49 481.3,21.1 485.7,21.1 485.7,58.8 454.7,29.3 454.7,57.2 450.3,57.2 			"/>
		</g>
	</g>
</g>
</svg>
