<?xml version="1.0" encoding="utf-8"?>
<!-- Generator: Adobe Illustrator 18.1.1, SVG Export Plug-In . SVG Version: 6.00 Build 0)  -->
<svg version="1.1" id="Layer_1" xmlns="http://www.w3.org/2000/svg" xmlns:xlink="http://www.w3.org/1999/xlink" x="0px" y="0px"
	 viewBox="0 0 499 202.3" enable-background="new 0 0 499 202.3" xml:space="preserve">
<g>
	<polygon fill="#010202" points="8.8,102.9 40.8,102.9 40.8,156 40.8,194.4 56.3,194.4 56.3,102.9 56.7,102.9 89.4,102.9 89.4,91.4 
		8.8,91.4 	"/>
	<polygon fill="#010202" points="116.8,152.7 116.8,194.4 132.2,194.4 132.2,91.6 116.8,91.6 	"/>
	<path fill="#010202" d="M218.4,126.9c27.5-16.6,39.5-35.2,39.5-35.2h-18.4c-37.8,34.6-59.2,37.9-62.5,38.1V91.6h-15.4v61.1v41.8
		h15.4v-49.6c10-2.9,18.9-6.3,26.9-10.1c1.5,0.9,31.3,19.2,44.4,59.8h17.3C265.6,194.5,255,154.8,218.4,126.9z"/>
	<polygon fill="#010202" points="442,183.2 442,91.6 426.5,91.6 426.5,152.7 426.5,183.2 426.5,183.2 426.5,194.6 464.6,194.6 
		490.7,194.6 490.7,183.2 	"/>
	<path fill="#010202" d="M346.2,91.4h-0.5H339c-41,46.3-47.4,102.7-47.4,102.7h16c6.1-53.4,36-85.1,38.4-87.6
		c1.8,1.8,18.8,20,30,51.4h-49.8l-4.5,11.4h36.5h21.4c2.1,7.7,3.8,15.9,4.8,24.7h16c0,0-6.4-56.4-47.4-102.7H346.2z"/>
	<path fill="#010202" d="M122.4,78.6c8-78.2-55.5-70.3-55.5-70.3c0.6,20.4,5.6,34.7,19.9,49.8C98.8,70.9,122.4,78.6,122.4,78.6z"/>
</g>
</svg>
