<?xml version="1.0" encoding="utf-8"?>
<!-- Generator: Adobe Illustrator 18.1.1, SVG Export Plug-In . SVG Version: 6.00 Build 0)  -->
<svg version="1.1" id="Layer_1" xmlns="http://www.w3.org/2000/svg" xmlns:xlink="http://www.w3.org/1999/xlink" x="0px" y="0px"
	 viewBox="0 0 587.3 85.3" enable-background="new 0 0 587.3 85.3" xml:space="preserve">
<g>
	<path fill="#010202" d="M94.4,4.3c-3.2,1.7-4.4,4.5-4.4,12.3c0,0,1.6-1.6,4-2.4c1.7-0.6,3.2-1.6,4.1-2.2c2.7-2,3.1-4.5,3.1-8.8
		C101.3,3.1,96.9,3,94.4,4.3z"/>
	<path fill="#010202" d="M75.5,6.1c-2.6,2.3-3.4,6-3.4,6l-8.6,33.4l-7.2-27.3c-0.7-2.9-2-6.5-3.9-8.9c-2.5-3.1-7.7-3.3-8.2-3.3
		s-5.7,0.2-8.2,3.3c-2,2.4-3.2,6-3.9,8.9l-7.2,27.3l-8.6-33.4c0,0-0.8-3.7-3.4-6C8.6,2.4,2.3,3.2,2.3,3.2l16.5,62.4
		c0,0,5.4,0.4,8.2-1c3.6-1.8,5.3-3.2,7.4-11.7c1.9-7.6,7.3-29.8,7.8-31.4c0.2-0.8,0.6-2.7,1.9-2.7c1.4,0,1.7,1.9,1.9,2.7
		c0.5,1.6,5.9,23.8,7.8,31.4c2.2,8.5,3.9,9.9,7.4,11.7c2.7,1.4,8.2,1,8.2,1L86.1,3.2C86.1,3.2,79.7,2.4,75.5,6.1z"/>
	<path fill="#010202" d="M101.3,13.4c0,0-1,1.6-3.4,2.9c-1.5,0.8-3,1.4-4.5,2.2c-2.6,1.3-3.3,2.6-3.3,4.8V24v3.3v0.1v0.7v37.5
		c0,0,4.2,0.5,6.9-0.9c3.5-1.8,4.3-3.5,4.3-11.3V15.7l0,0V13.4z"/>
	<path fill="#010202" d="M142.4,34.6l20.9-31.1c0,0-8.8-1.5-13.2,2.5c-2.8,2.5-5.9,7.1-5.9,7.1l-7.7,11.1c-0.4,0.6-0.9,1.2-1.6,1.2
		c-0.8,0-1.3-0.6-1.6-1.2L125.5,13c0,0-3.1-4.6-5.9-7.1c-4.4-4-13.2-2.5-13.2-2.5l20.9,31.1l-20.9,31c0,0,9.2,1.2,13.6-2.8
		c2.8-2.5,5.5-6.7,5.5-6.7l7.7-11.1c0.4-0.6,0.9-1.2,1.6-1.2c0.8,0,1.3,0.6,1.6,1.2l7.7,11.1c0,0,2.9,4.1,5.7,6.7
		c4.4,4,13.4,2.8,13.4,2.8L142.4,34.6z"/>
</g>
<g>
	<path fill="#010202" d="M211.5,62.4v3.3h-42.6V2.9h42.2v3.3h-38.3v25.1h36v3.3h-36v27.6H211.5z"/>
	<path fill="#010202" d="M217.5,20.5h3.3v9.7h0.2c0.6-1.7,1.4-3.2,2.5-4.5c1.1-1.3,2.3-2.4,3.8-3.4c1.4-0.9,3-1.6,4.7-2.1
		c1.7-0.5,3.4-0.7,5.2-0.7c2.6,0,4.9,0.3,6.7,1c1.8,0.6,3.4,1.5,4.5,2.5c1.2,1.1,2.1,2.2,2.8,3.6c0.7,1.3,1.2,2.7,1.4,4
		c0.3,1.3,0.5,2.7,0.5,3.9c0.1,1.3,0.1,2.4,0.1,3.3v27.9h-3.3V37.1c0-1.2-0.1-2.6-0.3-4.3c-0.2-1.7-0.7-3.3-1.5-4.8
		c-0.9-1.6-2.1-2.9-3.9-4c-1.7-1.1-4.1-1.7-7.2-1.7c-2.5,0-4.8,0.5-6.8,1.4c-2,0.9-3.7,2.2-5.1,3.9c-1.4,1.7-2.5,3.7-3.2,6
		c-0.7,2.3-1.1,4.8-1.1,7.6v24.4h-3.3V20.5z"/>
	<path fill="#010202" d="M300.4,20.5v42.8c0,0.6,0,1.5-0.1,2.7c-0.1,1.2-0.3,2.6-0.6,4.1c-0.4,1.5-0.9,3-1.7,4.6
		c-0.8,1.6-1.9,3-3.3,4.2c-1.4,1.3-3.3,2.3-5.5,3c-2.3,0.8-5,1.1-8.2,1c-2.4,0-4.7-0.2-6.8-0.7c-2.1-0.5-3.9-1.3-5.5-2.4
		c-1.6-1.1-2.8-2.5-3.8-4.3c-1-1.8-1.5-4-1.6-6.6h3.3c0.2,2,0.7,3.7,1.5,5.1c0.8,1.4,1.9,2.6,3.2,3.5c1.3,0.9,2.8,1.6,4.4,2
		c1.6,0.4,3.4,0.6,5.3,0.6c2.6,0,4.9-0.3,6.7-1c1.8-0.6,3.3-1.5,4.5-2.5c1.2-1,2.1-2.2,2.8-3.4c0.6-1.2,1.1-2.4,1.5-3.6
		c0.3-1.2,0.5-2.2,0.6-3.2c0.1-1,0.1-1.7,0.1-2.2V53.7h-0.2c-1.6,3.3-3.7,5.9-6.5,7.6c-2.7,1.8-6,2.6-9.9,2.6
		c-3.3,0-6.2-0.6-8.7-1.7c-2.4-1.1-4.5-2.7-6.1-4.7c-1.6-2-2.8-4.4-3.6-7.1c-0.8-2.7-1.2-5.6-1.2-8.8c0-3,0.4-5.8,1.3-8.5
		c0.9-2.7,2.1-5.1,3.7-7.1c1.6-2,3.7-3.6,6.1-4.8c2.4-1.2,5.2-1.8,8.4-1.8c1.8,0,3.5,0.2,5.2,0.7c1.7,0.5,3.3,1.1,4.7,2
		c1.4,0.9,2.7,2,3.8,3.3c1.1,1.3,2,2.8,2.6,4.5h0.2v-9.4H300.4z M280.6,22.4c-2.8,0-5.1,0.6-7.2,1.7c-2,1.1-3.7,2.6-5,4.4
		c-1.3,1.8-2.3,3.9-3,6.2c-0.7,2.3-1,4.7-1,7.1c0,2.6,0.3,5.1,1,7.5c0.7,2.4,1.7,4.4,3.1,6.2c1.4,1.8,3.1,3.2,5.1,4.2
		c2,1,4.4,1.5,7,1.5c2.8,0,5.2-0.5,7.2-1.6c2-1.1,3.8-2.5,5.1-4.3c1.4-1.8,2.4-3.9,3.1-6.2c0.7-2.3,1-4.8,1-7.3c0-2.5-0.3-4.9-1-7.3
		c-0.7-2.3-1.7-4.4-3.1-6.2c-1.4-1.8-3.1-3.2-5.1-4.3C285.7,22.9,283.3,22.4,280.6,22.4z"/>
	<path fill="#010202" d="M311.1,12V2.9h3.3V12H311.1z M311.1,65.7V20.5h3.3v45.2H311.1z"/>
	<path fill="#010202" d="M325.1,20.5h3.3v9.7h0.2c0.6-1.7,1.4-3.2,2.5-4.5c1.1-1.3,2.3-2.4,3.8-3.4c1.4-0.9,3-1.6,4.7-2.1
		c1.7-0.5,3.4-0.7,5.2-0.7c2.6,0,4.9,0.3,6.7,1c1.8,0.6,3.4,1.5,4.5,2.5c1.2,1.1,2.1,2.2,2.8,3.6c0.7,1.3,1.2,2.7,1.4,4
		c0.3,1.3,0.5,2.7,0.5,3.9c0.1,1.3,0.1,2.4,0.1,3.3v27.9h-3.3V37.1c0-1.2-0.1-2.6-0.3-4.3c-0.2-1.7-0.7-3.3-1.5-4.8
		c-0.9-1.6-2.1-2.9-3.9-4c-1.7-1.1-4.1-1.7-7.2-1.7c-2.5,0-4.8,0.5-6.8,1.4c-2,0.9-3.7,2.2-5.1,3.9c-1.4,1.7-2.5,3.7-3.2,6
		c-0.7,2.3-1.1,4.8-1.1,7.6v24.4h-3.3V20.5z"/>
	<path fill="#010202" d="M372,43.5c-0.1,2.6,0.2,5.2,0.9,7.6c0.7,2.5,1.7,4.6,3.1,6.5c1.4,1.9,3.1,3.4,5.2,4.5
		c2.1,1.1,4.5,1.7,7.3,1.7c4.3,0,7.8-1.2,10.7-3.6c2.8-2.4,4.7-5.7,5.5-9.9h3.3c-0.9,5.3-3,9.4-6.4,12.2c-3.4,2.8-7.7,4.2-13.1,4.2
		c-3.3,0-6.2-0.6-8.7-1.8c-2.5-1.2-4.6-2.8-6.3-4.9c-1.7-2.1-2.9-4.5-3.8-7.3c-0.8-2.8-1.2-5.7-1.2-8.8c-0.1-3.1,0.3-6.1,1.1-9.1
		c0.8-2.9,2-5.5,3.7-7.8c1.7-2.3,3.8-4.1,6.3-5.5c2.5-1.4,5.5-2.1,8.9-2.1c3.5,0,6.6,0.6,9.1,1.9c2.6,1.3,4.7,3,6.3,5.2
		s2.8,4.8,3.6,7.7c0.7,2.9,1,6,0.8,9.2H372z M405.1,40.6c-0.1-2.3-0.5-4.6-1.2-6.9c-0.8-2.2-1.8-4.2-3.3-5.8c-1.4-1.7-3.1-3-5.1-4
		c-2-1-4.3-1.5-6.9-1.5c-2.5,0-4.8,0.5-6.7,1.6c-2,1.1-3.6,2.4-5.1,4.2c-1.4,1.7-2.5,3.7-3.3,5.9c-0.8,2.2-1.3,4.4-1.5,6.6H405.1z"
		/>
	<path fill="#010202" d="M417.6,43.5c-0.1,2.6,0.2,5.2,0.9,7.6c0.7,2.5,1.7,4.6,3.1,6.5c1.4,1.9,3.1,3.4,5.2,4.5
		c2.1,1.1,4.5,1.7,7.3,1.7c4.3,0,7.8-1.2,10.7-3.6c2.8-2.4,4.7-5.7,5.5-9.9h3.3c-0.9,5.3-3,9.4-6.4,12.2c-3.4,2.8-7.7,4.2-13.1,4.2
		c-3.3,0-6.2-0.6-8.7-1.8c-2.5-1.2-4.6-2.8-6.3-4.9c-1.7-2.1-2.9-4.5-3.8-7.3c-0.8-2.8-1.2-5.7-1.2-8.8c-0.1-3.1,0.3-6.1,1.1-9.1
		c0.8-2.9,2-5.5,3.7-7.8c1.7-2.3,3.8-4.1,6.3-5.5c2.5-1.4,5.5-2.1,8.9-2.1c3.5,0,6.6,0.6,9.1,1.9c2.6,1.3,4.7,3,6.3,5.2
		s2.8,4.8,3.6,7.7c0.7,2.9,1,6,0.8,9.2H417.6z M450.7,40.6c-0.1-2.3-0.5-4.6-1.2-6.9c-0.8-2.2-1.8-4.2-3.3-5.8c-1.4-1.7-3.1-3-5.1-4
		c-2-1-4.3-1.5-6.9-1.5c-2.5,0-4.8,0.5-6.7,1.6c-2,1.1-3.6,2.4-5.1,4.2c-1.4,1.7-2.5,3.7-3.3,5.9c-0.8,2.2-1.3,4.4-1.5,6.6H450.7z"
		/>
	<path fill="#010202" d="M465.2,30.5h0.3c0.4-1.5,1.2-2.8,2.3-4.1c1.1-1.3,2.4-2.4,4-3.3c1.5-0.9,3.2-1.7,5.1-2.2
		c1.9-0.5,3.9-0.7,5.9-0.7v3.3c-1.8-0.2-3.8-0.1-6,0.5c-2.3,0.6-4.4,1.9-6.5,3.9c-0.8,0.9-1.5,1.7-2.2,2.5c-0.6,0.8-1.1,1.7-1.5,2.7
		c-0.4,1-0.7,2.1-1,3.3c-0.2,1.2-0.4,2.7-0.4,4.4v24.7h-3.3V20.5h3.3V30.5z"/>
	<path fill="#010202" d="M487.1,12V2.9h3.3V12H487.1z M487.1,65.7V20.5h3.3v45.2H487.1z"/>
	<path fill="#010202" d="M501.1,20.5h3.3v9.7h0.2c0.6-1.7,1.4-3.2,2.5-4.5c1.1-1.3,2.3-2.4,3.8-3.4c1.4-0.9,3-1.6,4.7-2.1
		c1.7-0.5,3.4-0.7,5.2-0.7c2.6,0,4.9,0.3,6.7,1c1.8,0.6,3.4,1.5,4.5,2.5c1.2,1.1,2.1,2.2,2.8,3.6c0.7,1.3,1.2,2.7,1.4,4
		c0.3,1.3,0.5,2.7,0.5,3.9c0.1,1.3,0.1,2.4,0.1,3.3v27.9h-3.3V37.1c0-1.2-0.1-2.6-0.3-4.3c-0.2-1.7-0.7-3.3-1.5-4.8
		c-0.9-1.6-2.1-2.9-3.9-4c-1.7-1.1-4.1-1.7-7.2-1.7c-2.5,0-4.8,0.5-6.8,1.4c-2,0.9-3.7,2.2-5.1,3.9c-1.4,1.7-2.5,3.7-3.2,6
		c-0.7,2.3-1.1,4.8-1.1,7.6v24.4h-3.3V20.5z"/>
	<path fill="#010202" d="M584.1,20.5v42.8c0,0.6,0,1.5-0.1,2.7c-0.1,1.2-0.3,2.6-0.6,4.1c-0.4,1.5-0.9,3-1.7,4.6
		c-0.8,1.6-1.9,3-3.3,4.2c-1.4,1.3-3.3,2.3-5.5,3c-2.3,0.8-5,1.1-8.2,1c-2.4,0-4.7-0.2-6.8-0.7c-2.1-0.5-3.9-1.3-5.5-2.4
		c-1.6-1.1-2.8-2.5-3.8-4.3c-1-1.8-1.5-4-1.6-6.6h3.3c0.2,2,0.7,3.7,1.5,5.1c0.8,1.4,1.9,2.6,3.2,3.5c1.3,0.9,2.8,1.6,4.4,2
		c1.6,0.4,3.4,0.6,5.3,0.6c2.6,0,4.9-0.3,6.7-1c1.8-0.6,3.3-1.5,4.5-2.5c1.2-1,2.1-2.2,2.8-3.4c0.6-1.2,1.1-2.4,1.5-3.6
		c0.3-1.2,0.5-2.2,0.6-3.2c0.1-1,0.1-1.7,0.1-2.2V53.7h-0.2c-1.6,3.3-3.7,5.9-6.5,7.6c-2.7,1.8-6,2.6-9.9,2.6
		c-3.3,0-6.2-0.6-8.7-1.7c-2.4-1.1-4.5-2.7-6.1-4.7c-1.6-2-2.8-4.4-3.6-7.1c-0.8-2.7-1.2-5.6-1.2-8.8c0-3,0.4-5.8,1.3-8.5
		c0.9-2.7,2.1-5.1,3.7-7.1c1.6-2,3.7-3.6,6.1-4.8c2.4-1.2,5.2-1.8,8.4-1.8c1.8,0,3.5,0.2,5.2,0.7s3.3,1.1,4.7,2
		c1.4,0.9,2.7,2,3.8,3.3c1.1,1.3,2,2.8,2.6,4.5h0.2v-9.4H584.1z M564.2,22.4c-2.8,0-5.1,0.6-7.2,1.7c-2,1.1-3.7,2.6-5,4.4
		c-1.3,1.8-2.3,3.9-3,6.2c-0.7,2.3-1,4.7-1,7.1c0,2.6,0.3,5.1,1,7.5c0.7,2.4,1.7,4.4,3.1,6.2c1.4,1.8,3.1,3.2,5.1,4.2
		c2,1,4.4,1.5,7,1.5c2.8,0,5.2-0.5,7.2-1.6c2-1.1,3.8-2.5,5.1-4.3c1.4-1.8,2.4-3.9,3.1-6.2c0.7-2.3,1-4.8,1-7.3c0-2.5-0.3-4.9-1-7.3
		c-0.7-2.3-1.7-4.4-3.1-6.2c-1.4-1.8-3.1-3.2-5.1-4.3C569.3,22.9,566.9,22.4,564.2,22.4z"/>
</g>
</svg>
