<svg xmlns="http://www.w3.org/2000/svg" version="1.1" x="0" y="0" viewBox="0 0 542 91" enable-background="new 0 0 542 91" xml:space="preserve">
  <path fill="#474647" d="M128.6 2.3c-4.4 2.3-6.1 6.3-6.1 17.1 0 0 2.2-2.2 5.6-3.4 2.4-0.9 4.5-2.2 5.7-3.1 3.8-2.7 4.3-6.3 4.3-12.2C138.1 0.7 132 0.5 128.6 2.3zM102.2 4.9c-3.6 3.2-4.7 8.3-4.7 8.3l-12 46.4 -10-38c-1-4-2.7-9-5.5-12.4 -3.5-4.3-10.7-4.6-11.5-4.6s-7.9 0.3-11.5 4.6c-2.8 3.4-4.5 8.4-5.5 12.4l-10 38 -12-46.4c0 0-1.1-5.1-4.7-8.3C9.2-0.3 0.4 0.8 0.4 0.8l22.9 86.8c0 0 7.6 0.5 11.4-1.4 5-2.5 7.3-4.5 10.4-16.3C47.8 59.3 55.3 28.4 56 26.2c0.3-1.1 0.8-3.7 2.7-3.7 2 0 2.4 2.6 2.7 3.7 0.7 2.2 8.2 33.1 10.9 43.6 3 11.8 5.4 13.8 10.4 16.3 3.8 1.9 11.4 1.4 11.4 1.4l22.9-86.8C116.9 0.8 108.1-0.3 102.2 4.9zM138.1 15c0 0-1.4 2.2-4.7 4.1 -2.1 1.2-4.1 2-6.3 3 -3.6 1.7-4.6 3.7-4.6 6.6v1 4.6 0.1 1 52.2c0 0 5.8 0.7 9.6-1.2 4.9-2.5 6-4.9 6-15.7V18.1l0 0V15zM195.3 44.4l29.1-43.3c0 0-12.3-2.1-18.4 3.4 -3.9 3.5-8.2 9.9-8.2 9.9l-10.7 15.4c-0.5 0.8-1.2 1.7-2.3 1.7s-1.8-0.9-2.3-1.7l-10.7-15.4c0 0-4.4-6.4-8.2-9.9 -6.1-5.5-18.4-3.4-18.4-3.4l29.1 43.3 -29 43.2c0 0 12.8 1.6 18.9-3.9 3.9-3.5 7.7-9.3 7.7-9.3l10.7-15.4c0.5-0.8 1.2-1.7 2.3-1.7s1.8 0.9 2.3 1.7l10.7 15.4c0 0 4 5.8 7.9 9.3 6.1 5.5 18.7 3.9 18.7 3.9L195.3 44.4z"/>
  <path fill="#474647" d="M287.3 26.3c-0.2-3.6-0.9-6.8-2.3-9.5 -1.4-2.7-3.3-5-5.6-6.8 -2.4-1.8-5.2-3.2-8.5-4.1 -3.3-0.9-6.9-1.4-10.8-1.4 -2.4 0-4.9 0.3-7.7 0.8 -2.7 0.6-5.3 1.5-7.6 2.9 -2.3 1.4-4.3 3.3-5.8 5.6 -1.5 2.3-2.3 5.3-2.3 8.7 0 3.4 0.8 6.2 2.5 8.3 1.7 2.1 3.8 3.9 6.5 5.2 2.7 1.3 5.8 2.4 9.3 3.2 3.5 0.8 7 1.5 10.6 2.3 3.6 0.7 7.2 1.6 10.6 2.6 3.4 1 6.5 2.3 9.3 4 2.7 1.7 4.9 3.9 6.6 6.6 1.7 2.7 2.5 6.1 2.5 10.3 0 4.4-1 8.2-2.9 11.2 -1.9 3-4.3 5.5-7.2 7.4 -2.9 1.9-6.1 3.3-9.6 4.1 -3.5 0.8-6.9 1.2-10.2 1.2 -5 0-9.7-0.5-14-1.6 -4.4-1.1-8.2-2.8-11.4-5.2 -3.3-2.4-5.8-5.5-7.7-9.3s-2.8-8.4-2.7-13.9h5.2c-0.2 4.7 0.4 8.6 2 11.8 1.5 3.2 3.7 5.8 6.6 7.9 2.9 2.1 6.2 3.5 10 4.5 3.8 0.9 7.8 1.4 12 1.4 2.5 0 5.2-0.3 8.1-1 2.9-0.6 5.5-1.7 8-3.2 2.4-1.5 4.4-3.5 6.1-5.9 1.6-2.5 2.4-5.5 2.4-9.3 0-3.6-0.8-6.5-2.5-8.7 -1.7-2.3-3.9-4.1-6.6-5.5 -2.7-1.4-5.8-2.5-9.3-3.3 -3.4-0.8-7-1.6-10.6-2.3 -3.6-0.7-7.1-1.5-10.6-2.5 -3.5-1-6.6-2.2-9.3-3.9 -2.7-1.6-4.9-3.7-6.5-6.3 -1.7-2.6-2.5-5.9-2.5-9.9 0-4 0.9-7.5 2.6-10.4 1.7-2.9 3.9-5.2 6.7-7 2.7-1.8 5.8-3.1 9.2-3.9C253.3 0.4 256.7 0 260 0c4.4 0 8.6 0.5 12.4 1.5 3.8 1 7.2 2.5 10.1 4.6 2.9 2.1 5.2 4.8 7 8.1 1.7 3.3 2.7 7.3 3 12H287.3zM328.4 29.8h-13.3v42.7c0 2.5 0.3 4.4 0.8 5.8s1.4 2.5 2.6 3.2c1.1 0.7 2.5 1.2 4.2 1.4 1.6 0.2 3.5 0.3 5.6 0.2v3.9c-2.3 0.2-4.5 0.1-6.7-0.1 -2.2-0.2-4.1-0.8-5.8-1.8s-3-2.5-4-4.5c-1-2-1.4-4.7-1.2-8.2V29.8h-11.3v-3.9h11.3v-19h4.5v19h13.3V29.8zM333.9 56.4c0-4.4 0.6-8.5 1.8-12.3 1.2-3.8 3-7.2 5.4-10.2 2.4-2.9 5.3-5.2 8.8-7 3.5-1.7 7.5-2.6 12-2.6 4.5 0 8.5 0.9 12 2.6 3.5 1.7 6.4 4 8.8 7 2.4 2.9 4.2 6.3 5.4 10.2 1.2 3.8 1.8 7.9 1.8 12.3s-0.6 8.5-1.8 12.4c-1.2 3.9-3 7.3-5.4 10.2 -2.4 2.9-5.3 5.2-8.8 6.9 -3.5 1.7-7.5 2.6-12 2.6 -4.5 0-8.5-0.9-12-2.6 -3.5-1.7-6.4-4-8.8-6.9 -2.4-2.9-4.2-6.3-5.4-10.2C334.5 64.9 333.9 60.7 333.9 56.4zM338.4 56.4c0 3.6 0.5 7.2 1.5 10.5 1 3.4 2.5 6.4 4.5 9 2 2.6 4.4 4.7 7.4 6.2 2.9 1.5 6.3 2.3 10.1 2.3 3.8 0 7.2-0.8 10.1-2.3 2.9-1.5 5.4-3.6 7.4-6.2 2-2.6 3.5-5.6 4.5-9 1-3.4 1.5-6.9 1.5-10.5s-0.5-7.2-1.5-10.5c-1-3.4-2.5-6.4-4.5-9 -2-2.6-4.4-4.7-7.4-6.2 -2.9-1.5-6.3-2.3-10.1-2.3 -3.8 0-7.2 0.8-10.1 2.3 -2.9 1.5-5.4 3.6-7.4 6.2 -2 2.6-3.5 5.6-4.5 9C338.9 49.2 338.4 52.7 338.4 56.4zM405.1 39.4h0.4c0.6-2 1.6-3.8 3.1-5.6 1.5-1.7 3.3-3.2 5.3-4.5 2.1-1.3 4.4-2.2 7-2.9 2.6-0.7 5.3-1 8-0.9V30c-2.4-0.3-5.1-0.1-8.1 0.7 -3.1 0.8-6 2.5-8.7 5.2 -1.1 1.2-2.1 2.3-2.9 3.4 -0.8 1.1-1.5 2.3-2.1 3.7 -0.6 1.3-1 2.9-1.3 4.5 -0.3 1.7-0.5 3.6-0.6 5.9v33.4h-4.5V25.8h4.5V39.4zM435.4 57c-0.1 3.6 0.3 7 1.2 10.3 0.9 3.3 2.3 6.3 4.2 8.8 1.9 2.5 4.3 4.6 7.1 6.1 2.8 1.5 6.1 2.3 9.9 2.3 5.8 0 10.6-1.6 14.4-4.8 3.8-3.2 6.3-7.7 7.4-13.4h4.5c-1.2 7.2-4.1 12.7-8.6 16.5 -4.6 3.8-10.5 5.6-17.8 5.6 -4.4 0-8.4-0.8-11.8-2.4 -3.4-1.6-6.2-3.8-8.5-6.7 -2.3-2.8-4-6.1-5.1-9.9 -1.1-3.8-1.7-7.7-1.6-11.9 -0.1-4.2 0.4-8.3 1.5-12.2 1.1-4 2.7-7.5 5-10.6 2.3-3.1 5.1-5.6 8.5-7.4 3.4-1.9 7.4-2.8 12-2.8 4.8 0 8.9 0.9 12.4 2.6 3.5 1.7 6.3 4.1 8.6 7.1 2.2 3 3.8 6.4 4.8 10.4 1 4 1.4 8.1 1.1 12.5H435.4zM480.2 53.1c-0.1-3.2-0.6-6.3-1.7-9.3 -1-3-2.5-5.6-4.4-7.9 -1.9-2.3-4.2-4.1-7-5.5 -2.7-1.4-5.8-2.1-9.3-2.1 -3.4 0-6.4 0.7-9.1 2.1 -2.7 1.4-4.9 3.3-6.8 5.6 -1.9 2.3-3.4 5-4.5 8 -1.1 3-1.8 6-2 9H480.2zM497.5 66.6c0.2 2.9 0.8 5.4 1.9 7.5 1.1 2.2 2.6 4 4.3 5.6 1.8 1.5 3.9 2.7 6.2 3.5 2.4 0.8 5 1.2 7.7 1.2 2 0 4.1-0.2 6.4-0.5 2.3-0.4 4.4-1 6.3-2 1.9-1 3.5-2.3 4.8-4 1.3-1.7 1.9-3.9 1.9-6.5 0-2.6-0.6-4.7-1.8-6.3 -1.2-1.6-2.8-2.9-4.8-3.8 -2-1-4.2-1.7-6.7-2.3 -2.5-0.6-5.1-1.1-7.7-1.7 -2.6-0.6-5.2-1.2-7.7-1.9s-4.8-1.7-6.8-2.9c-2-1.2-3.6-2.9-4.8-4.9 -1.2-2-1.8-4.6-1.8-7.7 0-3 0.7-5.5 2-7.5 1.3-2 3.1-3.6 5.2-4.8 2.1-1.2 4.5-2 7.1-2.6 2.6-0.5 5.2-0.8 7.8-0.8 3.2 0 6.2 0.4 9 1.1 2.7 0.7 5.1 1.9 7.1 3.4 2 1.6 3.6 3.6 4.8 6.1 1.1 2.5 1.7 5.4 1.7 8.9h-4.5c0-2.8-0.5-5.2-1.4-7.1 -1-2-2.2-3.6-3.8-4.8 -1.6-1.2-3.5-2.1-5.7-2.7 -2.2-0.6-4.6-0.9-7.1-0.9 -2.1 0-4.1 0.2-6.2 0.6 -2.1 0.4-4 1.1-5.6 2 -1.7 1-3 2.2-4.1 3.7 -1.1 1.5-1.6 3.3-1.6 5.5 0 2.5 0.6 4.4 1.8 5.9 1.2 1.5 2.8 2.7 4.7 3.6 1.9 0.9 4.1 1.6 6.5 2.2 2.4 0.6 4.9 1.1 7.3 1.7 3 0.6 5.8 1.2 8.5 2 2.7 0.8 5 1.8 6.9 3.1 1.9 1.3 3.5 3 4.6 5.1 1.1 2.1 1.7 4.7 1.7 7.8 0 3.3-0.8 6.1-2.3 8.2 -1.5 2.1-3.4 3.9-5.7 5.2 -2.3 1.3-4.9 2.2-7.7 2.7 -2.8 0.5-5.6 0.8-8.3 0.8 -3.5 0-6.7-0.5-9.7-1.4 -3-0.9-5.6-2.3-7.8-4.2 -2.2-1.9-4-4.1-5.2-6.8 -1.3-2.7-1.9-5.8-2-9.4H497.5z"/>
</svg>